<?xml version="1.0" encoding="utf-8"?>
<svg xmlns="http://www.w3.org/2000/svg" xmlns:xlink="http://www.w3.org/1999/xlink" width="1000" height="1000" viewBox="0 0 4000 4000">
<defs>
  <clipPath id="clip610">
    <rect x="0" y="0" width="4000" height="4000"/>
  </clipPath>
</defs>
<path clip-path="url(#clip610)" d="M0 4000 L4000 4000 L4000 0 L0 0  Z" fill="#ffffff" fill-rule="evenodd" fill-opacity="1"/>
<defs>
  <clipPath id="clip611">
    <rect x="800" y="400" width="2801" height="2801"/>
  </clipPath>
</defs>
<path clip-path="url(#clip610)" d="M47.2441 3952.76 L3952.76 3952.76 L3952.76 47.2441 L47.2441 47.2441  Z" fill="#ffffff" fill-rule="evenodd" fill-opacity="1"/>
<defs>
  <clipPath id="clip612">
    <rect x="47" y="47" width="3907" height="3907"/>
  </clipPath>
</defs>
<polyline clip-path="url(#clip612)" style="stroke:#000000; stroke-linecap:round; stroke-linejoin:round; stroke-width:4; stroke-opacity:1; fill:none" points="1638.76,2093.22 1149.18,1791.48 "/>
<polyline clip-path="url(#clip612)" style="stroke:#000000; stroke-linecap:round; stroke-linejoin:round; stroke-width:4; stroke-opacity:1; fill:none" points="1184.52,1848.5 1149.18,1791.48 1216,1797.42 "/>
<polyline clip-path="url(#clip612)" style="stroke:#000000; stroke-linecap:round; stroke-linejoin:round; stroke-width:4; stroke-opacity:1; fill:none" points="1149.18,1791.48 1638.76,2093.22 "/>
<polyline clip-path="url(#clip612)" style="stroke:#000000; stroke-linecap:round; stroke-linejoin:round; stroke-width:4; stroke-opacity:1; fill:none" points="1638.76,2093.22 1437.79,631.708 "/>
<polyline clip-path="url(#clip612)" style="stroke:#000000; stroke-linecap:round; stroke-linejoin:round; stroke-width:4; stroke-opacity:1; fill:none" points="1416.25,695.235 1437.79,631.708 1475.69,687.062 "/>
<polyline clip-path="url(#clip612)" style="stroke:#000000; stroke-linecap:round; stroke-linejoin:round; stroke-width:4; stroke-opacity:1; fill:none" points="1437.79,631.708 1638.76,2093.22 "/>
<polyline clip-path="url(#clip612)" style="stroke:#000000; stroke-linecap:round; stroke-linejoin:round; stroke-width:4; stroke-opacity:1; fill:none" points="1638.76,2093.22 911.594,962.395 "/>
<polyline clip-path="url(#clip612)" style="stroke:#000000; stroke-linecap:round; stroke-linejoin:round; stroke-width:4; stroke-opacity:1; fill:none" points="918.813,1029.09 911.594,962.395 969.279,996.635 "/>
<polyline clip-path="url(#clip612)" style="stroke:#000000; stroke-linecap:round; stroke-linejoin:round; stroke-width:4; stroke-opacity:1; fill:none" points="911.594,962.395 1638.76,2093.22 "/>
<polyline clip-path="url(#clip612)" style="stroke:#000000; stroke-linecap:round; stroke-linejoin:round; stroke-width:4; stroke-opacity:1; fill:none" points="1638.76,2093.22 2081.02,2226.11 "/>
<polyline clip-path="url(#clip612)" style="stroke:#000000; stroke-linecap:round; stroke-linejoin:round; stroke-width:4; stroke-opacity:1; fill:none" points="2032.19,2180.11 2081.02,2226.11 2014.92,2237.57 "/>
<polyline clip-path="url(#clip612)" style="stroke:#000000; stroke-linecap:round; stroke-linejoin:round; stroke-width:4; stroke-opacity:1; fill:none" points="2081.02,2226.11 1638.76,2093.22 "/>
<polyline clip-path="url(#clip612)" style="stroke:#000000; stroke-linecap:round; stroke-linejoin:round; stroke-width:4; stroke-opacity:1; fill:none" points="1638.76,2093.22 2159.39,3368.29 "/>
<polyline clip-path="url(#clip612)" style="stroke:#000000; stroke-linecap:round; stroke-linejoin:round; stroke-width:4; stroke-opacity:1; fill:none" points="2164.48,3301.4 2159.39,3368.29 2108.94,3324.08 "/>
<polyline clip-path="url(#clip612)" style="stroke:#000000; stroke-linecap:round; stroke-linejoin:round; stroke-width:4; stroke-opacity:1; fill:none" points="2159.39,3368.29 1638.76,2093.22 "/>
<polyline clip-path="url(#clip612)" style="stroke:#000000; stroke-linecap:round; stroke-linejoin:round; stroke-width:4; stroke-opacity:1; fill:none" points="1638.76,2093.22 1968.69,1355.63 "/>
<polyline clip-path="url(#clip612)" style="stroke:#000000; stroke-linecap:round; stroke-linejoin:round; stroke-width:4; stroke-opacity:1; fill:none" points="1916.81,1398.15 1968.69,1355.63 1971.58,1422.65 "/>
<polyline clip-path="url(#clip612)" style="stroke:#000000; stroke-linecap:round; stroke-linejoin:round; stroke-width:4; stroke-opacity:1; fill:none" points="1968.69,1355.63 1638.76,2093.22 "/>
<polyline clip-path="url(#clip612)" style="stroke:#000000; stroke-linecap:round; stroke-linejoin:round; stroke-width:4; stroke-opacity:1; fill:none" points="1638.76,2093.22 1632.58,3123.51 "/>
<polyline clip-path="url(#clip612)" style="stroke:#000000; stroke-linecap:round; stroke-linejoin:round; stroke-width:4; stroke-opacity:1; fill:none" points="1662.94,3063.69 1632.58,3123.51 1602.94,3063.33 "/>
<polyline clip-path="url(#clip612)" style="stroke:#000000; stroke-linecap:round; stroke-linejoin:round; stroke-width:4; stroke-opacity:1; fill:none" points="1632.58,3123.51 1638.76,2093.22 "/>
<polyline clip-path="url(#clip612)" style="stroke:#000000; stroke-linecap:round; stroke-linejoin:round; stroke-width:4; stroke-opacity:1; fill:none" points="1638.76,2093.22 2536.12,2602.06 "/>
<polyline clip-path="url(#clip612)" style="stroke:#000000; stroke-linecap:round; stroke-linejoin:round; stroke-width:4; stroke-opacity:1; fill:none" points="2498.73,2546.36 2536.12,2602.06 2469.13,2598.56 "/>
<polyline clip-path="url(#clip612)" style="stroke:#000000; stroke-linecap:round; stroke-linejoin:round; stroke-width:4; stroke-opacity:1; fill:none" points="2536.12,2602.06 1638.76,2093.22 "/>
<polyline clip-path="url(#clip612)" style="stroke:#000000; stroke-linecap:round; stroke-linejoin:round; stroke-width:4; stroke-opacity:1; fill:none" points="1638.76,2093.22 1001.59,3053.54 "/>
<polyline clip-path="url(#clip612)" style="stroke:#000000; stroke-linecap:round; stroke-linejoin:round; stroke-width:4; stroke-opacity:1; fill:none" points="1059.76,3020.13 1001.59,3053.54 1009.76,2986.96 "/>
<polyline clip-path="url(#clip612)" style="stroke:#000000; stroke-linecap:round; stroke-linejoin:round; stroke-width:4; stroke-opacity:1; fill:none" points="1001.59,3053.54 1638.76,2093.22 "/>
<polyline clip-path="url(#clip612)" style="stroke:#000000; stroke-linecap:round; stroke-linejoin:round; stroke-width:4; stroke-opacity:1; fill:none" points="1638.76,2093.22 749.439,2381.34 "/>
<polyline clip-path="url(#clip612)" style="stroke:#000000; stroke-linecap:round; stroke-linejoin:round; stroke-width:4; stroke-opacity:1; fill:none" points="815.764,2391.39 749.439,2381.34 797.271,2334.31 "/>
<polyline clip-path="url(#clip612)" style="stroke:#000000; stroke-linecap:round; stroke-linejoin:round; stroke-width:4; stroke-opacity:1; fill:none" points="749.439,2381.34 1638.76,2093.22 "/>
<polyline clip-path="url(#clip612)" style="stroke:#000000; stroke-linecap:round; stroke-linejoin:round; stroke-width:4; stroke-opacity:1; fill:none" points="1638.76,2093.22 2618.64,1492.54 "/>
<polyline clip-path="url(#clip612)" style="stroke:#000000; stroke-linecap:round; stroke-linejoin:round; stroke-width:4; stroke-opacity:1; fill:none" points="2551.81,1498.32 2618.64,1492.54 2583.17,1549.47 "/>
<polyline clip-path="url(#clip612)" style="stroke:#000000; stroke-linecap:round; stroke-linejoin:round; stroke-width:4; stroke-opacity:1; fill:none" points="2618.64,1492.54 1638.76,2093.22 "/>
<polyline clip-path="url(#clip612)" style="stroke:#000000; stroke-linecap:round; stroke-linejoin:round; stroke-width:4; stroke-opacity:1; fill:none" points="1132.45,1764.95 1438.33,631.708 "/>
<polyline clip-path="url(#clip612)" style="stroke:#000000; stroke-linecap:round; stroke-linejoin:round; stroke-width:4; stroke-opacity:1; fill:none" points="1393.73,681.817 1438.33,631.708 1451.66,697.452 "/>
<polyline clip-path="url(#clip612)" style="stroke:#000000; stroke-linecap:round; stroke-linejoin:round; stroke-width:4; stroke-opacity:1; fill:none" points="1438.33,631.708 1132.45,1764.95 "/>
<polyline clip-path="url(#clip612)" style="stroke:#000000; stroke-linecap:round; stroke-linejoin:round; stroke-width:4; stroke-opacity:1; fill:none" points="1132.45,1764.95 900.297,962.395 "/>
<polyline clip-path="url(#clip612)" style="stroke:#000000; stroke-linecap:round; stroke-linejoin:round; stroke-width:4; stroke-opacity:1; fill:none" points="888.151,1028.37 900.297,962.395 945.788,1011.7 "/>
<polyline clip-path="url(#clip612)" style="stroke:#000000; stroke-linecap:round; stroke-linejoin:round; stroke-width:4; stroke-opacity:1; fill:none" points="900.297,962.395 1132.45,1764.95 "/>
<polyline clip-path="url(#clip612)" style="stroke:#000000; stroke-linecap:round; stroke-linejoin:round; stroke-width:4; stroke-opacity:1; fill:none" points="1132.45,1764.95 2002.46,2173.04 "/>
<polyline clip-path="url(#clip612)" style="stroke:#000000; stroke-linecap:round; stroke-linejoin:round; stroke-width:4; stroke-opacity:1; fill:none" points="1960.88,2120.4 2002.46,2173.04 1935.4,2174.72 "/>
<polyline clip-path="url(#clip612)" style="stroke:#000000; stroke-linecap:round; stroke-linejoin:round; stroke-width:4; stroke-opacity:1; fill:none" points="2002.46,2173.04 1132.45,1764.95 "/>
<polyline clip-path="url(#clip612)" style="stroke:#000000; stroke-linecap:round; stroke-linejoin:round; stroke-width:4; stroke-opacity:1; fill:none" points="1132.45,1764.95 981.975,3053.54 "/>
<polyline clip-path="url(#clip612)" style="stroke:#000000; stroke-linecap:round; stroke-linejoin:round; stroke-width:4; stroke-opacity:1; fill:none" points="1018.73,2997.42 981.975,3053.54 959.137,2990.46 "/>
<polyline clip-path="url(#clip612)" style="stroke:#000000; stroke-linecap:round; stroke-linejoin:round; stroke-width:4; stroke-opacity:1; fill:none" points="981.975,3053.54 1132.45,1764.95 "/>
<polyline clip-path="url(#clip612)" style="stroke:#000000; stroke-linecap:round; stroke-linejoin:round; stroke-width:4; stroke-opacity:1; fill:none" points="1439.13,605.174 1058.35,914.503 "/>
<polyline clip-path="url(#clip612)" style="stroke:#000000; stroke-linecap:round; stroke-linejoin:round; stroke-width:4; stroke-opacity:1; fill:none" points="1123.84,899.956 1058.35,914.503 1086.01,853.386 "/>
<polyline clip-path="url(#clip612)" style="stroke:#000000; stroke-linecap:round; stroke-linejoin:round; stroke-width:4; stroke-opacity:1; fill:none" points="1058.35,914.503 1439.13,605.174 "/>
<polyline clip-path="url(#clip612)" style="stroke:#000000; stroke-linecap:round; stroke-linejoin:round; stroke-width:4; stroke-opacity:1; fill:none" points="2174.64,2199.57 2170.82,3368.29 "/>
<polyline clip-path="url(#clip612)" style="stroke:#000000; stroke-linecap:round; stroke-linejoin:round; stroke-width:4; stroke-opacity:1; fill:none" points="2201.01,3308.39 2170.82,3368.29 2141.01,3308.19 "/>
<polyline clip-path="url(#clip612)" style="stroke:#000000; stroke-linecap:round; stroke-linejoin:round; stroke-width:4; stroke-opacity:1; fill:none" points="2170.82,3368.29 2174.64,2199.57 "/>
<polyline clip-path="url(#clip612)" style="stroke:#000000; stroke-linecap:round; stroke-linejoin:round; stroke-width:4; stroke-opacity:1; fill:none" points="2174.64,2199.57 1969.08,1355.63 "/>
<polyline clip-path="url(#clip612)" style="stroke:#000000; stroke-linecap:round; stroke-linejoin:round; stroke-width:4; stroke-opacity:1; fill:none" points="1954.13,1421.03 1969.08,1355.63 2012.42,1406.83 "/>
<polyline clip-path="url(#clip612)" style="stroke:#000000; stroke-linecap:round; stroke-linejoin:round; stroke-width:4; stroke-opacity:1; fill:none" points="1969.08,1355.63 2174.64,2199.57 "/>
<polyline clip-path="url(#clip612)" style="stroke:#000000; stroke-linecap:round; stroke-linejoin:round; stroke-width:4; stroke-opacity:1; fill:none" points="2174.64,2199.57 2562.44,2602.06 "/>
<polyline clip-path="url(#clip612)" style="stroke:#000000; stroke-linecap:round; stroke-linejoin:round; stroke-width:4; stroke-opacity:1; fill:none" points="2542.41,2538.03 2562.44,2602.06 2499.2,2579.66 "/>
<polyline clip-path="url(#clip612)" style="stroke:#000000; stroke-linecap:round; stroke-linejoin:round; stroke-width:4; stroke-opacity:1; fill:none" points="2562.44,2602.06 2174.64,2199.57 "/>
<polyline clip-path="url(#clip612)" style="stroke:#000000; stroke-linecap:round; stroke-linejoin:round; stroke-width:4; stroke-opacity:1; fill:none" points="2174.64,2199.57 2637.95,1492.54 "/>
<polyline clip-path="url(#clip612)" style="stroke:#000000; stroke-linecap:round; stroke-linejoin:round; stroke-width:4; stroke-opacity:1; fill:none" points="2579.97,1526.28 2637.95,1492.54 2630.15,1559.16 "/>
<polyline clip-path="url(#clip612)" style="stroke:#000000; stroke-linecap:round; stroke-linejoin:round; stroke-width:4; stroke-opacity:1; fill:none" points="2637.95,1492.54 2174.64,2199.57 "/>
<polyline clip-path="url(#clip612)" style="stroke:#000000; stroke-linecap:round; stroke-linejoin:round; stroke-width:4; stroke-opacity:1; fill:none" points="2177.07,3394.83 1662.05,3176.58 "/>
<polyline clip-path="url(#clip612)" style="stroke:#000000; stroke-linecap:round; stroke-linejoin:round; stroke-width:4; stroke-opacity:1; fill:none" points="1705.59,3227.61 1662.05,3176.58 1729,3172.37 "/>
<polyline clip-path="url(#clip612)" style="stroke:#000000; stroke-linecap:round; stroke-linejoin:round; stroke-width:4; stroke-opacity:1; fill:none" points="1662.05,3176.58 2177.07,3394.83 "/>
<polyline clip-path="url(#clip612)" style="stroke:#000000; stroke-linecap:round; stroke-linejoin:round; stroke-width:4; stroke-opacity:1; fill:none" points="2177.07,3394.83 2633.46,2655.12 "/>
<polyline clip-path="url(#clip612)" style="stroke:#000000; stroke-linecap:round; stroke-linejoin:round; stroke-width:4; stroke-opacity:1; fill:none" points="2576.42,2690.43 2633.46,2655.12 2627.48,2721.94 "/>
<polyline clip-path="url(#clip612)" style="stroke:#000000; stroke-linecap:round; stroke-linejoin:round; stroke-width:4; stroke-opacity:1; fill:none" points="2633.46,2655.12 2177.07,3394.83 "/>
<polyline clip-path="url(#clip612)" style="stroke:#000000; stroke-linecap:round; stroke-linejoin:round; stroke-width:4; stroke-opacity:1; fill:none" points="1971.01,1329.1 1648.68,3123.51 "/>
<polyline clip-path="url(#clip612)" style="stroke:#000000; stroke-linecap:round; stroke-linejoin:round; stroke-width:4; stroke-opacity:1; fill:none" points="1688.81,3069.76 1648.68,3123.51 1629.76,3059.15 "/>
<polyline clip-path="url(#clip612)" style="stroke:#000000; stroke-linecap:round; stroke-linejoin:round; stroke-width:4; stroke-opacity:1; fill:none" points="1648.68,3123.51 1971.01,1329.1 "/>
<polyline clip-path="url(#clip612)" style="stroke:#000000; stroke-linecap:round; stroke-linejoin:round; stroke-width:4; stroke-opacity:1; fill:none" points="2639.99,2628.59 2651.26,1492.54 "/>
<polyline clip-path="url(#clip612)" style="stroke:#000000; stroke-linecap:round; stroke-linejoin:round; stroke-width:4; stroke-opacity:1; fill:none" points="2620.67,1552.24 2651.26,1492.54 2680.66,1552.83 "/>
<polyline clip-path="url(#clip612)" style="stroke:#000000; stroke-linecap:round; stroke-linejoin:round; stroke-width:4; stroke-opacity:1; fill:none" points="2651.26,1492.54 2639.99,2628.59 "/>
<polyline clip-path="url(#clip612)" style="stroke:#000000; stroke-linecap:round; stroke-linejoin:round; stroke-width:4; stroke-opacity:1; fill:none" points="2645.01,1466 3377.48,836.526 "/>
<polyline clip-path="url(#clip612)" style="stroke:#000000; stroke-linecap:round; stroke-linejoin:round; stroke-width:4; stroke-opacity:1; fill:none" points="3312.42,852.88 3377.48,836.526 3351.53,898.385 "/>
<polyline clip-path="url(#clip612)" style="stroke:#000000; stroke-linecap:round; stroke-linejoin:round; stroke-width:4; stroke-opacity:1; fill:none" points="3377.48,836.526 2645.01,1466 "/>
<path clip-path="url(#clip612)" d="M1548.62 2119.75 L1728.91 2119.75 L1728.91 2066.68 L1548.62 2066.68 L1548.62 2119.75 L1548.62 2119.75  Z" fill="#009af9" fill-rule="evenodd" fill-opacity="1"/>
<polyline clip-path="url(#clip612)" style="stroke:#000000; stroke-linecap:round; stroke-linejoin:round; stroke-width:4; stroke-opacity:1; fill:none" points="1548.62,2119.75 1728.91,2119.75 1728.91,2066.68 1548.62,2066.68 1548.62,2119.75 "/>
<path clip-path="url(#clip612)" d="M950.855 1791.48 L1314.05 1791.48 L1314.05 1738.42 L950.855 1738.42 L950.855 1791.48 L950.855 1791.48  Z" fill="#009af9" fill-rule="evenodd" fill-opacity="1"/>
<polyline clip-path="url(#clip612)" style="stroke:#000000; stroke-linecap:round; stroke-linejoin:round; stroke-width:4; stroke-opacity:1; fill:none" points="950.855,1791.48 1314.05,1791.48 1314.05,1738.42 950.855,1738.42 950.855,1791.48 "/>
<path clip-path="url(#clip612)" d="M1222.04 631.708 L1656.22 631.708 L1656.22 578.641 L1222.04 578.641 L1222.04 631.708 L1222.04 631.708  Z" fill="#009af9" fill-rule="evenodd" fill-opacity="1"/>
<polyline clip-path="url(#clip612)" style="stroke:#000000; stroke-linecap:round; stroke-linejoin:round; stroke-width:4; stroke-opacity:1; fill:none" points="1222.04,631.708 1656.22,631.708 1656.22,578.641 1222.04,578.641 1222.04,631.708 "/>
<path clip-path="url(#clip612)" d="M744.451 962.395 L1058.35 962.395 L1058.35 909.328 L744.451 909.328 L744.451 962.395 L744.451 962.395  Z" fill="#009af9" fill-rule="evenodd" fill-opacity="1"/>
<polyline clip-path="url(#clip612)" style="stroke:#000000; stroke-linecap:round; stroke-linejoin:round; stroke-width:4; stroke-opacity:1; fill:none" points="744.451,962.395 1058.35,962.395 1058.35,909.328 744.451,909.328 744.451,962.395 "/>
<path clip-path="url(#clip612)" d="M1981.03 2226.11 L2368.24 2226.11 L2368.24 2173.04 L1981.03 2173.04 L1981.03 2226.11 L1981.03 2226.11  Z" fill="#009af9" fill-rule="evenodd" fill-opacity="1"/>
<polyline clip-path="url(#clip612)" style="stroke:#000000; stroke-linecap:round; stroke-linejoin:round; stroke-width:4; stroke-opacity:1; fill:none" points="1981.03,2226.11 2368.24,2226.11 2368.24,2173.04 1981.03,2173.04 1981.03,2226.11 "/>
<path clip-path="url(#clip612)" d="M2032.8 3421.36 L2321.33 3421.36 L2321.33 3368.29 L2032.8 3368.29 L2032.8 3421.36 L2032.8 3421.36  Z" fill="#009af9" fill-rule="evenodd" fill-opacity="1"/>
<polyline clip-path="url(#clip612)" style="stroke:#000000; stroke-linecap:round; stroke-linejoin:round; stroke-width:4; stroke-opacity:1; fill:none" points="2032.8,3421.36 2321.33,3421.36 2321.33,3368.29 2032.8,3368.29 2032.8,3421.36 "/>
<path clip-path="url(#clip612)" d="M1731.06 1355.63 L2210.96 1355.63 L2210.96 1302.57 L1731.06 1302.57 L1731.06 1355.63 L1731.06 1355.63  Z" fill="#009af9" fill-rule="evenodd" fill-opacity="1"/>
<polyline clip-path="url(#clip612)" style="stroke:#000000; stroke-linecap:round; stroke-linejoin:round; stroke-width:4; stroke-opacity:1; fill:none" points="1731.06,1355.63 2210.96,1355.63 2210.96,1302.57 1731.06,1302.57 1731.06,1355.63 "/>
<path clip-path="url(#clip612)" d="M1388.42 3176.58 L1890.78 3176.58 L1890.78 3123.51 L1388.42 3123.51 L1388.42 3176.58 L1388.42 3176.58  Z" fill="#009af9" fill-rule="evenodd" fill-opacity="1"/>
<polyline clip-path="url(#clip612)" style="stroke:#000000; stroke-linecap:round; stroke-linejoin:round; stroke-width:4; stroke-opacity:1; fill:none" points="1388.42,3176.58 1890.78,3176.58 1890.78,3123.51 1388.42,3123.51 1388.42,3176.58 "/>
<path clip-path="url(#clip612)" d="M2522 2655.12 L2757.98 2655.12 L2757.98 2602.06 L2522 2602.06 L2522 2655.12 L2522 2655.12  Z" fill="#009af9" fill-rule="evenodd" fill-opacity="1"/>
<polyline clip-path="url(#clip612)" style="stroke:#000000; stroke-linecap:round; stroke-linejoin:round; stroke-width:4; stroke-opacity:1; fill:none" points="2522,2655.12 2757.98,2655.12 2757.98,2602.06 2522,2602.06 2522,2655.12 "/>
<path clip-path="url(#clip612)" d="M929.628 3106.6 L1016.25 3106.6 L1016.25 3053.54 L929.628 3053.54 L929.628 3106.6 L929.628 3106.6  Z" fill="#009af9" fill-rule="evenodd" fill-opacity="1"/>
<polyline clip-path="url(#clip612)" style="stroke:#000000; stroke-linecap:round; stroke-linejoin:round; stroke-width:4; stroke-opacity:1; fill:none" points="929.628,3106.6 1016.25,3106.6 1016.25,3053.54 929.628,3053.54 929.628,3106.6 "/>
<path clip-path="url(#clip612)" d="M460.91 2410.81 L749.439 2410.81 L749.439 2357.74 L460.91 2357.74 L460.91 2410.81 L460.91 2410.81  Z" fill="#009af9" fill-rule="evenodd" fill-opacity="1"/>
<polyline clip-path="url(#clip612)" style="stroke:#000000; stroke-linecap:round; stroke-linejoin:round; stroke-width:4; stroke-opacity:1; fill:none" points="460.91,2410.81 749.439,2410.81 749.439,2357.74 460.91,2357.74 460.91,2410.81 "/>
<path clip-path="url(#clip612)" d="M2527.02 1492.54 L2763 1492.54 L2763 1439.47 L2527.02 1439.47 L2527.02 1492.54 L2527.02 1492.54  Z" fill="#009af9" fill-rule="evenodd" fill-opacity="1"/>
<polyline clip-path="url(#clip612)" style="stroke:#000000; stroke-linecap:round; stroke-linejoin:round; stroke-width:4; stroke-opacity:1; fill:none" points="2527.02,1492.54 2763,1492.54 2763,1439.47 2527.02,1439.47 2527.02,1492.54 "/>
<path clip-path="url(#clip612)" d="M3276.84 836.526 L3512.82 836.526 L3512.82 783.459 L3276.84 783.459 L3276.84 836.526 L3276.84 836.526  Z" fill="#009af9" fill-rule="evenodd" fill-opacity="1"/>
<polyline clip-path="url(#clip612)" style="stroke:#000000; stroke-linecap:round; stroke-linejoin:round; stroke-width:4; stroke-opacity:1; fill:none" points="3276.84,836.526 3512.82,836.526 3512.82,783.459 3276.84,783.459 3276.84,836.526 "/>
<circle clip-path="url(#clip612)" style="fill:#009af9; stroke:none; fill-opacity:0" cx="1638.76" cy="2093.22" r="2"/>
<circle clip-path="url(#clip612)" style="fill:#009af9; stroke:none; fill-opacity:0" cx="1132.45" cy="1764.95" r="2"/>
<circle clip-path="url(#clip612)" style="fill:#009af9; stroke:none; fill-opacity:0" cx="1439.13" cy="605.174" r="2"/>
<circle clip-path="url(#clip612)" style="fill:#009af9; stroke:none; fill-opacity:0" cx="901.403" cy="935.861" r="2"/>
<circle clip-path="url(#clip612)" style="fill:#009af9; stroke:none; fill-opacity:0" cx="2174.64" cy="2199.57" r="2"/>
<circle clip-path="url(#clip612)" style="fill:#009af9; stroke:none; fill-opacity:0" cx="2177.07" cy="3394.83" r="2"/>
<circle clip-path="url(#clip612)" style="fill:#009af9; stroke:none; fill-opacity:0" cx="1971.01" cy="1329.1" r="2"/>
<circle clip-path="url(#clip612)" style="fill:#009af9; stroke:none; fill-opacity:0" cx="1639.6" cy="3150.05" r="2"/>
<circle clip-path="url(#clip612)" style="fill:#009af9; stroke:none; fill-opacity:0" cx="2639.99" cy="2628.59" r="2"/>
<circle clip-path="url(#clip612)" style="fill:#009af9; stroke:none; fill-opacity:0" cx="972.938" cy="3080.07" r="2"/>
<circle clip-path="url(#clip612)" style="fill:#009af9; stroke:none; fill-opacity:0" cx="605.174" cy="2384.27" r="2"/>
<circle clip-path="url(#clip612)" style="fill:#009af9; stroke:none; fill-opacity:0" cx="2645.01" cy="1466" r="2"/>
<circle clip-path="url(#clip612)" style="fill:#009af9; stroke:none; fill-opacity:0" cx="3394.83" cy="809.992" r="2"/>
<path clip-path="url(#clip610)" d="M1606.78 2086.52 L1606.78 2090.01 Q1605.2 2089.14 1603.6 2088.71 Q1602.02 2088.26 1600.4 2088.26 Q1596.78 2088.26 1594.77 2090.57 Q1592.77 2092.86 1592.77 2097.01 Q1592.77 2101.17 1594.77 2103.48 Q1596.78 2105.76 1600.4 2105.76 Q1602.02 2105.76 1603.6 2105.34 Q1605.2 2104.89 1606.78 2104.02 L1606.78 2107.47 Q1605.22 2108.2 1603.54 2108.56 Q1601.88 2108.92 1600 2108.92 Q1594.87 2108.92 1591.85 2105.7 Q1588.84 2102.48 1588.84 2097.01 Q1588.84 2091.47 1591.87 2088.29 Q1594.93 2085.11 1600.24 2085.11 Q1601.96 2085.11 1603.6 2085.47 Q1605.24 2085.81 1606.78 2086.52 Z" fill="#000000" fill-rule="nonzero" fill-opacity="1" /><path clip-path="url(#clip610)" d="M1622.05 2088.26 Q1619.06 2088.26 1617.31 2090.61 Q1615.57 2092.94 1615.57 2097.01 Q1615.57 2101.09 1617.29 2103.44 Q1619.04 2105.76 1622.05 2105.76 Q1625.03 2105.76 1626.77 2103.42 Q1628.51 2101.07 1628.51 2097.01 Q1628.51 2092.98 1626.77 2090.63 Q1625.03 2088.26 1622.05 2088.26 M1622.05 2085.11 Q1626.91 2085.11 1629.69 2088.26 Q1632.46 2091.42 1632.46 2097.01 Q1632.46 2102.58 1629.69 2105.76 Q1626.91 2108.92 1622.05 2108.92 Q1617.17 2108.92 1614.4 2105.76 Q1611.64 2102.58 1611.64 2097.01 Q1611.64 2091.42 1614.4 2088.26 Q1617.17 2085.11 1622.05 2085.11 Z" fill="#000000" fill-rule="nonzero" fill-opacity="1" /><path clip-path="url(#clip610)" d="M1638.64 2076.82 L1642.37 2076.82 L1642.37 2108.34 L1638.64 2108.34 L1638.64 2076.82 Z" fill="#000000" fill-rule="nonzero" fill-opacity="1" /><path clip-path="url(#clip610)" d="M1658.96 2088.26 Q1655.96 2088.26 1654.22 2090.61 Q1652.48 2092.94 1652.48 2097.01 Q1652.48 2101.09 1654.2 2103.44 Q1655.94 2105.76 1658.96 2105.76 Q1661.93 2105.76 1663.68 2103.42 Q1665.42 2101.07 1665.42 2097.01 Q1665.42 2092.98 1663.68 2090.63 Q1661.93 2088.26 1658.96 2088.26 M1658.96 2085.11 Q1663.82 2085.11 1666.59 2088.26 Q1669.37 2091.42 1669.37 2097.01 Q1669.37 2102.58 1666.59 2105.76 Q1663.82 2108.92 1658.96 2108.92 Q1654.08 2108.92 1651.3 2105.76 Q1648.55 2102.58 1648.55 2097.01 Q1648.55 2091.42 1651.3 2088.26 Q1654.08 2085.11 1658.96 2085.11 Z" fill="#000000" fill-rule="nonzero" fill-opacity="1" /><path clip-path="url(#clip610)" d="M1688.69 2089.14 Q1688.06 2088.77 1687.31 2088.61 Q1686.58 2088.43 1685.69 2088.43 Q1682.53 2088.43 1680.83 2090.49 Q1679.15 2092.54 1679.15 2096.39 L1679.15 2108.34 L1675.4 2108.34 L1675.4 2085.65 L1679.15 2085.65 L1679.15 2089.18 Q1680.33 2087.11 1682.21 2086.12 Q1684.09 2085.11 1686.79 2085.11 Q1687.17 2085.11 1687.64 2085.17 Q1688.1 2085.21 1688.67 2085.31 L1688.69 2089.14 Z" fill="#000000" fill-rule="nonzero" fill-opacity="1" /><path clip-path="url(#clip610)" d="M1028.15 1748.55 L1028.15 1751.65 L1024.59 1751.65 Q1022.58 1751.65 1021.79 1752.46 Q1021.02 1753.27 1021.02 1755.38 L1021.02 1757.38 L1027.16 1757.38 L1027.16 1760.28 L1021.02 1760.28 L1021.02 1780.07 L1017.28 1780.07 L1017.28 1760.28 L1013.71 1760.28 L1013.71 1757.38 L1017.28 1757.38 L1017.28 1755.8 Q1017.28 1752.02 1019.04 1750.3 Q1020.8 1748.55 1024.63 1748.55 L1028.15 1748.55 Z" fill="#000000" fill-rule="nonzero" fill-opacity="1" /><path clip-path="url(#clip610)" d="M1031.27 1757.38 L1035 1757.38 L1035 1780.07 L1031.27 1780.07 L1031.27 1757.38 M1031.27 1748.55 L1035 1748.55 L1035 1753.27 L1031.27 1753.27 L1031.27 1748.55 Z" fill="#000000" fill-rule="nonzero" fill-opacity="1" /><path clip-path="url(#clip610)" d="M1061.65 1757.38 L1053.45 1768.42 L1062.08 1780.07 L1057.68 1780.07 L1051.08 1771.16 L1044.48 1780.07 L1040.08 1780.07 L1048.89 1768.2 L1040.83 1757.38 L1045.23 1757.38 L1051.24 1765.47 L1057.26 1757.38 L1061.65 1757.38 Z" fill="#000000" fill-rule="nonzero" fill-opacity="1" /><path clip-path="url(#clip610)" d="M1085.47 1767.8 L1085.47 1769.62 L1068.34 1769.62 Q1068.58 1773.47 1070.65 1775.49 Q1072.73 1777.5 1076.44 1777.5 Q1078.59 1777.5 1080.59 1776.97 Q1082.62 1776.44 1084.6 1775.39 L1084.6 1778.92 Q1082.6 1779.77 1080.49 1780.21 Q1078.38 1780.66 1076.22 1780.66 Q1070.79 1780.66 1067.61 1777.5 Q1064.45 1774.34 1064.45 1768.95 Q1064.45 1763.38 1067.45 1760.12 Q1070.46 1756.84 1075.57 1756.84 Q1080.15 1756.84 1082.8 1759.79 Q1085.47 1762.73 1085.47 1767.8 M1081.75 1766.7 Q1081.71 1763.64 1080.02 1761.82 Q1078.36 1760 1075.61 1760 Q1072.49 1760 1070.61 1761.76 Q1068.74 1763.52 1068.46 1766.72 L1081.75 1766.7 Z" fill="#000000" fill-rule="nonzero" fill-opacity="1" /><path clip-path="url(#clip610)" d="M1106.52 1760.83 L1106.52 1748.55 L1110.24 1748.55 L1110.24 1780.07 L1106.52 1780.07 L1106.52 1776.67 Q1105.34 1778.69 1103.54 1779.68 Q1101.76 1780.66 1099.25 1780.66 Q1095.13 1780.66 1092.54 1777.38 Q1089.97 1774.09 1089.97 1768.75 Q1089.97 1763.4 1092.54 1760.12 Q1095.13 1756.84 1099.25 1756.84 Q1101.76 1756.84 1103.54 1757.83 Q1105.34 1758.8 1106.52 1760.83 M1093.82 1768.75 Q1093.82 1772.86 1095.5 1775.21 Q1097.2 1777.54 1100.16 1777.54 Q1103.11 1777.54 1104.82 1775.21 Q1106.52 1772.86 1106.52 1768.75 Q1106.52 1764.64 1104.82 1762.31 Q1103.11 1759.96 1100.16 1759.96 Q1097.2 1759.96 1095.5 1762.31 Q1093.82 1764.64 1093.82 1768.75 Z" fill="#000000" fill-rule="nonzero" fill-opacity="1" /><path clip-path="url(#clip610)" d="M1128.23 1768.67 Q1123.71 1768.67 1121.97 1769.7 Q1120.23 1770.73 1120.23 1773.22 Q1120.23 1775.21 1121.53 1776.38 Q1122.84 1777.54 1125.09 1777.54 Q1128.19 1777.54 1130.05 1775.35 Q1131.94 1773.14 1131.94 1769.5 L1131.94 1768.67 L1128.23 1768.67 M1135.66 1767.13 L1135.66 1780.07 L1131.94 1780.07 L1131.94 1776.63 Q1130.66 1778.69 1128.76 1779.68 Q1126.85 1780.66 1124.1 1780.66 Q1120.61 1780.66 1118.55 1778.71 Q1116.5 1776.75 1116.5 1773.47 Q1116.5 1769.64 1119.05 1767.69 Q1121.63 1765.75 1126.71 1765.75 L1131.94 1765.75 L1131.94 1765.39 Q1131.94 1762.81 1130.23 1761.42 Q1128.55 1760 1125.5 1760 Q1123.55 1760 1121.71 1760.46 Q1119.86 1760.93 1118.16 1761.86 L1118.16 1758.42 Q1120.21 1757.63 1122.13 1757.24 Q1124.06 1756.84 1125.88 1756.84 Q1130.8 1756.84 1133.23 1759.39 Q1135.66 1761.94 1135.66 1767.13 Z" fill="#000000" fill-rule="nonzero" fill-opacity="1" /><path clip-path="url(#clip610)" d="M1159.66 1758.26 L1159.66 1761.74 Q1158.08 1760.87 1156.48 1760.44 Q1154.9 1760 1153.28 1760 Q1149.66 1760 1147.65 1762.31 Q1145.65 1764.6 1145.65 1768.75 Q1145.65 1772.9 1147.65 1775.21 Q1149.66 1777.5 1153.28 1777.5 Q1154.9 1777.5 1156.48 1777.07 Q1158.08 1776.63 1159.66 1775.76 L1159.66 1779.2 Q1158.11 1779.93 1156.42 1780.29 Q1154.76 1780.66 1152.88 1780.66 Q1147.76 1780.66 1144.74 1777.44 Q1141.72 1774.22 1141.72 1768.75 Q1141.72 1763.2 1144.76 1760.02 Q1147.82 1756.84 1153.12 1756.84 Q1154.84 1756.84 1156.48 1757.2 Q1158.13 1757.55 1159.66 1758.26 Z" fill="#000000" fill-rule="nonzero" fill-opacity="1" /><path clip-path="url(#clip610)" d="M1166.15 1757.38 L1169.87 1757.38 L1169.87 1780.07 L1166.15 1780.07 L1166.15 1757.38 M1166.15 1748.55 L1169.87 1748.55 L1169.87 1753.27 L1166.15 1753.27 L1166.15 1748.55 Z" fill="#000000" fill-rule="nonzero" fill-opacity="1" /><path clip-path="url(#clip610)" d="M1192.6 1760.83 L1192.6 1748.55 L1196.33 1748.55 L1196.33 1780.07 L1192.6 1780.07 L1192.6 1776.67 Q1191.42 1778.69 1189.62 1779.68 Q1187.84 1780.66 1185.33 1780.66 Q1181.22 1780.66 1178.62 1777.38 Q1176.05 1774.09 1176.05 1768.75 Q1176.05 1763.4 1178.62 1760.12 Q1181.22 1756.84 1185.33 1756.84 Q1187.84 1756.84 1189.62 1757.83 Q1191.42 1758.8 1192.6 1760.83 M1179.9 1768.75 Q1179.9 1772.86 1181.58 1775.21 Q1183.28 1777.54 1186.24 1777.54 Q1189.2 1777.54 1190.9 1775.21 Q1192.6 1772.86 1192.6 1768.75 Q1192.6 1764.64 1190.9 1762.31 Q1189.2 1759.96 1186.24 1759.96 Q1183.28 1759.96 1181.58 1762.31 Q1179.9 1764.64 1179.9 1768.75 Z" fill="#000000" fill-rule="nonzero" fill-opacity="1" /><path clip-path="url(#clip610)" d="M1204 1757.38 L1207.73 1757.38 L1207.73 1780.07 L1204 1780.07 L1204 1757.38 M1204 1748.55 L1207.73 1748.55 L1207.73 1753.27 L1204 1753.27 L1204 1748.55 Z" fill="#000000" fill-rule="nonzero" fill-opacity="1" /><path clip-path="url(#clip610)" d="M1219.21 1750.94 L1219.21 1757.38 L1226.89 1757.38 L1226.89 1760.28 L1219.21 1760.28 L1219.21 1772.6 Q1219.21 1775.37 1219.96 1776.16 Q1220.73 1776.95 1223.06 1776.95 L1226.89 1776.95 L1226.89 1780.07 L1223.06 1780.07 Q1218.75 1780.07 1217.11 1778.47 Q1215.47 1776.85 1215.47 1772.6 L1215.47 1760.28 L1212.73 1760.28 L1212.73 1757.38 L1215.47 1757.38 L1215.47 1750.94 L1219.21 1750.94 Z" fill="#000000" fill-rule="nonzero" fill-opacity="1" /><path clip-path="url(#clip610)" d="M1241.23 1782.18 Q1239.65 1786.23 1238.15 1787.46 Q1236.65 1788.7 1234.14 1788.7 L1231.16 1788.7 L1231.16 1785.58 L1233.35 1785.58 Q1234.89 1785.58 1235.74 1784.85 Q1236.59 1784.12 1237.62 1781.41 L1238.29 1779.71 L1229.12 1757.38 L1233.07 1757.38 L1240.16 1775.13 L1247.25 1757.38 L1251.19 1757.38 L1241.23 1782.18 Z" fill="#000000" fill-rule="nonzero" fill-opacity="1" /><path clip-path="url(#clip610)" d="M1295.3 597.609 L1299.25 597.609 L1306.34 616.649 L1313.43 597.609 L1317.38 597.609 L1308.87 620.294 L1303.81 620.294 L1295.3 597.609 Z" fill="#000000" fill-rule="nonzero" fill-opacity="1" /><path clip-path="url(#clip610)" d="M1331.31 600.222 Q1328.32 600.222 1326.58 602.572 Q1324.83 604.901 1324.83 608.972 Q1324.83 613.043 1326.55 615.393 Q1328.3 617.722 1331.31 617.722 Q1334.29 617.722 1336.03 615.373 Q1337.78 613.023 1337.78 608.972 Q1337.78 604.941 1336.03 602.592 Q1334.29 600.222 1331.31 600.222 M1331.31 597.062 Q1336.18 597.062 1338.95 600.222 Q1341.73 603.382 1341.73 608.972 Q1341.73 614.542 1338.95 617.722 Q1336.18 620.882 1331.31 620.882 Q1326.43 620.882 1323.66 617.722 Q1320.9 614.542 1320.9 608.972 Q1320.9 603.382 1323.66 600.222 Q1326.43 597.062 1331.31 597.062 Z" fill="#000000" fill-rule="nonzero" fill-opacity="1" /><path clip-path="url(#clip610)" d="M1347.9 588.778 L1351.63 588.778 L1351.63 620.294 L1347.9 620.294 L1347.9 588.778 Z" fill="#000000" fill-rule="nonzero" fill-opacity="1" /><path clip-path="url(#clip610)" d="M1369.74 608.891 Q1365.22 608.891 1363.48 609.924 Q1361.74 610.957 1361.74 613.448 Q1361.74 615.433 1363.03 616.608 Q1364.35 617.763 1366.6 617.763 Q1369.7 617.763 1371.56 615.575 Q1373.44 613.367 1373.44 609.721 L1373.44 608.891 L1369.74 608.891 M1377.17 607.352 L1377.17 620.294 L1373.44 620.294 L1373.44 616.851 Q1372.17 618.917 1370.26 619.91 Q1368.36 620.882 1365.61 620.882 Q1362.12 620.882 1360.06 618.937 Q1358.01 616.973 1358.01 613.691 Q1358.01 609.863 1360.56 607.919 Q1363.13 605.974 1368.22 605.974 L1373.44 605.974 L1373.44 605.61 Q1373.44 603.038 1371.74 601.64 Q1370.06 600.222 1367 600.222 Q1365.06 600.222 1363.22 600.688 Q1361.37 601.154 1359.67 602.086 L1359.67 598.642 Q1361.72 597.852 1363.64 597.468 Q1365.56 597.062 1367.39 597.062 Q1372.31 597.062 1374.74 599.614 Q1377.17 602.167 1377.17 607.352 Z" fill="#000000" fill-rule="nonzero" fill-opacity="1" /><path clip-path="url(#clip610)" d="M1388.53 591.168 L1388.53 597.609 L1396.21 597.609 L1396.21 600.506 L1388.53 600.506 L1388.53 612.82 Q1388.53 615.595 1389.28 616.385 Q1390.05 617.175 1392.38 617.175 L1396.21 617.175 L1396.21 620.294 L1392.38 620.294 Q1388.07 620.294 1386.43 618.694 Q1384.79 617.074 1384.79 612.82 L1384.79 600.506 L1382.05 600.506 L1382.05 597.609 L1384.79 597.609 L1384.79 591.168 L1388.53 591.168 Z" fill="#000000" fill-rule="nonzero" fill-opacity="1" /><path clip-path="url(#clip610)" d="M1401.11 597.609 L1404.84 597.609 L1404.84 620.294 L1401.11 620.294 L1401.11 597.609 M1401.11 588.778 L1404.84 588.778 L1404.84 593.498 L1401.11 593.498 L1401.11 588.778 Z" fill="#000000" fill-rule="nonzero" fill-opacity="1" /><path clip-path="url(#clip610)" d="M1412.64 588.778 L1416.36 588.778 L1416.36 620.294 L1412.64 620.294 L1412.64 588.778 Z" fill="#000000" fill-rule="nonzero" fill-opacity="1" /><path clip-path="url(#clip610)" d="M1443.57 608.02 L1443.57 609.843 L1426.43 609.843 Q1426.67 613.691 1428.74 615.717 Q1430.83 617.722 1434.53 617.722 Q1436.68 617.722 1438.68 617.195 Q1440.71 616.669 1442.69 615.616 L1442.69 619.14 Q1440.69 619.991 1438.58 620.436 Q1436.48 620.882 1434.31 620.882 Q1428.88 620.882 1425.7 617.722 Q1422.54 614.562 1422.54 609.175 Q1422.54 603.605 1425.54 600.344 Q1428.56 597.062 1433.66 597.062 Q1438.24 597.062 1440.89 600.02 Q1443.57 602.956 1443.57 608.02 M1439.84 606.926 Q1439.8 603.868 1438.12 602.045 Q1436.46 600.222 1433.7 600.222 Q1430.58 600.222 1428.7 601.984 Q1426.83 603.746 1426.55 606.947 L1439.84 606.926 Z" fill="#000000" fill-rule="nonzero" fill-opacity="1" /><path clip-path="url(#clip610)" d="M1459.99 608.891 Q1455.47 608.891 1453.73 609.924 Q1451.99 610.957 1451.99 613.448 Q1451.99 615.433 1453.29 616.608 Q1454.6 617.763 1456.85 617.763 Q1459.95 617.763 1461.81 615.575 Q1463.7 613.367 1463.7 609.721 L1463.7 608.891 L1459.99 608.891 M1467.42 607.352 L1467.42 620.294 L1463.7 620.294 L1463.7 616.851 Q1462.42 618.917 1460.52 619.91 Q1458.61 620.882 1455.86 620.882 Q1452.38 620.882 1450.31 618.937 Q1448.26 616.973 1448.26 613.691 Q1448.26 609.863 1450.82 607.919 Q1453.39 605.974 1458.47 605.974 L1463.7 605.974 L1463.7 605.61 Q1463.7 603.038 1462 601.64 Q1460.32 600.222 1457.26 600.222 Q1455.31 600.222 1453.47 600.688 Q1451.63 601.154 1449.93 602.086 L1449.93 598.642 Q1451.97 597.852 1453.89 597.468 Q1455.82 597.062 1457.64 597.062 Q1462.56 597.062 1464.99 599.614 Q1467.42 602.167 1467.42 607.352 Z" fill="#000000" fill-rule="nonzero" fill-opacity="1" /><path clip-path="url(#clip610)" d="M1491.43 598.48 L1491.43 601.964 Q1489.85 601.093 1488.25 600.668 Q1486.67 600.222 1485.05 600.222 Q1481.42 600.222 1479.42 602.531 Q1477.41 604.82 1477.41 608.972 Q1477.41 613.124 1479.42 615.433 Q1481.42 617.722 1485.05 617.722 Q1486.67 617.722 1488.25 617.297 Q1489.85 616.851 1491.43 615.98 L1491.43 619.423 Q1489.87 620.153 1488.19 620.517 Q1486.52 620.882 1484.64 620.882 Q1479.52 620.882 1476.5 617.661 Q1473.48 614.441 1473.48 608.972 Q1473.48 603.422 1476.52 600.242 Q1479.58 597.062 1484.88 597.062 Q1486.61 597.062 1488.25 597.427 Q1489.89 597.771 1491.43 598.48 Z" fill="#000000" fill-rule="nonzero" fill-opacity="1" /><path clip-path="url(#clip610)" d="M1497.91 597.609 L1501.63 597.609 L1501.63 620.294 L1497.91 620.294 L1497.91 597.609 M1497.91 588.778 L1501.63 588.778 L1501.63 593.498 L1497.91 593.498 L1497.91 588.778 Z" fill="#000000" fill-rule="nonzero" fill-opacity="1" /><path clip-path="url(#clip610)" d="M1524.36 601.053 L1524.36 588.778 L1528.09 588.778 L1528.09 620.294 L1524.36 620.294 L1524.36 616.892 Q1523.19 618.917 1521.38 619.91 Q1519.6 620.882 1517.09 620.882 Q1512.98 620.882 1510.38 617.601 Q1507.81 614.319 1507.81 608.972 Q1507.81 603.625 1510.38 600.344 Q1512.98 597.062 1517.09 597.062 Q1519.6 597.062 1521.38 598.055 Q1523.19 599.027 1524.36 601.053 M1511.66 608.972 Q1511.66 613.084 1513.34 615.433 Q1515.04 617.763 1518 617.763 Q1520.96 617.763 1522.66 615.433 Q1524.36 613.084 1524.36 608.972 Q1524.36 604.86 1522.66 602.531 Q1520.96 600.182 1518 600.182 Q1515.04 600.182 1513.34 602.531 Q1511.66 604.86 1511.66 608.972 Z" fill="#000000" fill-rule="nonzero" fill-opacity="1" /><path clip-path="url(#clip610)" d="M1535.76 597.609 L1539.49 597.609 L1539.49 620.294 L1535.76 620.294 L1535.76 597.609 M1535.76 588.778 L1539.49 588.778 L1539.49 593.498 L1535.76 593.498 L1535.76 588.778 Z" fill="#000000" fill-rule="nonzero" fill-opacity="1" /><path clip-path="url(#clip610)" d="M1550.97 591.168 L1550.97 597.609 L1558.65 597.609 L1558.65 600.506 L1550.97 600.506 L1550.97 612.82 Q1550.97 615.595 1551.72 616.385 Q1552.49 617.175 1554.82 617.175 L1558.65 617.175 L1558.65 620.294 L1554.82 620.294 Q1550.51 620.294 1548.87 618.694 Q1547.23 617.074 1547.23 612.82 L1547.23 600.506 L1544.49 600.506 L1544.49 597.609 L1547.23 597.609 L1547.23 591.168 L1550.97 591.168 Z" fill="#000000" fill-rule="nonzero" fill-opacity="1" /><path clip-path="url(#clip610)" d="M1572.99 622.401 Q1571.41 626.452 1569.91 627.687 Q1568.41 628.923 1565.9 628.923 L1562.93 628.923 L1562.93 625.804 L1565.11 625.804 Q1566.65 625.804 1567.5 625.074 Q1568.35 624.345 1569.39 621.631 L1570.05 619.93 L1560.88 597.609 L1564.83 597.609 L1571.92 615.352 L1579.01 597.609 L1582.96 597.609 L1572.99 622.401 Z" fill="#000000" fill-rule="nonzero" fill-opacity="1" /><path clip-path="url(#clip610)" d="M828.345 929.167 L828.345 932.651 Q826.765 931.78 825.165 931.354 Q823.585 930.909 821.964 930.909 Q818.339 930.909 816.334 933.218 Q814.329 935.507 814.329 939.659 Q814.329 943.811 816.334 946.12 Q818.339 948.409 821.964 948.409 Q823.585 948.409 825.165 947.983 Q826.765 947.538 828.345 946.667 L828.345 950.11 Q826.785 950.839 825.104 951.204 Q823.443 951.568 821.559 951.568 Q816.435 951.568 813.417 948.348 Q810.399 945.128 810.399 939.659 Q810.399 934.109 813.437 930.929 Q816.496 927.749 821.802 927.749 Q823.524 927.749 825.165 928.114 Q826.805 928.458 828.345 929.167 Z" fill="#000000" fill-rule="nonzero" fill-opacity="1" /><path clip-path="url(#clip610)" d="M834.826 928.296 L838.553 928.296 L838.553 950.981 L834.826 950.981 L834.826 928.296 M834.826 919.465 L838.553 919.465 L838.553 924.184 L834.826 924.184 L834.826 919.465 Z" fill="#000000" fill-rule="nonzero" fill-opacity="1" /><path clip-path="url(#clip610)" d="M850.037 921.855 L850.037 928.296 L857.714 928.296 L857.714 931.192 L850.037 931.192 L850.037 943.507 Q850.037 946.282 850.787 947.072 Q851.556 947.862 853.886 947.862 L857.714 947.862 L857.714 950.981 L853.886 950.981 Q849.571 950.981 847.931 949.381 Q846.29 947.761 846.29 943.507 L846.29 931.192 L843.556 931.192 L843.556 928.296 L846.29 928.296 L846.29 921.855 L850.037 921.855 Z" fill="#000000" fill-rule="nonzero" fill-opacity="1" /><path clip-path="url(#clip610)" d="M875.76 931.78 Q875.133 931.415 874.383 931.253 Q873.654 931.071 872.763 931.071 Q869.603 931.071 867.902 933.137 Q866.221 935.183 866.221 939.031 L866.221 950.981 L862.474 950.981 L862.474 928.296 L866.221 928.296 L866.221 931.82 Q867.395 929.754 869.279 928.762 Q871.163 927.749 873.857 927.749 Q874.241 927.749 874.707 927.81 Q875.173 927.85 875.74 927.952 L875.76 931.78 Z" fill="#000000" fill-rule="nonzero" fill-opacity="1" /><path clip-path="url(#clip610)" d="M879.67 928.296 L883.396 928.296 L883.396 950.981 L879.67 950.981 L879.67 928.296 M879.67 919.465 L883.396 919.465 L883.396 924.184 L879.67 924.184 L879.67 919.465 Z" fill="#000000" fill-rule="nonzero" fill-opacity="1" /><path clip-path="url(#clip610)" d="M907.52 929.167 L907.52 932.651 Q905.94 931.78 904.34 931.354 Q902.76 930.909 901.139 930.909 Q897.514 930.909 895.509 933.218 Q893.503 935.507 893.503 939.659 Q893.503 943.811 895.509 946.12 Q897.514 948.409 901.139 948.409 Q902.76 948.409 904.34 947.983 Q905.94 947.538 907.52 946.667 L907.52 950.11 Q905.96 950.839 904.279 951.204 Q902.618 951.568 900.734 951.568 Q895.61 951.568 892.592 948.348 Q889.574 945.128 889.574 939.659 Q889.574 934.109 892.612 930.929 Q895.671 927.749 900.977 927.749 Q902.699 927.749 904.34 928.114 Q905.98 928.458 907.52 929.167 Z" fill="#000000" fill-rule="nonzero" fill-opacity="1" /><path clip-path="url(#clip610)" d="M924.311 939.578 Q919.794 939.578 918.052 940.611 Q916.31 941.644 916.31 944.135 Q916.31 946.12 917.606 947.295 Q918.923 948.449 921.171 948.449 Q924.27 948.449 926.133 946.262 Q928.017 944.054 928.017 940.408 L928.017 939.578 L924.311 939.578 M931.744 938.038 L931.744 950.981 L928.017 950.981 L928.017 947.538 Q926.741 949.604 924.837 950.596 Q922.933 951.568 920.179 951.568 Q916.695 951.568 914.629 949.624 Q912.583 947.659 912.583 944.378 Q912.583 940.55 915.135 938.606 Q917.708 936.661 922.791 936.661 L928.017 936.661 L928.017 936.297 Q928.017 933.724 926.316 932.327 Q924.635 930.909 921.576 930.909 Q919.632 930.909 917.789 931.375 Q915.945 931.841 914.244 932.772 L914.244 929.329 Q916.29 928.539 918.214 928.154 Q920.138 927.749 921.961 927.749 Q926.883 927.749 929.313 930.301 Q931.744 932.853 931.744 938.038 Z" fill="#000000" fill-rule="nonzero" fill-opacity="1" /><path clip-path="url(#clip610)" d="M955.746 929.167 L955.746 932.651 Q954.166 931.78 952.566 931.354 Q950.986 930.909 949.365 930.909 Q945.74 930.909 943.735 933.218 Q941.729 935.507 941.729 939.659 Q941.729 943.811 943.735 946.12 Q945.74 948.409 949.365 948.409 Q950.986 948.409 952.566 947.983 Q954.166 947.538 955.746 946.667 L955.746 950.11 Q954.186 950.839 952.505 951.204 Q950.844 951.568 948.96 951.568 Q943.836 951.568 940.818 948.348 Q937.8 945.128 937.8 939.659 Q937.8 934.109 940.838 930.929 Q943.897 927.749 949.203 927.749 Q950.925 927.749 952.566 928.114 Q954.206 928.458 955.746 929.167 Z" fill="#000000" fill-rule="nonzero" fill-opacity="1" /><path clip-path="url(#clip610)" d="M962.227 928.296 L965.954 928.296 L965.954 950.981 L962.227 950.981 L962.227 928.296 M962.227 919.465 L965.954 919.465 L965.954 924.184 L962.227 924.184 L962.227 919.465 Z" fill="#000000" fill-rule="nonzero" fill-opacity="1" /><path clip-path="url(#clip610)" d="M988.679 931.739 L988.679 919.465 L992.406 919.465 L992.406 950.981 L988.679 950.981 L988.679 947.578 Q987.505 949.604 985.702 950.596 Q983.92 951.568 981.408 951.568 Q977.296 951.568 974.704 948.287 Q972.131 945.006 972.131 939.659 Q972.131 934.312 974.704 931.03 Q977.296 927.749 981.408 927.749 Q983.92 927.749 985.702 928.742 Q987.505 929.714 988.679 931.739 M975.98 939.659 Q975.98 943.77 977.661 946.12 Q979.362 948.449 982.32 948.449 Q985.277 948.449 986.978 946.12 Q988.679 943.77 988.679 939.659 Q988.679 935.547 986.978 933.218 Q985.277 930.868 982.32 930.868 Q979.362 930.868 977.661 933.218 Q975.98 935.547 975.98 939.659 Z" fill="#000000" fill-rule="nonzero" fill-opacity="1" /><path clip-path="url(#clip610)" d="M2049.27 2195.49 Q2048.64 2195.13 2047.89 2194.97 Q2047.16 2194.78 2046.27 2194.78 Q2043.11 2194.78 2041.41 2196.85 Q2039.73 2198.9 2039.73 2202.74 L2039.73 2214.69 L2035.98 2214.69 L2035.98 2192.01 L2039.73 2192.01 L2039.73 2195.53 Q2040.91 2193.47 2042.79 2192.48 Q2044.67 2191.46 2047.37 2191.46 Q2047.75 2191.46 2048.22 2191.52 Q2048.68 2191.56 2049.25 2191.67 L2049.27 2195.49 Z" fill="#000000" fill-rule="nonzero" fill-opacity="1" /><path clip-path="url(#clip610)" d="M2071.67 2202.42 L2071.67 2204.24 L2054.54 2204.24 Q2054.78 2208.09 2056.85 2210.12 Q2058.93 2212.12 2062.64 2212.12 Q2064.79 2212.12 2066.79 2211.6 Q2068.82 2211.07 2070.8 2210.02 L2070.8 2213.54 Q2068.8 2214.39 2066.69 2214.84 Q2064.58 2215.28 2062.42 2215.28 Q2056.99 2215.28 2053.81 2212.12 Q2050.65 2208.96 2050.65 2203.58 Q2050.65 2198.01 2053.65 2194.74 Q2056.66 2191.46 2061.77 2191.46 Q2066.35 2191.46 2069 2194.42 Q2071.67 2197.36 2071.67 2202.42 M2067.95 2201.33 Q2067.91 2198.27 2066.22 2196.45 Q2064.56 2194.62 2061.81 2194.62 Q2058.69 2194.62 2056.81 2196.38 Q2054.94 2198.15 2054.66 2201.35 L2067.95 2201.33 Z" fill="#000000" fill-rule="nonzero" fill-opacity="1" /><path clip-path="url(#clip610)" d="M2092.25 2192.68 L2092.25 2196.2 Q2090.67 2195.39 2088.97 2194.99 Q2087.27 2194.58 2085.45 2194.58 Q2082.67 2194.58 2081.27 2195.43 Q2079.9 2196.28 2079.9 2197.99 Q2079.9 2199.28 2080.89 2200.03 Q2081.88 2200.76 2084.88 2201.43 L2086.15 2201.71 Q2090.12 2202.56 2091.79 2204.12 Q2093.47 2205.66 2093.47 2208.44 Q2093.47 2211.6 2090.95 2213.44 Q2088.46 2215.28 2084.09 2215.28 Q2082.27 2215.28 2080.28 2214.92 Q2078.32 2214.57 2076.13 2213.86 L2076.13 2210.02 Q2078.19 2211.09 2080.2 2211.64 Q2082.2 2212.16 2084.17 2212.16 Q2086.8 2212.16 2088.22 2211.27 Q2089.64 2210.36 2089.64 2208.72 Q2089.64 2207.2 2088.61 2206.39 Q2087.59 2205.58 2084.13 2204.83 L2082.83 2204.53 Q2079.37 2203.8 2077.83 2202.3 Q2076.29 2200.78 2076.29 2198.15 Q2076.29 2194.95 2078.56 2193.2 Q2080.83 2191.46 2085 2191.46 Q2087.07 2191.46 2088.89 2191.77 Q2090.71 2192.07 2092.25 2192.68 Z" fill="#000000" fill-rule="nonzero" fill-opacity="1" /><path clip-path="url(#clip610)" d="M2099.4 2192.01 L2103.13 2192.01 L2103.13 2214.69 L2099.4 2214.69 L2099.4 2192.01 M2099.4 2183.18 L2103.13 2183.18 L2103.13 2187.9 L2099.4 2187.9 L2099.4 2183.18 Z" fill="#000000" fill-rule="nonzero" fill-opacity="1" /><path clip-path="url(#clip610)" d="M2125.85 2195.45 L2125.85 2183.18 L2129.58 2183.18 L2129.58 2214.69 L2125.85 2214.69 L2125.85 2211.29 Q2124.68 2213.32 2122.88 2214.31 Q2121.09 2215.28 2118.58 2215.28 Q2114.47 2215.28 2111.88 2212 Q2109.31 2208.72 2109.31 2203.37 Q2109.31 2198.03 2111.88 2194.74 Q2114.47 2191.46 2118.58 2191.46 Q2121.09 2191.46 2122.88 2192.46 Q2124.68 2193.43 2125.85 2195.45 M2113.15 2203.37 Q2113.15 2207.48 2114.83 2209.83 Q2116.54 2212.16 2119.49 2212.16 Q2122.45 2212.16 2124.15 2209.83 Q2125.85 2207.48 2125.85 2203.37 Q2125.85 2199.26 2124.15 2196.93 Q2122.45 2194.58 2119.49 2194.58 Q2116.54 2194.58 2114.83 2196.93 Q2113.15 2199.26 2113.15 2203.37 Z" fill="#000000" fill-rule="nonzero" fill-opacity="1" /><path clip-path="url(#clip610)" d="M2136.87 2205.74 L2136.87 2192.01 L2140.6 2192.01 L2140.6 2205.6 Q2140.6 2208.82 2141.85 2210.44 Q2143.11 2212.04 2145.62 2212.04 Q2148.64 2212.04 2150.38 2210.12 Q2152.14 2208.19 2152.14 2204.87 L2152.14 2192.01 L2155.87 2192.01 L2155.87 2214.69 L2152.14 2214.69 L2152.14 2211.21 Q2150.79 2213.28 2148.98 2214.29 Q2147.2 2215.28 2144.83 2215.28 Q2140.92 2215.28 2138.9 2212.85 Q2136.87 2210.42 2136.87 2205.74 M2146.25 2191.46 L2146.25 2191.46 Z" fill="#000000" fill-rule="nonzero" fill-opacity="1" /><path clip-path="url(#clip610)" d="M2173.86 2203.29 Q2169.34 2203.29 2167.6 2204.32 Q2165.86 2205.36 2165.86 2207.85 Q2165.86 2209.83 2167.15 2211.01 Q2168.47 2212.16 2170.72 2212.16 Q2173.82 2212.16 2175.68 2209.98 Q2177.56 2207.77 2177.56 2204.12 L2177.56 2203.29 L2173.86 2203.29 M2181.29 2201.75 L2181.29 2214.69 L2177.56 2214.69 L2177.56 2211.25 Q2176.29 2213.32 2174.38 2214.31 Q2172.48 2215.28 2169.72 2215.28 Q2166.24 2215.28 2164.17 2213.34 Q2162.13 2211.37 2162.13 2208.09 Q2162.13 2204.26 2164.68 2202.32 Q2167.25 2200.38 2172.34 2200.38 L2177.56 2200.38 L2177.56 2200.01 Q2177.56 2197.44 2175.86 2196.04 Q2174.18 2194.62 2171.12 2194.62 Q2169.18 2194.62 2167.33 2195.09 Q2165.49 2195.55 2163.79 2196.49 L2163.79 2193.04 Q2165.84 2192.25 2167.76 2191.87 Q2169.68 2191.46 2171.51 2191.46 Q2176.43 2191.46 2178.86 2194.02 Q2181.29 2196.57 2181.29 2201.75 Z" fill="#000000" fill-rule="nonzero" fill-opacity="1" /><path clip-path="url(#clip610)" d="M2188.97 2183.18 L2192.69 2183.18 L2192.69 2214.69 L2188.97 2214.69 L2188.97 2183.18 Z" fill="#000000" fill-rule="nonzero" fill-opacity="1" /><path clip-path="url(#clip610)" d="M2214.95 2192.68 L2214.95 2196.2 Q2213.37 2195.39 2211.67 2194.99 Q2209.97 2194.58 2208.15 2194.58 Q2205.37 2194.58 2203.97 2195.43 Q2202.6 2196.28 2202.6 2197.99 Q2202.6 2199.28 2203.59 2200.03 Q2204.58 2200.76 2207.58 2201.43 L2208.86 2201.71 Q2212.83 2202.56 2214.49 2204.12 Q2216.17 2205.66 2216.17 2208.44 Q2216.17 2211.6 2213.66 2213.44 Q2211.17 2215.28 2206.79 2215.28 Q2204.97 2215.28 2202.98 2214.92 Q2201.02 2214.57 2198.83 2213.86 L2198.83 2210.02 Q2200.9 2211.09 2202.9 2211.64 Q2204.91 2212.16 2206.87 2212.16 Q2209.5 2212.16 2210.92 2211.27 Q2212.34 2210.36 2212.34 2208.72 Q2212.34 2207.2 2211.31 2206.39 Q2210.29 2205.58 2206.83 2204.83 L2205.53 2204.53 Q2202.07 2203.8 2200.53 2202.3 Q2198.99 2200.78 2198.99 2198.15 Q2198.99 2194.95 2201.26 2193.2 Q2203.53 2191.46 2207.7 2191.46 Q2209.77 2191.46 2211.59 2191.77 Q2213.41 2192.07 2214.95 2192.68 Z" fill="#000000" fill-rule="nonzero" fill-opacity="1" /><path clip-path="url(#clip610)" d="M2221.72 2205.74 L2221.72 2192.01 L2225.44 2192.01 L2225.44 2205.6 Q2225.44 2208.82 2226.7 2210.44 Q2227.96 2212.04 2230.47 2212.04 Q2233.49 2212.04 2235.23 2210.12 Q2236.99 2208.19 2236.99 2204.87 L2236.99 2192.01 L2240.72 2192.01 L2240.72 2214.69 L2236.99 2214.69 L2236.99 2211.21 Q2235.63 2213.28 2233.83 2214.29 Q2232.05 2215.28 2229.68 2215.28 Q2225.77 2215.28 2223.74 2212.85 Q2221.72 2210.42 2221.72 2205.74 M2231.1 2191.46 L2231.1 2191.46 Z" fill="#000000" fill-rule="nonzero" fill-opacity="1" /><path clip-path="url(#clip610)" d="M2263.32 2203.09 Q2263.32 2199.04 2261.64 2196.81 Q2259.98 2194.58 2256.96 2194.58 Q2253.96 2194.58 2252.28 2196.81 Q2250.62 2199.04 2250.62 2203.09 Q2250.62 2207.12 2252.28 2209.35 Q2253.96 2211.58 2256.96 2211.58 Q2259.98 2211.58 2261.64 2209.35 Q2263.32 2207.12 2263.32 2203.09 M2267.05 2211.88 Q2267.05 2217.67 2264.48 2220.49 Q2261.9 2223.32 2256.6 2223.32 Q2254.63 2223.32 2252.89 2223.02 Q2251.15 2222.74 2249.51 2222.13 L2249.51 2218.5 Q2251.15 2219.39 2252.75 2219.82 Q2254.35 2220.24 2256.01 2220.24 Q2259.67 2220.24 2261.5 2218.32 Q2263.32 2216.42 2263.32 2212.55 L2263.32 2210.7 Q2262.17 2212.71 2260.36 2213.7 Q2258.56 2214.69 2256.05 2214.69 Q2251.88 2214.69 2249.32 2211.52 Q2246.77 2208.34 2246.77 2203.09 Q2246.77 2197.82 2249.32 2194.64 Q2251.88 2191.46 2256.05 2191.46 Q2258.56 2191.46 2260.36 2192.46 Q2262.17 2193.45 2263.32 2195.45 L2263.32 2192.01 L2267.05 2192.01 L2267.05 2211.88 Z" fill="#000000" fill-rule="nonzero" fill-opacity="1" /><path clip-path="url(#clip610)" d="M2285.03 2203.29 Q2280.52 2203.29 2278.77 2204.32 Q2277.03 2205.36 2277.03 2207.85 Q2277.03 2209.83 2278.33 2211.01 Q2279.65 2212.16 2281.89 2212.16 Q2284.99 2212.16 2286.86 2209.98 Q2288.74 2207.77 2288.74 2204.12 L2288.74 2203.29 L2285.03 2203.29 M2292.47 2201.75 L2292.47 2214.69 L2288.74 2214.69 L2288.74 2211.25 Q2287.46 2213.32 2285.56 2214.31 Q2283.66 2215.28 2280.9 2215.28 Q2277.42 2215.28 2275.35 2213.34 Q2273.31 2211.37 2273.31 2208.09 Q2273.31 2204.26 2275.86 2202.32 Q2278.43 2200.38 2283.51 2200.38 L2288.74 2200.38 L2288.74 2200.01 Q2288.74 2197.44 2287.04 2196.04 Q2285.36 2194.62 2282.3 2194.62 Q2280.35 2194.62 2278.51 2195.09 Q2276.67 2195.55 2274.97 2196.49 L2274.97 2193.04 Q2277.01 2192.25 2278.94 2191.87 Q2280.86 2191.46 2282.68 2191.46 Q2287.61 2191.46 2290.04 2194.02 Q2292.47 2196.57 2292.47 2201.75 Z" fill="#000000" fill-rule="nonzero" fill-opacity="1" /><path clip-path="url(#clip610)" d="M2313.29 2195.49 Q2312.66 2195.13 2311.91 2194.97 Q2311.18 2194.78 2310.29 2194.78 Q2307.13 2194.78 2305.43 2196.85 Q2303.75 2198.9 2303.75 2202.74 L2303.75 2214.69 L2300 2214.69 L2300 2192.01 L2303.75 2192.01 L2303.75 2195.53 Q2304.92 2193.47 2306.81 2192.48 Q2308.69 2191.46 2311.38 2191.46 Q2311.77 2191.46 2312.24 2191.52 Q2312.7 2191.56 2313.27 2191.67 L2313.29 2195.49 Z" fill="#000000" fill-rule="nonzero" fill-opacity="1" /><path clip-path="url(#clip610)" d="M2103.15 3388.13 L2103.15 3391.62 Q2101.57 3390.74 2099.97 3390.32 Q2098.39 3389.87 2096.77 3389.87 Q2093.14 3389.87 2091.14 3392.18 Q2089.13 3394.47 2089.13 3398.62 Q2089.13 3402.78 2091.14 3405.08 Q2093.14 3407.37 2096.77 3407.37 Q2098.39 3407.37 2099.97 3406.95 Q2101.57 3406.5 2103.15 3405.63 L2103.15 3409.07 Q2101.59 3409.8 2099.91 3410.17 Q2098.25 3410.53 2096.36 3410.53 Q2091.24 3410.53 2088.22 3407.31 Q2085.2 3404.09 2085.2 3398.62 Q2085.2 3393.07 2088.24 3389.89 Q2091.3 3386.71 2096.61 3386.71 Q2098.33 3386.71 2099.97 3387.08 Q2101.61 3387.42 2103.15 3388.13 Z" fill="#000000" fill-rule="nonzero" fill-opacity="1" /><path clip-path="url(#clip610)" d="M2128.49 3396.25 L2128.49 3409.95 L2124.76 3409.95 L2124.76 3396.38 Q2124.76 3393.15 2123.5 3391.55 Q2122.25 3389.95 2119.74 3389.95 Q2116.72 3389.95 2114.98 3391.88 Q2113.23 3393.8 2113.23 3397.12 L2113.23 3409.95 L2109.49 3409.95 L2109.49 3378.43 L2113.23 3378.43 L2113.23 3390.78 Q2114.57 3388.74 2116.37 3387.73 Q2118.2 3386.71 2120.57 3386.71 Q2124.48 3386.71 2126.48 3389.14 Q2128.49 3391.55 2128.49 3396.25 Z" fill="#000000" fill-rule="nonzero" fill-opacity="1" /><path clip-path="url(#clip610)" d="M2135.92 3378.43 L2139.65 3378.43 L2139.65 3409.95 L2135.92 3409.95 L2135.92 3378.43 Z" fill="#000000" fill-rule="nonzero" fill-opacity="1" /><path clip-path="url(#clip610)" d="M2156.23 3389.87 Q2153.24 3389.87 2151.5 3392.22 Q2149.75 3394.55 2149.75 3398.62 Q2149.75 3402.69 2151.47 3405.04 Q2153.22 3407.37 2156.23 3407.37 Q2159.21 3407.37 2160.95 3405.02 Q2162.7 3402.67 2162.7 3398.62 Q2162.7 3394.59 2160.95 3392.24 Q2159.21 3389.87 2156.23 3389.87 M2156.23 3386.71 Q2161.1 3386.71 2163.87 3389.87 Q2166.65 3393.03 2166.65 3398.62 Q2166.65 3404.19 2163.87 3407.37 Q2161.1 3410.53 2156.23 3410.53 Q2151.35 3410.53 2148.58 3407.37 Q2145.82 3404.19 2145.82 3398.62 Q2145.82 3393.03 2148.58 3389.87 Q2151.35 3386.71 2156.23 3386.71 Z" fill="#000000" fill-rule="nonzero" fill-opacity="1" /><path clip-path="url(#clip610)" d="M2185.97 3390.74 Q2185.34 3390.38 2184.59 3390.22 Q2183.86 3390.04 2182.97 3390.04 Q2179.81 3390.04 2178.11 3392.1 Q2176.43 3394.15 2176.43 3398 L2176.43 3409.95 L2172.68 3409.95 L2172.68 3387.26 L2176.43 3387.26 L2176.43 3390.78 Q2177.6 3388.72 2179.49 3387.73 Q2181.37 3386.71 2184.06 3386.71 Q2184.45 3386.71 2184.92 3386.77 Q2185.38 3386.81 2185.95 3386.92 L2185.97 3390.74 Z" fill="#000000" fill-rule="nonzero" fill-opacity="1" /><path clip-path="url(#clip610)" d="M2189.88 3387.26 L2193.6 3387.26 L2193.6 3409.95 L2189.88 3409.95 L2189.88 3387.26 M2189.88 3378.43 L2193.6 3378.43 L2193.6 3383.15 L2189.88 3383.15 L2189.88 3378.43 Z" fill="#000000" fill-rule="nonzero" fill-opacity="1" /><path clip-path="url(#clip610)" d="M2216.33 3390.7 L2216.33 3378.43 L2220.06 3378.43 L2220.06 3409.95 L2216.33 3409.95 L2216.33 3406.54 Q2215.16 3408.57 2213.35 3409.56 Q2211.57 3410.53 2209.06 3410.53 Q2204.95 3410.53 2202.35 3407.25 Q2199.78 3403.97 2199.78 3398.62 Q2199.78 3393.28 2202.35 3389.99 Q2204.95 3386.71 2209.06 3386.71 Q2211.57 3386.71 2213.35 3387.71 Q2215.16 3388.68 2216.33 3390.7 M2203.63 3398.62 Q2203.63 3402.74 2205.31 3405.08 Q2207.01 3407.41 2209.97 3407.41 Q2212.93 3407.41 2214.63 3405.08 Q2216.33 3402.74 2216.33 3398.62 Q2216.33 3394.51 2214.63 3392.18 Q2212.93 3389.83 2209.97 3389.83 Q2207.01 3389.83 2205.31 3392.18 Q2203.63 3394.51 2203.63 3398.62 Z" fill="#000000" fill-rule="nonzero" fill-opacity="1" /><path clip-path="url(#clip610)" d="M2247.14 3397.67 L2247.14 3399.49 L2230 3399.49 Q2230.24 3403.34 2232.31 3405.37 Q2234.4 3407.37 2238.1 3407.37 Q2240.25 3407.37 2242.26 3406.85 Q2244.28 3406.32 2246.27 3405.27 L2246.27 3408.79 Q2244.26 3409.64 2242.15 3410.09 Q2240.05 3410.53 2237.88 3410.53 Q2232.45 3410.53 2229.27 3407.37 Q2226.11 3404.21 2226.11 3398.83 Q2226.11 3393.26 2229.11 3389.99 Q2232.13 3386.71 2237.23 3386.71 Q2241.81 3386.71 2244.46 3389.67 Q2247.14 3392.61 2247.14 3397.67 M2243.41 3396.58 Q2243.37 3393.52 2241.69 3391.7 Q2240.03 3389.87 2237.27 3389.87 Q2234.15 3389.87 2232.27 3391.64 Q2230.41 3393.4 2230.12 3396.6 L2243.41 3396.58 Z" fill="#000000" fill-rule="nonzero" fill-opacity="1" /><path clip-path="url(#clip610)" d="M2267.72 3387.93 L2267.72 3391.45 Q2266.14 3390.64 2264.43 3390.24 Q2262.73 3389.83 2260.91 3389.83 Q2258.14 3389.83 2256.74 3390.68 Q2255.36 3391.53 2255.36 3393.24 Q2255.36 3394.53 2256.35 3395.28 Q2257.35 3396.01 2260.34 3396.68 L2261.62 3396.96 Q2265.59 3397.81 2267.25 3399.37 Q2268.93 3400.91 2268.93 3403.69 Q2268.93 3406.85 2266.42 3408.69 Q2263.93 3410.53 2259.55 3410.53 Q2257.73 3410.53 2255.75 3410.17 Q2253.78 3409.82 2251.59 3409.12 L2251.59 3405.27 Q2253.66 3406.34 2255.66 3406.89 Q2257.67 3407.41 2259.63 3407.41 Q2262.27 3407.41 2263.68 3406.52 Q2265.1 3405.61 2265.1 3403.97 Q2265.1 3402.45 2264.07 3401.64 Q2263.06 3400.83 2259.59 3400.08 L2258.3 3399.78 Q2254.83 3399.05 2253.29 3397.55 Q2251.75 3396.03 2251.75 3393.4 Q2251.75 3390.2 2254.02 3388.46 Q2256.29 3386.71 2260.46 3386.71 Q2262.53 3386.71 2264.35 3387.02 Q2266.18 3387.32 2267.72 3387.93 Z" fill="#000000" fill-rule="nonzero" fill-opacity="1" /><path clip-path="url(#clip610)" d="M1812.87 1312.7 L1812.87 1315.8 L1809.31 1315.8 Q1807.3 1315.8 1806.51 1316.61 Q1805.74 1317.42 1805.74 1319.53 L1805.74 1321.53 L1811.88 1321.53 L1811.88 1324.43 L1805.74 1324.43 L1805.74 1344.22 L1801.99 1344.22 L1801.99 1324.43 L1798.43 1324.43 L1798.43 1321.53 L1801.99 1321.53 L1801.99 1319.95 Q1801.99 1316.17 1803.76 1314.44 Q1805.52 1312.7 1809.35 1312.7 L1812.87 1312.7 Z" fill="#000000" fill-rule="nonzero" fill-opacity="1" /><path clip-path="url(#clip610)" d="M1829.13 1325.02 Q1828.51 1324.65 1827.76 1324.49 Q1827.03 1324.31 1826.14 1324.31 Q1822.98 1324.31 1821.28 1326.37 Q1819.59 1328.42 1819.59 1332.27 L1819.59 1344.22 L1815.85 1344.22 L1815.85 1321.53 L1819.59 1321.53 L1819.59 1325.06 Q1820.77 1322.99 1822.65 1322 Q1824.54 1320.99 1827.23 1320.99 Q1827.62 1320.99 1828.08 1321.05 Q1828.55 1321.09 1829.11 1321.19 L1829.13 1325.02 Z" fill="#000000" fill-rule="nonzero" fill-opacity="1" /><path clip-path="url(#clip610)" d="M1851.54 1331.94 L1851.54 1333.77 L1834.4 1333.77 Q1834.64 1337.62 1836.71 1339.64 Q1838.8 1341.65 1842.5 1341.65 Q1844.65 1341.65 1846.65 1341.12 Q1848.68 1340.59 1850.67 1339.54 L1850.67 1343.06 Q1848.66 1343.92 1846.55 1344.36 Q1844.45 1344.81 1842.28 1344.81 Q1836.85 1344.81 1833.67 1341.65 Q1830.51 1338.49 1830.51 1333.1 Q1830.51 1327.53 1833.51 1324.27 Q1836.53 1320.99 1841.63 1320.99 Q1846.21 1320.99 1848.86 1323.94 Q1851.54 1326.88 1851.54 1331.94 M1847.81 1330.85 Q1847.77 1327.79 1846.09 1325.97 Q1844.43 1324.15 1841.67 1324.15 Q1838.55 1324.15 1836.67 1325.91 Q1834.81 1327.67 1834.52 1330.87 L1847.81 1330.85 Z" fill="#000000" fill-rule="nonzero" fill-opacity="1" /><path clip-path="url(#clip610)" d="M1877.06 1331.94 L1877.06 1333.77 L1859.92 1333.77 Q1860.16 1337.62 1862.23 1339.64 Q1864.32 1341.65 1868.02 1341.65 Q1870.17 1341.65 1872.18 1341.12 Q1874.2 1340.59 1876.19 1339.54 L1876.19 1343.06 Q1874.18 1343.92 1872.07 1344.36 Q1869.97 1344.81 1867.8 1344.81 Q1862.37 1344.81 1859.19 1341.65 Q1856.03 1338.49 1856.03 1333.1 Q1856.03 1327.53 1859.03 1324.27 Q1862.05 1320.99 1867.15 1320.99 Q1871.73 1320.99 1874.38 1323.94 Q1877.06 1326.88 1877.06 1331.94 M1873.33 1330.85 Q1873.29 1327.79 1871.61 1325.97 Q1869.95 1324.15 1867.19 1324.15 Q1864.07 1324.15 1862.19 1325.91 Q1860.33 1327.67 1860.04 1330.87 L1873.33 1330.85 Z" fill="#000000" fill-rule="nonzero" fill-opacity="1" /><path clip-path="url(#clip610)" d="M1897.64 1322.2 L1897.64 1325.73 Q1896.06 1324.92 1894.35 1324.51 Q1892.65 1324.11 1890.83 1324.11 Q1888.05 1324.11 1886.66 1324.96 Q1885.28 1325.81 1885.28 1327.51 Q1885.28 1328.81 1886.27 1329.55 Q1887.26 1330.28 1890.26 1330.95 L1891.54 1331.24 Q1895.51 1332.09 1897.17 1333.65 Q1898.85 1335.19 1898.85 1337.96 Q1898.85 1341.12 1896.34 1342.96 Q1893.85 1344.81 1889.47 1344.81 Q1887.65 1344.81 1885.66 1344.44 Q1883.7 1344.1 1881.51 1343.39 L1881.51 1339.54 Q1883.58 1340.61 1885.58 1341.16 Q1887.59 1341.69 1889.55 1341.69 Q1892.19 1341.69 1893.6 1340.8 Q1895.02 1339.88 1895.02 1338.24 Q1895.02 1336.72 1893.99 1335.91 Q1892.98 1335.1 1889.51 1334.35 L1888.22 1334.05 Q1884.75 1333.32 1883.21 1331.82 Q1881.67 1330.3 1881.67 1327.67 Q1881.67 1324.47 1883.94 1322.73 Q1886.21 1320.99 1890.38 1320.99 Q1892.45 1320.99 1894.27 1321.29 Q1896.1 1321.59 1897.64 1322.2 Z" fill="#000000" fill-rule="nonzero" fill-opacity="1" /><path clip-path="url(#clip610)" d="M1904.4 1335.27 L1904.4 1321.53 L1908.13 1321.53 L1908.13 1335.12 Q1908.13 1338.35 1909.38 1339.97 Q1910.64 1341.57 1913.15 1341.57 Q1916.17 1341.57 1917.91 1339.64 Q1919.67 1337.72 1919.67 1334.4 L1919.67 1321.53 L1923.4 1321.53 L1923.4 1344.22 L1919.67 1344.22 L1919.67 1340.74 Q1918.32 1342.8 1916.51 1343.81 Q1914.73 1344.81 1912.36 1344.81 Q1908.45 1344.81 1906.43 1342.38 Q1904.4 1339.95 1904.4 1335.27 M1913.78 1320.99 L1913.78 1320.99 Z" fill="#000000" fill-rule="nonzero" fill-opacity="1" /><path clip-path="url(#clip610)" d="M1931.08 1312.7 L1934.8 1312.7 L1934.8 1344.22 L1931.08 1344.22 L1931.08 1312.7 Z" fill="#000000" fill-rule="nonzero" fill-opacity="1" /><path clip-path="url(#clip610)" d="M1954.08 1312.7 L1954.08 1315.8 L1950.52 1315.8 Q1948.51 1315.8 1947.72 1316.61 Q1946.96 1317.42 1946.96 1319.53 L1946.96 1321.53 L1953.09 1321.53 L1953.09 1324.43 L1946.96 1324.43 L1946.96 1344.22 L1943.21 1344.22 L1943.21 1324.43 L1939.64 1324.43 L1939.64 1321.53 L1943.21 1321.53 L1943.21 1319.95 Q1943.21 1316.17 1944.97 1314.44 Q1946.73 1312.7 1950.56 1312.7 L1954.08 1312.7 Z" fill="#000000" fill-rule="nonzero" fill-opacity="1" /><path clip-path="url(#clip610)" d="M1956.82 1335.27 L1956.82 1321.53 L1960.55 1321.53 L1960.55 1335.12 Q1960.55 1338.35 1961.8 1339.97 Q1963.06 1341.57 1965.57 1341.57 Q1968.59 1341.57 1970.33 1339.64 Q1972.09 1337.72 1972.09 1334.4 L1972.09 1321.53 L1975.82 1321.53 L1975.82 1344.22 L1972.09 1344.22 L1972.09 1340.74 Q1970.73 1342.8 1968.93 1343.81 Q1967.15 1344.81 1964.78 1344.81 Q1960.87 1344.81 1958.84 1342.38 Q1956.82 1339.95 1956.82 1335.27 M1966.2 1320.99 L1966.2 1320.99 Z" fill="#000000" fill-rule="nonzero" fill-opacity="1" /><path clip-path="url(#clip610)" d="M1996.64 1325.02 Q1996.01 1324.65 1995.26 1324.49 Q1994.53 1324.31 1993.64 1324.31 Q1990.48 1324.31 1988.78 1326.37 Q1987.1 1328.42 1987.1 1332.27 L1987.1 1344.22 L1983.35 1344.22 L1983.35 1321.53 L1987.1 1321.53 L1987.1 1325.06 Q1988.27 1322.99 1990.16 1322 Q1992.04 1320.99 1994.74 1320.99 Q1995.12 1320.99 1995.59 1321.05 Q1996.05 1321.09 1996.62 1321.19 L1996.64 1325.02 Z" fill="#000000" fill-rule="nonzero" fill-opacity="1" /><path clip-path="url(#clip610)" d="M2014.75 1324.98 L2014.75 1312.7 L2018.47 1312.7 L2018.47 1344.22 L2014.75 1344.22 L2014.75 1340.82 Q2013.57 1342.84 2011.77 1343.83 Q2009.99 1344.81 2007.48 1344.81 Q2003.36 1344.81 2000.77 1341.53 Q1998.2 1338.24 1998.2 1332.9 Q1998.2 1327.55 2000.77 1324.27 Q2003.36 1320.99 2007.48 1320.99 Q2009.99 1320.99 2011.77 1321.98 Q2013.57 1322.95 2014.75 1324.98 M2002.05 1332.9 Q2002.05 1337.01 2003.73 1339.36 Q2005.43 1341.69 2008.39 1341.69 Q2011.34 1341.69 2013.05 1339.36 Q2014.75 1337.01 2014.75 1332.9 Q2014.75 1328.78 2013.05 1326.46 Q2011.34 1324.11 2008.39 1324.11 Q2005.43 1324.11 2003.73 1326.46 Q2002.05 1328.78 2002.05 1332.9 Z" fill="#000000" fill-rule="nonzero" fill-opacity="1" /><path clip-path="url(#clip610)" d="M2026.15 1321.53 L2029.88 1321.53 L2029.88 1344.22 L2026.15 1344.22 L2026.15 1321.53 M2026.15 1312.7 L2029.88 1312.7 L2029.88 1317.42 L2026.15 1317.42 L2026.15 1312.7 Z" fill="#000000" fill-rule="nonzero" fill-opacity="1" /><path clip-path="url(#clip610)" d="M2046.47 1324.15 Q2043.47 1324.15 2041.73 1326.5 Q2039.98 1328.83 2039.98 1332.9 Q2039.98 1336.97 2041.71 1339.32 Q2043.45 1341.65 2046.47 1341.65 Q2049.44 1341.65 2051.18 1339.3 Q2052.93 1336.95 2052.93 1332.9 Q2052.93 1328.87 2051.18 1326.52 Q2049.44 1324.15 2046.47 1324.15 M2046.47 1320.99 Q2051.33 1320.99 2054.1 1324.15 Q2056.88 1327.31 2056.88 1332.9 Q2056.88 1338.47 2054.1 1341.65 Q2051.33 1344.81 2046.47 1344.81 Q2041.58 1344.81 2038.81 1341.65 Q2036.05 1338.47 2036.05 1332.9 Q2036.05 1327.31 2038.81 1324.15 Q2041.58 1320.99 2046.47 1320.99 Z" fill="#000000" fill-rule="nonzero" fill-opacity="1" /><path clip-path="url(#clip610)" d="M2080.63 1321.53 L2072.43 1332.57 L2081.06 1344.22 L2076.67 1344.22 L2070.06 1335.31 L2063.46 1344.22 L2059.06 1344.22 L2067.87 1332.35 L2059.81 1321.53 L2064.21 1321.53 L2070.22 1329.62 L2076.24 1321.53 L2080.63 1321.53 Z" fill="#000000" fill-rule="nonzero" fill-opacity="1" /><path clip-path="url(#clip610)" d="M2086.33 1321.53 L2090.05 1321.53 L2090.05 1344.22 L2086.33 1344.22 L2086.33 1321.53 M2086.33 1312.7 L2090.05 1312.7 L2090.05 1317.42 L2086.33 1317.42 L2086.33 1312.7 Z" fill="#000000" fill-rule="nonzero" fill-opacity="1" /><path clip-path="url(#clip610)" d="M2112.78 1324.98 L2112.78 1312.7 L2116.51 1312.7 L2116.51 1344.22 L2112.78 1344.22 L2112.78 1340.82 Q2111.6 1342.84 2109.8 1343.83 Q2108.02 1344.81 2105.51 1344.81 Q2101.4 1344.81 2098.8 1341.53 Q2096.23 1338.24 2096.23 1332.9 Q2096.23 1327.55 2098.8 1324.27 Q2101.4 1320.99 2105.51 1320.99 Q2108.02 1320.99 2109.8 1321.98 Q2111.6 1322.95 2112.78 1324.98 M2100.08 1332.9 Q2100.08 1337.01 2101.76 1339.36 Q2103.46 1341.69 2106.42 1341.69 Q2109.38 1341.69 2111.08 1339.36 Q2112.78 1337.01 2112.78 1332.9 Q2112.78 1328.78 2111.08 1326.46 Q2109.38 1324.11 2106.42 1324.11 Q2103.46 1324.11 2101.76 1326.46 Q2100.08 1328.78 2100.08 1332.9 Z" fill="#000000" fill-rule="nonzero" fill-opacity="1" /><path clip-path="url(#clip610)" d="M2143.59 1331.94 L2143.59 1333.77 L2126.45 1333.77 Q2126.69 1337.62 2128.76 1339.64 Q2130.85 1341.65 2134.55 1341.65 Q2136.7 1341.65 2138.7 1341.12 Q2140.73 1340.59 2142.72 1339.54 L2142.72 1343.06 Q2140.71 1343.92 2138.6 1344.36 Q2136.5 1344.81 2134.33 1344.81 Q2128.9 1344.81 2125.72 1341.65 Q2122.56 1338.49 2122.56 1333.1 Q2122.56 1327.53 2125.56 1324.27 Q2128.58 1320.99 2133.68 1320.99 Q2138.26 1320.99 2140.91 1323.94 Q2143.59 1326.88 2143.59 1331.94 M2139.86 1330.85 Q2139.82 1327.79 2138.14 1325.97 Q2136.48 1324.15 2133.72 1324.15 Q2130.6 1324.15 2128.72 1325.91 Q2126.86 1327.67 2126.57 1330.87 L2139.86 1330.85 Z" fill="#000000" fill-rule="nonzero" fill-opacity="1" /><path clip-path="url(#clip610)" d="M1467.05 3136.04 L1467.05 3142.48 L1474.73 3142.48 L1474.73 3145.38 L1467.05 3145.38 L1467.05 3157.69 Q1467.05 3160.47 1467.8 3161.26 Q1468.57 3162.05 1470.9 3162.05 L1474.73 3162.05 L1474.73 3165.17 L1470.9 3165.17 Q1466.59 3165.17 1464.95 3163.57 Q1463.31 3161.95 1463.31 3157.69 L1463.31 3145.38 L1460.57 3145.38 L1460.57 3142.48 L1463.31 3142.48 L1463.31 3136.04 L1467.05 3136.04 Z" fill="#000000" fill-rule="nonzero" fill-opacity="1" /><path clip-path="url(#clip610)" d="M1488.42 3145.09 Q1485.42 3145.09 1483.68 3147.44 Q1481.94 3149.77 1481.94 3153.84 Q1481.94 3157.92 1483.66 3160.26 Q1485.4 3162.59 1488.42 3162.59 Q1491.4 3162.59 1493.14 3160.24 Q1494.88 3157.9 1494.88 3153.84 Q1494.88 3149.81 1493.14 3147.46 Q1491.4 3145.09 1488.42 3145.09 M1488.42 3141.93 Q1493.28 3141.93 1496.06 3145.09 Q1498.83 3148.25 1498.83 3153.84 Q1498.83 3159.41 1496.06 3162.59 Q1493.28 3165.75 1488.42 3165.75 Q1483.54 3165.75 1480.77 3162.59 Q1478.01 3159.41 1478.01 3153.84 Q1478.01 3148.25 1480.77 3145.09 Q1483.54 3141.93 1488.42 3141.93 Z" fill="#000000" fill-rule="nonzero" fill-opacity="1" /><path clip-path="url(#clip610)" d="M1508.7 3136.04 L1508.7 3142.48 L1516.37 3142.48 L1516.37 3145.38 L1508.7 3145.38 L1508.7 3157.69 Q1508.7 3160.47 1509.45 3161.26 Q1510.22 3162.05 1512.55 3162.05 L1516.37 3162.05 L1516.37 3165.17 L1512.55 3165.17 Q1508.23 3165.17 1506.59 3163.57 Q1504.95 3161.95 1504.95 3157.69 L1504.95 3145.38 L1502.22 3145.38 L1502.22 3142.48 L1504.95 3142.48 L1504.95 3136.04 L1508.7 3136.04 Z" fill="#000000" fill-rule="nonzero" fill-opacity="1" /><path clip-path="url(#clip610)" d="M1531.58 3153.76 Q1527.07 3153.76 1525.33 3154.8 Q1523.58 3155.83 1523.58 3158.32 Q1523.58 3160.31 1524.88 3161.48 Q1526.2 3162.63 1528.45 3162.63 Q1531.54 3162.63 1533.41 3160.45 Q1535.29 3158.24 1535.29 3154.59 L1535.29 3153.76 L1531.58 3153.76 M1539.02 3152.22 L1539.02 3165.17 L1535.29 3165.17 L1535.29 3161.72 Q1534.02 3163.79 1532.11 3164.78 Q1530.21 3165.75 1527.45 3165.75 Q1523.97 3165.75 1521.9 3163.81 Q1519.86 3161.84 1519.86 3158.56 Q1519.86 3154.74 1522.41 3152.79 Q1524.98 3150.85 1530.07 3150.85 L1535.29 3150.85 L1535.29 3150.48 Q1535.29 3147.91 1533.59 3146.51 Q1531.91 3145.09 1528.85 3145.09 Q1526.91 3145.09 1525.06 3145.56 Q1523.22 3146.03 1521.52 3146.96 L1521.52 3143.51 Q1523.56 3142.72 1525.49 3142.34 Q1527.41 3141.93 1529.23 3141.93 Q1534.16 3141.93 1536.59 3144.49 Q1539.02 3147.04 1539.02 3152.22 Z" fill="#000000" fill-rule="nonzero" fill-opacity="1" /><path clip-path="url(#clip610)" d="M1546.69 3133.65 L1550.42 3133.65 L1550.42 3165.17 L1546.69 3165.17 L1546.69 3133.65 Z" fill="#000000" fill-rule="nonzero" fill-opacity="1" /><path clip-path="url(#clip610)" d="M1572.68 3143.15 L1572.68 3146.67 Q1571.1 3145.86 1569.4 3145.46 Q1567.7 3145.05 1565.88 3145.05 Q1563.1 3145.05 1561.7 3145.9 Q1560.33 3146.76 1560.33 3148.46 Q1560.33 3149.75 1561.32 3150.5 Q1562.31 3151.23 1565.31 3151.9 L1566.58 3152.18 Q1570.55 3153.03 1572.22 3154.59 Q1573.9 3156.13 1573.9 3158.91 Q1573.9 3162.07 1571.38 3163.91 Q1568.89 3165.75 1564.52 3165.75 Q1562.7 3165.75 1560.71 3165.39 Q1558.75 3165.04 1556.56 3164.34 L1556.56 3160.49 Q1558.62 3161.56 1560.63 3162.11 Q1562.63 3162.63 1564.6 3162.63 Q1567.23 3162.63 1568.65 3161.74 Q1570.07 3160.83 1570.07 3159.19 Q1570.07 3157.67 1569.04 3156.86 Q1568.02 3156.05 1564.56 3155.3 L1563.26 3155 Q1559.8 3154.27 1558.26 3152.77 Q1556.72 3151.25 1556.72 3148.62 Q1556.72 3145.42 1558.99 3143.68 Q1561.26 3141.93 1565.43 3141.93 Q1567.5 3141.93 1569.32 3142.24 Q1571.14 3142.54 1572.68 3143.15 Z" fill="#000000" fill-rule="nonzero" fill-opacity="1" /><path clip-path="url(#clip610)" d="M1579.45 3156.21 L1579.45 3142.48 L1583.17 3142.48 L1583.17 3156.07 Q1583.17 3159.29 1584.43 3160.91 Q1585.68 3162.51 1588.2 3162.51 Q1591.21 3162.51 1592.96 3160.59 Q1594.72 3158.66 1594.72 3155.34 L1594.72 3142.48 L1598.44 3142.48 L1598.44 3165.17 L1594.72 3165.17 L1594.72 3161.68 Q1593.36 3163.75 1591.56 3164.76 Q1589.78 3165.75 1587.41 3165.75 Q1583.5 3165.75 1581.47 3163.32 Q1579.45 3160.89 1579.45 3156.21 M1588.82 3141.93 L1588.82 3141.93 Z" fill="#000000" fill-rule="nonzero" fill-opacity="1" /><path clip-path="url(#clip610)" d="M1606.12 3133.65 L1609.85 3133.65 L1609.85 3165.17 L1606.12 3165.17 L1606.12 3133.65 Z" fill="#000000" fill-rule="nonzero" fill-opacity="1" /><path clip-path="url(#clip610)" d="M1629.13 3133.65 L1629.13 3136.75 L1625.57 3136.75 Q1623.56 3136.75 1622.77 3137.56 Q1622 3138.37 1622 3140.48 L1622 3142.48 L1628.14 3142.48 L1628.14 3145.38 L1622 3145.38 L1622 3165.17 L1618.25 3165.17 L1618.25 3145.38 L1614.69 3145.38 L1614.69 3142.48 L1618.25 3142.48 L1618.25 3140.9 Q1618.25 3137.11 1620.02 3135.39 Q1621.78 3133.65 1625.61 3133.65 L1629.13 3133.65 Z" fill="#000000" fill-rule="nonzero" fill-opacity="1" /><path clip-path="url(#clip610)" d="M1631.86 3156.21 L1631.86 3142.48 L1635.59 3142.48 L1635.59 3156.07 Q1635.59 3159.29 1636.85 3160.91 Q1638.1 3162.51 1640.61 3162.51 Q1643.63 3162.51 1645.37 3160.59 Q1647.14 3158.66 1647.14 3155.34 L1647.14 3142.48 L1650.86 3142.48 L1650.86 3165.17 L1647.14 3165.17 L1647.14 3161.68 Q1645.78 3163.75 1643.98 3164.76 Q1642.19 3165.75 1639.82 3165.75 Q1635.92 3165.75 1633.89 3163.32 Q1631.86 3160.89 1631.86 3156.21 M1641.24 3141.93 L1641.24 3141.93 Z" fill="#000000" fill-rule="nonzero" fill-opacity="1" /><path clip-path="url(#clip610)" d="M1671.68 3145.97 Q1671.06 3145.6 1670.31 3145.44 Q1669.58 3145.26 1668.69 3145.26 Q1665.53 3145.26 1663.83 3147.32 Q1662.15 3149.37 1662.15 3153.22 L1662.15 3165.17 L1658.4 3165.17 L1658.4 3142.48 L1662.15 3142.48 L1662.15 3146.01 Q1663.32 3143.94 1665.2 3142.95 Q1667.09 3141.93 1669.78 3141.93 Q1670.17 3141.93 1670.63 3142 Q1671.1 3142.04 1671.66 3142.14 L1671.68 3145.97 Z" fill="#000000" fill-rule="nonzero" fill-opacity="1" /><path clip-path="url(#clip610)" d="M1689.79 3145.92 L1689.79 3133.65 L1693.52 3133.65 L1693.52 3165.17 L1689.79 3165.17 L1689.79 3161.76 Q1688.62 3163.79 1686.82 3164.78 Q1685.03 3165.75 1682.52 3165.75 Q1678.41 3165.75 1675.82 3162.47 Q1673.24 3159.19 1673.24 3153.84 Q1673.24 3148.5 1675.82 3145.22 Q1678.41 3141.93 1682.52 3141.93 Q1685.03 3141.93 1686.82 3142.93 Q1688.62 3143.9 1689.79 3145.92 M1677.09 3153.84 Q1677.09 3157.96 1678.77 3160.31 Q1680.48 3162.63 1683.43 3162.63 Q1686.39 3162.63 1688.09 3160.31 Q1689.79 3157.96 1689.79 3153.84 Q1689.79 3149.73 1688.09 3147.4 Q1686.39 3145.05 1683.43 3145.05 Q1680.48 3145.05 1678.77 3147.4 Q1677.09 3149.73 1677.09 3153.84 Z" fill="#000000" fill-rule="nonzero" fill-opacity="1" /><path clip-path="url(#clip610)" d="M1701.2 3142.48 L1704.92 3142.48 L1704.92 3165.17 L1701.2 3165.17 L1701.2 3142.48 M1701.2 3133.65 L1704.92 3133.65 L1704.92 3138.37 L1701.2 3138.37 L1701.2 3133.65 Z" fill="#000000" fill-rule="nonzero" fill-opacity="1" /><path clip-path="url(#clip610)" d="M1721.51 3145.09 Q1718.51 3145.09 1716.77 3147.44 Q1715.03 3149.77 1715.03 3153.84 Q1715.03 3157.92 1716.75 3160.26 Q1718.49 3162.59 1721.51 3162.59 Q1724.49 3162.59 1726.23 3160.24 Q1727.97 3157.9 1727.97 3153.84 Q1727.97 3149.81 1726.23 3147.46 Q1724.49 3145.09 1721.51 3145.09 M1721.51 3141.93 Q1726.37 3141.93 1729.15 3145.09 Q1731.92 3148.25 1731.92 3153.84 Q1731.92 3159.41 1729.15 3162.59 Q1726.37 3165.75 1721.51 3165.75 Q1716.63 3165.75 1713.85 3162.59 Q1711.1 3159.41 1711.1 3153.84 Q1711.1 3148.25 1713.85 3145.09 Q1716.63 3141.93 1721.51 3141.93 Z" fill="#000000" fill-rule="nonzero" fill-opacity="1" /><path clip-path="url(#clip610)" d="M1755.68 3142.48 L1747.48 3153.52 L1756.11 3165.17 L1751.71 3165.17 L1745.11 3156.25 L1738.5 3165.17 L1734.11 3165.17 L1742.92 3153.3 L1734.86 3142.48 L1739.25 3142.48 L1745.27 3150.56 L1751.29 3142.48 L1755.68 3142.48 Z" fill="#000000" fill-rule="nonzero" fill-opacity="1" /><path clip-path="url(#clip610)" d="M1761.37 3142.48 L1765.1 3142.48 L1765.1 3165.17 L1761.37 3165.17 L1761.37 3142.48 M1761.37 3133.65 L1765.1 3133.65 L1765.1 3138.37 L1761.37 3138.37 L1761.37 3133.65 Z" fill="#000000" fill-rule="nonzero" fill-opacity="1" /><path clip-path="url(#clip610)" d="M1787.82 3145.92 L1787.82 3133.65 L1791.55 3133.65 L1791.55 3165.17 L1787.82 3165.17 L1787.82 3161.76 Q1786.65 3163.79 1784.85 3164.78 Q1783.06 3165.75 1780.55 3165.75 Q1776.44 3165.75 1773.85 3162.47 Q1771.28 3159.19 1771.28 3153.84 Q1771.28 3148.5 1773.85 3145.22 Q1776.44 3141.93 1780.55 3141.93 Q1783.06 3141.93 1784.85 3142.93 Q1786.65 3143.9 1787.82 3145.92 M1775.12 3153.84 Q1775.12 3157.96 1776.81 3160.31 Q1778.51 3162.63 1781.46 3162.63 Q1784.42 3162.63 1786.12 3160.31 Q1787.82 3157.96 1787.82 3153.84 Q1787.82 3149.73 1786.12 3147.4 Q1784.42 3145.05 1781.46 3145.05 Q1778.51 3145.05 1776.81 3147.4 Q1775.12 3149.73 1775.12 3153.84 Z" fill="#000000" fill-rule="nonzero" fill-opacity="1" /><path clip-path="url(#clip610)" d="M1818.63 3152.89 L1818.63 3154.72 L1801.5 3154.72 Q1801.74 3158.56 1803.81 3160.59 Q1805.89 3162.59 1809.6 3162.59 Q1811.75 3162.59 1813.75 3162.07 Q1815.78 3161.54 1817.76 3160.49 L1817.76 3164.01 Q1815.76 3164.86 1813.65 3165.31 Q1811.54 3165.75 1809.38 3165.75 Q1803.95 3165.75 1800.77 3162.59 Q1797.61 3159.43 1797.61 3154.05 Q1797.61 3148.48 1800.61 3145.22 Q1803.62 3141.93 1808.73 3141.93 Q1813.3 3141.93 1815.96 3144.89 Q1818.63 3147.83 1818.63 3152.89 M1814.9 3151.8 Q1814.86 3148.74 1813.18 3146.92 Q1811.52 3145.09 1808.77 3145.09 Q1805.65 3145.09 1803.76 3146.86 Q1801.9 3148.62 1801.62 3151.82 L1814.9 3151.8 Z" fill="#000000" fill-rule="nonzero" fill-opacity="1" /><path clip-path="url(#clip610)" d="M2582.25 2624.47 L2582.25 2612.19 L2585.98 2612.19 L2585.98 2643.71 L2582.25 2643.71 L2582.25 2640.31 Q2581.08 2642.33 2579.28 2643.32 Q2577.49 2644.3 2574.98 2644.3 Q2570.87 2644.3 2568.28 2641.02 Q2565.71 2637.73 2565.71 2632.39 Q2565.71 2627.04 2568.28 2623.76 Q2570.87 2620.48 2574.98 2620.48 Q2577.49 2620.48 2579.28 2621.47 Q2581.08 2622.44 2582.25 2624.47 M2569.55 2632.39 Q2569.55 2636.5 2571.24 2638.85 Q2572.94 2641.18 2575.89 2641.18 Q2578.85 2641.18 2580.55 2638.85 Q2582.25 2636.5 2582.25 2632.39 Q2582.25 2628.28 2580.55 2625.95 Q2578.85 2623.6 2575.89 2623.6 Q2572.94 2623.6 2571.24 2625.95 Q2569.55 2628.28 2569.55 2632.39 Z" fill="#000000" fill-rule="nonzero" fill-opacity="1" /><path clip-path="url(#clip610)" d="M2613.06 2631.44 L2613.06 2633.26 L2595.93 2633.26 Q2596.17 2637.11 2598.24 2639.13 Q2600.32 2641.14 2604.03 2641.14 Q2606.17 2641.14 2608.18 2640.61 Q2610.21 2640.08 2612.19 2639.03 L2612.19 2642.55 Q2610.19 2643.41 2608.08 2643.85 Q2605.97 2644.3 2603.81 2644.3 Q2598.38 2644.3 2595.2 2641.14 Q2592.04 2637.98 2592.04 2632.59 Q2592.04 2627.02 2595.03 2623.76 Q2598.05 2620.48 2603.16 2620.48 Q2607.73 2620.48 2610.39 2623.43 Q2613.06 2626.37 2613.06 2631.44 M2609.33 2630.34 Q2609.29 2627.28 2607.61 2625.46 Q2605.95 2623.64 2603.2 2623.64 Q2600.08 2623.64 2598.19 2625.4 Q2596.33 2627.16 2596.05 2630.36 L2609.33 2630.34 Z" fill="#000000" fill-rule="nonzero" fill-opacity="1" /><path clip-path="url(#clip610)" d="M2638.04 2630.02 L2638.04 2643.71 L2634.31 2643.71 L2634.31 2630.14 Q2634.31 2626.92 2633.05 2625.32 Q2631.8 2623.72 2629.29 2623.72 Q2626.27 2623.72 2624.53 2625.64 Q2622.78 2627.57 2622.78 2630.89 L2622.78 2643.71 L2619.04 2643.71 L2619.04 2621.02 L2622.78 2621.02 L2622.78 2624.55 Q2624.12 2622.5 2625.92 2621.49 Q2627.75 2620.48 2630.12 2620.48 Q2634.02 2620.48 2636.03 2622.91 Q2638.04 2625.32 2638.04 2630.02 Z" fill="#000000" fill-rule="nonzero" fill-opacity="1" /><path clip-path="url(#clip610)" d="M2659.93 2621.69 L2659.93 2625.22 Q2658.35 2624.41 2656.65 2624 Q2654.95 2623.6 2653.12 2623.6 Q2650.35 2623.6 2648.95 2624.45 Q2647.58 2625.3 2647.58 2627 Q2647.58 2628.3 2648.57 2629.05 Q2649.56 2629.77 2652.56 2630.44 L2653.83 2630.73 Q2657.8 2631.58 2659.46 2633.14 Q2661.15 2634.68 2661.15 2637.45 Q2661.15 2640.61 2658.63 2642.45 Q2656.14 2644.3 2651.77 2644.3 Q2649.94 2644.3 2647.96 2643.93 Q2646 2643.59 2643.81 2642.88 L2643.81 2639.03 Q2645.87 2640.1 2647.88 2640.65 Q2649.88 2641.18 2651.85 2641.18 Q2654.48 2641.18 2655.9 2640.29 Q2657.32 2639.37 2657.32 2637.73 Q2657.32 2636.22 2656.28 2635.4 Q2655.27 2634.59 2651.81 2633.85 L2650.51 2633.54 Q2647.05 2632.81 2645.51 2631.31 Q2643.97 2629.79 2643.97 2627.16 Q2643.97 2623.96 2646.24 2622.22 Q2648.51 2620.48 2652.68 2620.48 Q2654.75 2620.48 2656.57 2620.78 Q2658.39 2621.09 2659.93 2621.69 Z" fill="#000000" fill-rule="nonzero" fill-opacity="1" /><path clip-path="url(#clip610)" d="M2667.08 2621.02 L2670.81 2621.02 L2670.81 2643.71 L2667.08 2643.71 L2667.08 2621.02 M2667.08 2612.19 L2670.81 2612.19 L2670.81 2616.91 L2667.08 2616.91 L2667.08 2612.19 Z" fill="#000000" fill-rule="nonzero" fill-opacity="1" /><path clip-path="url(#clip610)" d="M2682.29 2614.58 L2682.29 2621.02 L2689.97 2621.02 L2689.97 2623.92 L2682.29 2623.92 L2682.29 2636.24 Q2682.29 2639.01 2683.04 2639.8 Q2683.81 2640.59 2686.14 2640.59 L2689.97 2640.59 L2689.97 2643.71 L2686.14 2643.71 Q2681.83 2643.71 2680.18 2642.11 Q2678.54 2640.49 2678.54 2636.24 L2678.54 2623.92 L2675.81 2623.92 L2675.81 2621.02 L2678.54 2621.02 L2678.54 2614.58 L2682.29 2614.58 Z" fill="#000000" fill-rule="nonzero" fill-opacity="1" /><path clip-path="url(#clip610)" d="M2704.31 2645.82 Q2702.73 2649.87 2701.23 2651.1 Q2699.73 2652.34 2697.22 2652.34 L2694.24 2652.34 L2694.24 2649.22 L2696.43 2649.22 Q2697.97 2649.22 2698.82 2648.49 Q2699.67 2647.76 2700.7 2645.05 L2701.37 2643.34 L2692.2 2621.02 L2696.15 2621.02 L2703.23 2638.77 L2710.32 2621.02 L2714.27 2621.02 L2704.31 2645.82 Z" fill="#000000" fill-rule="nonzero" fill-opacity="1" /><path clip-path="url(#clip610)" d="M951.843 3091.79 L951.843 3103.82 L948.096 3103.82 L948.096 3072.51 L951.843 3072.51 L951.843 3075.95 Q953.018 3073.92 954.8 3072.95 Q956.603 3071.96 959.094 3071.96 Q963.226 3071.96 965.799 3075.24 Q968.391 3078.52 968.391 3083.87 Q968.391 3089.22 965.799 3092.5 Q963.226 3095.78 959.094 3095.78 Q956.603 3095.78 954.8 3094.81 Q953.018 3093.81 951.843 3091.79 M964.522 3083.87 Q964.522 3079.76 962.821 3077.43 Q961.14 3075.08 958.183 3075.08 Q955.226 3075.08 953.524 3077.43 Q951.843 3079.76 951.843 3083.87 Q951.843 3087.98 953.524 3090.33 Q955.226 3092.66 958.183 3092.66 Q961.14 3092.66 962.821 3090.33 Q964.522 3087.98 964.522 3083.87 Z" fill="#000000" fill-rule="nonzero" fill-opacity="1" /><path clip-path="url(#clip610)" d="M974.731 3064.95 L978.822 3064.95 L978.822 3077.35 L993.689 3077.35 L993.689 3064.95 L997.78 3064.95 L997.78 3095.19 L993.689 3095.19 L993.689 3080.79 L978.822 3080.79 L978.822 3095.19 L974.731 3095.19 L974.731 3064.95 Z" fill="#000000" fill-rule="nonzero" fill-opacity="1" /><path clip-path="url(#clip610)" d="M523.002 2377.38 L523.002 2380.9 Q521.422 2380.09 519.721 2379.69 Q518.019 2379.28 516.196 2379.28 Q513.421 2379.28 512.024 2380.13 Q510.647 2380.98 510.647 2382.68 Q510.647 2383.98 511.639 2384.73 Q512.631 2385.46 515.629 2386.13 L516.905 2386.41 Q520.875 2387.26 522.536 2388.82 Q524.217 2390.36 524.217 2393.14 Q524.217 2396.29 521.705 2398.14 Q519.214 2399.98 514.839 2399.98 Q513.016 2399.98 511.031 2399.62 Q509.067 2399.27 506.879 2398.56 L506.879 2394.72 Q508.945 2395.79 510.95 2396.34 Q512.956 2396.86 514.92 2396.86 Q517.553 2396.86 518.971 2395.97 Q520.389 2395.06 520.389 2393.42 Q520.389 2391.9 519.356 2391.09 Q518.343 2390.28 514.88 2389.53 L513.583 2389.23 Q510.12 2388.5 508.581 2387 Q507.041 2385.48 507.041 2382.85 Q507.041 2379.65 509.31 2377.9 Q511.578 2376.16 515.751 2376.16 Q517.817 2376.16 519.64 2376.47 Q521.462 2376.77 523.002 2377.38 Z" fill="#000000" fill-rule="nonzero" fill-opacity="1" /><path clip-path="url(#clip610)" d="M529.767 2390.44 L529.767 2376.71 L533.494 2376.71 L533.494 2390.3 Q533.494 2393.52 534.749 2395.14 Q536.005 2396.74 538.517 2396.74 Q541.535 2396.74 543.277 2394.82 Q545.039 2392.89 545.039 2389.57 L545.039 2376.71 L548.766 2376.71 L548.766 2399.39 L545.039 2399.39 L545.039 2395.91 Q543.682 2397.98 541.879 2398.99 Q540.097 2399.98 537.727 2399.98 Q533.818 2399.98 531.792 2397.55 Q529.767 2395.12 529.767 2390.44 M539.145 2376.16 L539.145 2376.16 Z" fill="#000000" fill-rule="nonzero" fill-opacity="1" /><path clip-path="url(#clip610)" d="M556.442 2367.88 L560.169 2367.88 L560.169 2399.39 L556.442 2399.39 L556.442 2367.88 Z" fill="#000000" fill-rule="nonzero" fill-opacity="1" /><path clip-path="url(#clip610)" d="M571.572 2395.99 L571.572 2408.02 L567.825 2408.02 L567.825 2376.71 L571.572 2376.71 L571.572 2380.15 Q572.747 2378.13 574.529 2377.15 Q576.332 2376.16 578.823 2376.16 Q582.955 2376.16 585.527 2379.44 Q588.12 2382.72 588.12 2388.07 Q588.12 2393.42 585.527 2396.7 Q582.955 2399.98 578.823 2399.98 Q576.332 2399.98 574.529 2399.01 Q572.747 2398.02 571.572 2395.99 M584.251 2388.07 Q584.251 2383.96 582.55 2381.63 Q580.869 2379.28 577.912 2379.28 Q574.955 2379.28 573.253 2381.63 Q571.572 2383.96 571.572 2388.07 Q571.572 2392.18 573.253 2394.53 Q574.955 2396.86 577.912 2396.86 Q580.869 2396.86 582.55 2394.53 Q584.251 2392.18 584.251 2388.07 Z" fill="#000000" fill-rule="nonzero" fill-opacity="1" /><path clip-path="url(#clip610)" d="M613.155 2385.7 L613.155 2399.39 L609.428 2399.39 L609.428 2385.82 Q609.428 2382.6 608.172 2381 Q606.916 2379.4 604.405 2379.4 Q601.387 2379.4 599.645 2381.33 Q597.903 2383.25 597.903 2386.57 L597.903 2399.39 L594.156 2399.39 L594.156 2367.88 L597.903 2367.88 L597.903 2380.23 Q599.24 2378.19 601.042 2377.17 Q602.865 2376.16 605.235 2376.16 Q609.144 2376.16 611.149 2378.59 Q613.155 2381 613.155 2385.7 Z" fill="#000000" fill-rule="nonzero" fill-opacity="1" /><path clip-path="url(#clip610)" d="M630.898 2387.99 Q626.381 2387.99 624.639 2389.02 Q622.897 2390.06 622.897 2392.55 Q622.897 2394.53 624.193 2395.71 Q625.51 2396.86 627.758 2396.86 Q630.857 2396.86 632.721 2394.67 Q634.604 2392.47 634.604 2388.82 L634.604 2387.99 L630.898 2387.99 M638.331 2386.45 L638.331 2399.39 L634.604 2399.39 L634.604 2395.95 Q633.328 2398.02 631.424 2399.01 Q629.52 2399.98 626.766 2399.98 Q623.282 2399.98 621.216 2398.04 Q619.17 2396.07 619.17 2392.79 Q619.17 2388.96 621.722 2387.02 Q624.295 2385.07 629.379 2385.07 L634.604 2385.07 L634.604 2384.71 Q634.604 2382.14 632.903 2380.74 Q631.222 2379.32 628.163 2379.32 Q626.219 2379.32 624.376 2379.79 Q622.532 2380.25 620.831 2381.19 L620.831 2377.74 Q622.877 2376.95 624.801 2376.57 Q626.725 2376.16 628.548 2376.16 Q633.47 2376.16 635.9 2378.71 Q638.331 2381.27 638.331 2386.45 Z" fill="#000000" fill-rule="nonzero" fill-opacity="1" /><path clip-path="url(#clip610)" d="M649.694 2370.27 L649.694 2376.71 L657.37 2376.71 L657.37 2379.61 L649.694 2379.61 L649.694 2391.92 Q649.694 2394.69 650.443 2395.48 Q651.213 2396.27 653.542 2396.27 L657.37 2396.27 L657.37 2399.39 L653.542 2399.39 Q649.228 2399.39 647.587 2397.79 Q645.947 2396.17 645.947 2391.92 L645.947 2379.61 L643.212 2379.61 L643.212 2376.71 L645.947 2376.71 L645.947 2370.27 L649.694 2370.27 Z" fill="#000000" fill-rule="nonzero" fill-opacity="1" /><path clip-path="url(#clip610)" d="M681.676 2387.12 L681.676 2388.94 L664.54 2388.94 Q664.783 2392.79 666.849 2394.82 Q668.936 2396.82 672.642 2396.82 Q674.789 2396.82 676.794 2396.29 Q678.82 2395.77 680.805 2394.72 L680.805 2398.24 Q678.8 2399.09 676.693 2399.54 Q674.587 2399.98 672.419 2399.98 Q666.991 2399.98 663.811 2396.82 Q660.651 2393.66 660.651 2388.27 Q660.651 2382.7 663.649 2379.44 Q666.667 2376.16 671.771 2376.16 Q676.349 2376.16 679.002 2379.12 Q681.676 2382.06 681.676 2387.12 M677.949 2386.03 Q677.908 2382.97 676.227 2381.14 Q674.566 2379.32 671.812 2379.32 Q668.693 2379.32 666.809 2381.08 Q664.945 2382.85 664.662 2386.05 L677.949 2386.03 Z" fill="#000000" fill-rule="nonzero" fill-opacity="1" /><path clip-path="url(#clip610)" d="M702.254 2377.38 L702.254 2380.9 Q700.674 2380.09 698.973 2379.69 Q697.272 2379.28 695.449 2379.28 Q692.674 2379.28 691.276 2380.13 Q689.899 2380.98 689.899 2382.68 Q689.899 2383.98 690.891 2384.73 Q691.884 2385.46 694.882 2386.13 L696.158 2386.41 Q700.128 2387.26 701.788 2388.82 Q703.47 2390.36 703.47 2393.14 Q703.47 2396.29 700.958 2398.14 Q698.467 2399.98 694.092 2399.98 Q692.269 2399.98 690.284 2399.62 Q688.319 2399.27 686.132 2398.56 L686.132 2394.72 Q688.198 2395.79 690.203 2396.34 Q692.208 2396.86 694.173 2396.86 Q696.806 2396.86 698.224 2395.97 Q699.641 2395.06 699.641 2393.42 Q699.641 2391.9 698.608 2391.09 Q697.596 2390.28 694.132 2389.53 L692.836 2389.23 Q689.372 2388.5 687.833 2387 Q686.294 2385.48 686.294 2382.85 Q686.294 2379.65 688.562 2377.9 Q690.831 2376.16 695.003 2376.16 Q697.069 2376.16 698.892 2376.47 Q700.715 2376.77 702.254 2377.38 Z" fill="#000000" fill-rule="nonzero" fill-opacity="1" /><path clip-path="url(#clip610)" d="M2585.77 1469.72 Q2581.25 1469.72 2579.51 1470.75 Q2577.77 1471.78 2577.77 1474.28 Q2577.77 1476.26 2579.07 1477.44 Q2580.38 1478.59 2582.63 1478.59 Q2585.73 1478.59 2587.59 1476.4 Q2589.48 1474.2 2589.48 1470.55 L2589.48 1469.72 L2585.77 1469.72 M2593.2 1468.18 L2593.2 1481.12 L2589.48 1481.12 L2589.48 1477.68 Q2588.2 1479.74 2586.3 1480.74 Q2584.39 1481.71 2581.64 1481.71 Q2578.15 1481.71 2576.09 1479.77 Q2574.04 1477.8 2574.04 1474.52 Q2574.04 1470.69 2576.59 1468.75 Q2579.17 1466.8 2584.25 1466.8 L2589.48 1466.8 L2589.48 1466.44 Q2589.48 1463.87 2587.77 1462.47 Q2586.09 1461.05 2583.04 1461.05 Q2581.09 1461.05 2579.25 1461.52 Q2577.4 1461.98 2575.7 1462.91 L2575.7 1459.47 Q2577.75 1458.68 2579.67 1458.3 Q2581.6 1457.89 2583.42 1457.89 Q2588.34 1457.89 2590.77 1460.44 Q2593.2 1462.99 2593.2 1468.18 Z" fill="#000000" fill-rule="nonzero" fill-opacity="1" /><path clip-path="url(#clip610)" d="M2600.88 1449.61 L2604.61 1449.61 L2604.61 1481.12 L2600.88 1481.12 L2600.88 1449.61 Z" fill="#000000" fill-rule="nonzero" fill-opacity="1" /><path clip-path="url(#clip610)" d="M2628.73 1459.31 L2628.73 1462.79 Q2627.15 1461.92 2625.55 1461.5 Q2623.97 1461.05 2622.35 1461.05 Q2618.72 1461.05 2616.72 1463.36 Q2614.71 1465.65 2614.71 1469.8 Q2614.71 1473.95 2616.72 1476.26 Q2618.72 1478.55 2622.35 1478.55 Q2623.97 1478.55 2625.55 1478.12 Q2627.15 1477.68 2628.73 1476.81 L2628.73 1480.25 Q2627.17 1480.98 2625.49 1481.35 Q2623.83 1481.71 2621.94 1481.71 Q2616.82 1481.71 2613.8 1478.49 Q2610.78 1475.27 2610.78 1469.8 Q2610.78 1464.25 2613.82 1461.07 Q2616.88 1457.89 2622.19 1457.89 Q2623.91 1457.89 2625.55 1458.25 Q2627.19 1458.6 2628.73 1459.31 Z" fill="#000000" fill-rule="nonzero" fill-opacity="1" /><path clip-path="url(#clip610)" d="M2644 1461.05 Q2641 1461.05 2639.26 1463.4 Q2637.52 1465.73 2637.52 1469.8 Q2637.52 1473.87 2639.24 1476.22 Q2640.98 1478.55 2644 1478.55 Q2646.98 1478.55 2648.72 1476.2 Q2650.46 1473.85 2650.46 1469.8 Q2650.46 1465.77 2648.72 1463.42 Q2646.98 1461.05 2644 1461.05 M2644 1457.89 Q2648.86 1457.89 2651.64 1461.05 Q2654.41 1464.21 2654.41 1469.8 Q2654.41 1475.37 2651.64 1478.55 Q2648.86 1481.71 2644 1481.71 Q2639.12 1481.71 2636.35 1478.55 Q2633.59 1475.37 2633.59 1469.8 Q2633.59 1464.21 2636.35 1461.05 Q2639.12 1457.89 2644 1457.89 Z" fill="#000000" fill-rule="nonzero" fill-opacity="1" /><path clip-path="url(#clip610)" d="M2679.45 1467.43 L2679.45 1481.12 L2675.72 1481.12 L2675.72 1467.55 Q2675.72 1464.33 2674.46 1462.73 Q2673.21 1461.13 2670.7 1461.13 Q2667.68 1461.13 2665.94 1463.06 Q2664.2 1464.98 2664.2 1468.3 L2664.2 1481.12 L2660.45 1481.12 L2660.45 1449.61 L2664.2 1449.61 L2664.2 1461.96 Q2665.53 1459.92 2667.33 1458.9 Q2669.16 1457.89 2671.53 1457.89 Q2675.44 1457.89 2677.44 1460.32 Q2679.45 1462.73 2679.45 1467.43 Z" fill="#000000" fill-rule="nonzero" fill-opacity="1" /><path clip-path="url(#clip610)" d="M2695.67 1461.05 Q2692.67 1461.05 2690.93 1463.4 Q2689.19 1465.73 2689.19 1469.8 Q2689.19 1473.87 2690.91 1476.22 Q2692.65 1478.55 2695.67 1478.55 Q2698.65 1478.55 2700.39 1476.2 Q2702.13 1473.85 2702.13 1469.8 Q2702.13 1465.77 2700.39 1463.42 Q2698.65 1461.05 2695.67 1461.05 M2695.67 1457.89 Q2700.53 1457.89 2703.31 1461.05 Q2706.08 1464.21 2706.08 1469.8 Q2706.08 1475.37 2703.31 1478.55 Q2700.53 1481.71 2695.67 1481.71 Q2690.79 1481.71 2688.01 1478.55 Q2685.26 1475.37 2685.26 1469.8 Q2685.26 1464.21 2688.01 1461.05 Q2690.79 1457.89 2695.67 1457.89 Z" fill="#000000" fill-rule="nonzero" fill-opacity="1" /><path clip-path="url(#clip610)" d="M2712.26 1449.61 L2715.99 1449.61 L2715.99 1481.12 L2712.26 1481.12 L2712.26 1449.61 Z" fill="#000000" fill-rule="nonzero" fill-opacity="1" /><path clip-path="url(#clip610)" d="M3329.48 813.79 Q3329.48 817.902 3331.17 820.251 Q3332.87 822.581 3335.82 822.581 Q3338.78 822.581 3340.48 820.251 Q3342.18 817.902 3342.18 813.79 Q3342.18 809.678 3340.48 807.349 Q3338.78 805 3335.82 805 Q3332.87 805 3331.17 807.349 Q3329.48 809.678 3329.48 813.79 M3342.18 821.71 Q3341.01 823.735 3339.21 824.728 Q3337.42 825.7 3334.91 825.7 Q3330.8 825.7 3328.21 822.419 Q3325.64 819.137 3325.64 813.79 Q3325.64 808.443 3328.21 805.162 Q3330.8 801.88 3334.91 801.88 Q3337.42 801.88 3339.21 802.873 Q3341.01 803.845 3342.18 805.871 L3342.18 802.427 L3345.91 802.427 L3345.91 833.741 L3342.18 833.741 L3342.18 821.71 Z" fill="#000000" fill-rule="nonzero" fill-opacity="1" /><path clip-path="url(#clip610)" d="M3353.2 816.16 L3353.2 802.427 L3356.93 802.427 L3356.93 816.018 Q3356.93 819.239 3358.19 820.859 Q3359.44 822.459 3361.95 822.459 Q3364.97 822.459 3366.71 820.535 Q3368.47 818.611 3368.47 815.289 L3368.47 802.427 L3372.2 802.427 L3372.2 825.112 L3368.47 825.112 L3368.47 821.629 Q3367.12 823.695 3365.31 824.707 Q3363.53 825.7 3361.16 825.7 Q3357.25 825.7 3355.23 823.269 Q3353.2 820.839 3353.2 816.16 M3362.58 801.88 L3362.58 801.88 Z" fill="#000000" fill-rule="nonzero" fill-opacity="1" /><path clip-path="url(#clip610)" d="M3390.19 813.709 Q3385.67 813.709 3383.93 814.742 Q3382.19 815.775 3382.19 818.266 Q3382.19 820.251 3383.48 821.426 Q3384.8 822.581 3387.05 822.581 Q3390.15 822.581 3392.01 820.393 Q3393.89 818.185 3393.89 814.54 L3393.89 813.709 L3390.19 813.709 M3397.62 812.17 L3397.62 825.112 L3393.89 825.112 L3393.89 821.669 Q3392.62 823.735 3390.71 824.728 Q3388.81 825.7 3386.06 825.7 Q3382.57 825.7 3380.51 823.755 Q3378.46 821.791 3378.46 818.509 Q3378.46 814.681 3381.01 812.737 Q3383.58 810.792 3388.67 810.792 L3393.89 810.792 L3393.89 810.428 Q3393.89 807.856 3392.19 806.458 Q3390.51 805.04 3387.45 805.04 Q3385.51 805.04 3383.67 805.506 Q3381.82 805.972 3380.12 806.904 L3380.12 803.46 Q3382.17 802.67 3384.09 802.286 Q3386.01 801.88 3387.84 801.88 Q3392.76 801.88 3395.19 804.433 Q3397.62 806.985 3397.62 812.17 Z" fill="#000000" fill-rule="nonzero" fill-opacity="1" /><path clip-path="url(#clip610)" d="M3405.3 793.596 L3409.02 793.596 L3409.02 825.112 L3405.3 825.112 L3405.3 793.596 Z" fill="#000000" fill-rule="nonzero" fill-opacity="1" /><path clip-path="url(#clip610)" d="M3416.82 802.427 L3420.55 802.427 L3420.55 825.112 L3416.82 825.112 L3416.82 802.427 M3416.82 793.596 L3420.55 793.596 L3420.55 798.316 L3416.82 798.316 L3416.82 793.596 Z" fill="#000000" fill-rule="nonzero" fill-opacity="1" /><path clip-path="url(#clip610)" d="M3432.03 795.986 L3432.03 802.427 L3439.71 802.427 L3439.71 805.324 L3432.03 805.324 L3432.03 817.638 Q3432.03 820.413 3432.78 821.203 Q3433.55 821.993 3435.88 821.993 L3439.71 821.993 L3439.71 825.112 L3435.88 825.112 Q3431.57 825.112 3429.93 823.512 Q3428.29 821.892 3428.29 817.638 L3428.29 805.324 L3425.55 805.324 L3425.55 802.427 L3428.29 802.427 L3428.29 795.986 L3432.03 795.986 Z" fill="#000000" fill-rule="nonzero" fill-opacity="1" /><path clip-path="url(#clip610)" d="M3454.05 827.219 Q3452.47 831.27 3450.97 832.505 Q3449.47 833.741 3446.96 833.741 L3443.98 833.741 L3443.98 830.622 L3446.17 830.622 Q3447.71 830.622 3448.56 829.892 Q3449.41 829.163 3450.44 826.449 L3451.11 824.748 L3441.94 802.427 L3445.89 802.427 L3452.98 820.17 L3460.07 802.427 L3464.02 802.427 L3454.05 827.219 Z" fill="#000000" fill-rule="nonzero" fill-opacity="1" /></svg>
