<?xml version="1.0" encoding="utf-8"?>
<svg xmlns="http://www.w3.org/2000/svg" xmlns:xlink="http://www.w3.org/1999/xlink" width="1000" height="1000" viewBox="0 0 4000 4000">
<defs>
  <clipPath id="clip480">
    <rect x="0" y="0" width="4000" height="4000"/>
  </clipPath>
</defs>
<path clip-path="url(#clip480)" d="M0 4000 L4000 4000 L4000 0 L0 0  Z" fill="#ffffff" fill-rule="evenodd" fill-opacity="1"/>
<defs>
  <clipPath id="clip481">
    <rect x="800" y="400" width="2801" height="2801"/>
  </clipPath>
</defs>
<path clip-path="url(#clip480)" d="M47.2441 3952.76 L3952.76 3952.76 L3952.76 47.2441 L47.2441 47.2441  Z" fill="#ffffff" fill-rule="evenodd" fill-opacity="1"/>
<defs>
  <clipPath id="clip482">
    <rect x="47" y="47" width="3907" height="3907"/>
  </clipPath>
</defs>
<polyline clip-path="url(#clip482)" style="stroke:#000000; stroke-linecap:round; stroke-linejoin:round; stroke-width:4; stroke-opacity:1; fill:none" points="1958.4,836.892 1451.54,1967.79 "/>
<polyline clip-path="url(#clip482)" style="stroke:#000000; stroke-linecap:round; stroke-linejoin:round; stroke-width:4; stroke-opacity:1; fill:none" points="1503.45,1925.31 1451.54,1967.79 1448.7,1900.77 "/>
<polyline clip-path="url(#clip482)" style="stroke:#000000; stroke-linecap:round; stroke-linejoin:round; stroke-width:4; stroke-opacity:1; fill:none" points="1451.54,1967.79 1958.4,836.892 "/>
<polyline clip-path="url(#clip482)" style="stroke:#000000; stroke-linecap:round; stroke-linejoin:round; stroke-width:4; stroke-opacity:1; fill:none" points="1958.4,836.892 2689.05,1607.25 "/>
<polyline clip-path="url(#clip482)" style="stroke:#000000; stroke-linecap:round; stroke-linejoin:round; stroke-width:4; stroke-opacity:1; fill:none" points="2669.53,1543.07 2689.05,1607.25 2626,1584.36 "/>
<polyline clip-path="url(#clip482)" style="stroke:#000000; stroke-linecap:round; stroke-linejoin:round; stroke-width:4; stroke-opacity:1; fill:none" points="2689.05,1607.25 1958.4,836.892 "/>
<polyline clip-path="url(#clip482)" style="stroke:#000000; stroke-linecap:round; stroke-linejoin:round; stroke-width:4; stroke-opacity:1; fill:none" points="3155.41,2620.27 2748.4,1674.73 "/>
<polyline clip-path="url(#clip482)" style="stroke:#000000; stroke-linecap:round; stroke-linejoin:round; stroke-width:4; stroke-opacity:1; fill:none" points="2744.57,1741.7 2748.4,1674.73 2799.68,1717.98 "/>
<polyline clip-path="url(#clip482)" style="stroke:#000000; stroke-linecap:round; stroke-linejoin:round; stroke-width:4; stroke-opacity:1; fill:none" points="2748.4,1674.73 3155.41,2620.27 "/>
<polyline clip-path="url(#clip482)" style="stroke:#000000; stroke-linecap:round; stroke-linejoin:round; stroke-width:4; stroke-opacity:1; fill:none" points="3155.41,2620.27 2290.8,2639.39 "/>
<polyline clip-path="url(#clip482)" style="stroke:#000000; stroke-linecap:round; stroke-linejoin:round; stroke-width:4; stroke-opacity:1; fill:none" points="2351.45,2668.06 2290.8,2639.39 2350.12,2608.07 "/>
<polyline clip-path="url(#clip482)" style="stroke:#000000; stroke-linecap:round; stroke-linejoin:round; stroke-width:4; stroke-opacity:1; fill:none" points="2290.8,2639.39 3155.41,2620.27 "/>
<polyline clip-path="url(#clip482)" style="stroke:#000000; stroke-linecap:round; stroke-linejoin:round; stroke-width:4; stroke-opacity:1; fill:none" points="3394.83,605.174 2777.35,1607.25 "/>
<polyline clip-path="url(#clip482)" style="stroke:#000000; stroke-linecap:round; stroke-linejoin:round; stroke-width:4; stroke-opacity:1; fill:none" points="2834.36,1571.9 2777.35,1607.25 2783.28,1540.43 "/>
<polyline clip-path="url(#clip482)" style="stroke:#000000; stroke-linecap:round; stroke-linejoin:round; stroke-width:4; stroke-opacity:1; fill:none" points="2777.35,1607.25 3394.83,605.174 "/>
<polyline clip-path="url(#clip482)" style="stroke:#000000; stroke-linecap:round; stroke-linejoin:round; stroke-width:4; stroke-opacity:1; fill:none" points="1426.25,2001.53 2138.43,2585.12 "/>
<polyline clip-path="url(#clip482)" style="stroke:#000000; stroke-linecap:round; stroke-linejoin:round; stroke-width:4; stroke-opacity:1; fill:none" points="2111.04,2523.89 2138.43,2585.12 2073.01,2570.3 "/>
<polyline clip-path="url(#clip482)" style="stroke:#000000; stroke-linecap:round; stroke-linejoin:round; stroke-width:4; stroke-opacity:1; fill:none" points="2138.43,2585.12 1426.25,2001.53 "/>
<polyline clip-path="url(#clip482)" style="stroke:#000000; stroke-linecap:round; stroke-linejoin:round; stroke-width:4; stroke-opacity:1; fill:none" points="1426.25,2001.53 820.59,2246.53 "/>
<polyline clip-path="url(#clip482)" style="stroke:#000000; stroke-linecap:round; stroke-linejoin:round; stroke-width:4; stroke-opacity:1; fill:none" points="887.461,2251.84 820.59,2246.53 864.962,2196.22 "/>
<polyline clip-path="url(#clip482)" style="stroke:#000000; stroke-linecap:round; stroke-linejoin:round; stroke-width:4; stroke-opacity:1; fill:none" points="820.59,2246.53 1426.25,2001.53 "/>
<polyline clip-path="url(#clip482)" style="stroke:#000000; stroke-linecap:round; stroke-linejoin:round; stroke-width:4; stroke-opacity:1; fill:none" points="2743.6,1640.99 2245.62,2582.72 "/>
<polyline clip-path="url(#clip482)" style="stroke:#000000; stroke-linecap:round; stroke-linejoin:round; stroke-width:4; stroke-opacity:1; fill:none" points="2300.19,2543.71 2245.62,2582.72 2247.15,2515.66 "/>
<polyline clip-path="url(#clip482)" style="stroke:#000000; stroke-linecap:round; stroke-linejoin:round; stroke-width:4; stroke-opacity:1; fill:none" points="2245.62,2582.72 2743.6,1640.99 "/>
<polyline clip-path="url(#clip482)" style="stroke:#000000; stroke-linecap:round; stroke-linejoin:round; stroke-width:4; stroke-opacity:1; fill:none" points="2743.6,1640.99 2690.09,3361.08 "/>
<polyline clip-path="url(#clip482)" style="stroke:#000000; stroke-linecap:round; stroke-linejoin:round; stroke-width:4; stroke-opacity:1; fill:none" points="2721.94,3302.04 2690.09,3361.08 2661.97,3300.18 "/>
<polyline clip-path="url(#clip482)" style="stroke:#000000; stroke-linecap:round; stroke-linejoin:round; stroke-width:4; stroke-opacity:1; fill:none" points="2690.09,3361.08 2743.6,1640.99 "/>
<polyline clip-path="url(#clip482)" style="stroke:#000000; stroke-linecap:round; stroke-linejoin:round; stroke-width:4; stroke-opacity:1; fill:none" points="2214.61,2616.47 2645.88,3361.08 "/>
<polyline clip-path="url(#clip482)" style="stroke:#000000; stroke-linecap:round; stroke-linejoin:round; stroke-width:4; stroke-opacity:1; fill:none" points="2641.77,3294.13 2645.88,3361.08 2589.85,3324.2 "/>
<polyline clip-path="url(#clip482)" style="stroke:#000000; stroke-linecap:round; stroke-linejoin:round; stroke-width:4; stroke-opacity:1; fill:none" points="2645.88,3361.08 2214.61,2616.47 "/>
<path clip-path="url(#clip482)" d="M1882.21 870.636 L2034.58 870.636 L2034.58 803.149 L1882.21 803.149 L1882.21 870.636 L1882.21 870.636  Z" fill="#009af9" fill-rule="evenodd" fill-opacity="1"/>
<polyline clip-path="url(#clip482)" style="stroke:#000000; stroke-linecap:round; stroke-linejoin:round; stroke-width:4; stroke-opacity:1; fill:none" points="1882.21,870.636 2034.58,870.636 2034.58,803.149 1882.21,803.149 1882.21,870.636 "/>
<path clip-path="url(#clip482)" d="M2924.46 2654.01 L3386.35 2654.01 L3386.35 2586.53 L2924.46 2586.53 L2924.46 2654.01 L2924.46 2654.01  Z" fill="#009af9" fill-rule="evenodd" fill-opacity="1"/>
<polyline clip-path="url(#clip482)" style="stroke:#000000; stroke-linecap:round; stroke-linejoin:round; stroke-width:4; stroke-opacity:1; fill:none" points="2924.46,2654.01 3386.35,2654.01 3386.35,2586.53 2924.46,2586.53 2924.46,2654.01 "/>
<path clip-path="url(#clip482)" d="M3298.93 638.918 L3490.72 638.918 L3490.72 571.431 L3298.93 571.431 L3298.93 638.918 L3298.93 638.918  Z" fill="#009af9" fill-rule="evenodd" fill-opacity="1"/>
<polyline clip-path="url(#clip482)" style="stroke:#000000; stroke-linecap:round; stroke-linejoin:round; stroke-width:4; stroke-opacity:1; fill:none" points="3298.93,638.918 3490.72,638.918 3490.72,571.431 3298.93,571.431 3298.93,638.918 "/>
<path clip-path="url(#clip482)" d="M1106.82 2035.27 L1745.69 2035.27 L1745.69 1967.79 L1106.82 1967.79 L1106.82 2035.27 L1106.82 2035.27  Z" fill="#009af9" fill-rule="evenodd" fill-opacity="1"/>
<polyline clip-path="url(#clip482)" style="stroke:#000000; stroke-linecap:round; stroke-linejoin:round; stroke-width:4; stroke-opacity:1; fill:none" points="1106.82,2035.27 1745.69,2035.27 1745.69,1967.79 1106.82,1967.79 1106.82,2035.27 "/>
<path clip-path="url(#clip482)" d="M2482.34 1674.73 L3004.86 1674.73 L3004.86 1607.25 L2482.34 1607.25 L2482.34 1674.73 L2482.34 1674.73  Z" fill="#009af9" fill-rule="evenodd" fill-opacity="1"/>
<polyline clip-path="url(#clip482)" style="stroke:#000000; stroke-linecap:round; stroke-linejoin:round; stroke-width:4; stroke-opacity:1; fill:none" points="2482.34,1674.73 3004.86,1674.73 3004.86,1607.25 2482.34,1607.25 2482.34,1674.73 "/>
<path clip-path="url(#clip482)" d="M2138.43 2650.21 L2290.8 2650.21 L2290.8 2582.72 L2138.43 2582.72 L2138.43 2650.21 L2138.43 2650.21  Z" fill="#009af9" fill-rule="evenodd" fill-opacity="1"/>
<polyline clip-path="url(#clip482)" style="stroke:#000000; stroke-linecap:round; stroke-linejoin:round; stroke-width:4; stroke-opacity:1; fill:none" points="2138.43,2650.21 2290.8,2650.21 2290.8,2582.72 2138.43,2582.72 2138.43,2650.21 "/>
<path clip-path="url(#clip482)" d="M389.759 2273.03 L820.59 2273.03 L820.59 2205.54 L389.759 2205.54 L389.759 2273.03 L389.759 2273.03  Z" fill="#009af9" fill-rule="evenodd" fill-opacity="1"/>
<polyline clip-path="url(#clip482)" style="stroke:#000000; stroke-linecap:round; stroke-linejoin:round; stroke-width:4; stroke-opacity:1; fill:none" points="389.759,2273.03 820.59,2273.03 820.59,2205.54 389.759,2205.54 389.759,2273.03 "/>
<path clip-path="url(#clip482)" d="M2516.57 3428.57 L2850.51 3428.57 L2850.51 3361.08 L2516.57 3361.08 L2516.57 3428.57 L2516.57 3428.57  Z" fill="#009af9" fill-rule="evenodd" fill-opacity="1"/>
<polyline clip-path="url(#clip482)" style="stroke:#000000; stroke-linecap:round; stroke-linejoin:round; stroke-width:4; stroke-opacity:1; fill:none" points="2516.57,3428.57 2850.51,3428.57 2850.51,3361.08 2516.57,3361.08 2516.57,3428.57 "/>
<circle clip-path="url(#clip482)" style="fill:#009af9; stroke:none; fill-opacity:0" cx="1958.4" cy="836.892" r="2"/>
<circle clip-path="url(#clip482)" style="fill:#009af9; stroke:none; fill-opacity:0" cx="3155.41" cy="2620.27" r="2"/>
<circle clip-path="url(#clip482)" style="fill:#009af9; stroke:none; fill-opacity:0" cx="3394.83" cy="605.174" r="2"/>
<circle clip-path="url(#clip482)" style="fill:#009af9; stroke:none; fill-opacity:0" cx="1426.25" cy="2001.53" r="2"/>
<circle clip-path="url(#clip482)" style="fill:#009af9; stroke:none; fill-opacity:0" cx="2743.6" cy="1640.99" r="2"/>
<circle clip-path="url(#clip482)" style="fill:#009af9; stroke:none; fill-opacity:0" cx="2214.61" cy="2616.47" r="2"/>
<circle clip-path="url(#clip482)" style="fill:#009af9; stroke:none; fill-opacity:0" cx="605.174" cy="2239.29" r="2"/>
<circle clip-path="url(#clip482)" style="fill:#009af9; stroke:none; fill-opacity:0" cx="2683.54" cy="3394.83" r="2"/>
<path clip-path="url(#clip480)" d="M1933.84 840.609 Q1929.32 840.609 1927.58 841.642 Q1925.84 842.675 1925.84 845.166 Q1925.84 847.151 1927.13 848.326 Q1928.45 849.481 1930.7 849.481 Q1933.8 849.481 1935.66 847.293 Q1937.54 845.085 1937.54 841.44 L1937.54 840.609 L1933.84 840.609 M1941.27 839.07 L1941.27 852.012 L1937.54 852.012 L1937.54 848.569 Q1936.27 850.635 1934.36 851.628 Q1932.46 852.6 1929.71 852.6 Q1926.22 852.6 1924.16 850.655 Q1922.11 848.691 1922.11 845.409 Q1922.11 841.581 1924.66 839.637 Q1927.23 837.692 1932.32 837.692 L1937.54 837.692 L1937.54 837.328 Q1937.54 834.756 1935.84 833.358 Q1934.16 831.94 1931.1 831.94 Q1929.16 831.94 1927.31 832.406 Q1925.47 832.872 1923.77 833.804 L1923.77 830.36 Q1925.82 829.57 1927.74 829.186 Q1929.66 828.78 1931.49 828.78 Q1936.41 828.78 1938.84 831.333 Q1941.27 833.885 1941.27 839.07 Z" fill="#000000" fill-rule="nonzero" fill-opacity="1" /><path clip-path="url(#clip480)" d="M1963.87 840.407 Q1963.87 836.356 1962.19 834.128 Q1960.53 831.9 1957.51 831.9 Q1954.52 831.9 1952.84 834.128 Q1951.17 836.356 1951.17 840.407 Q1951.17 844.437 1952.84 846.665 Q1954.52 848.893 1957.51 848.893 Q1960.53 848.893 1962.19 846.665 Q1963.87 844.437 1963.87 840.407 M1967.6 849.197 Q1967.6 854.99 1965.03 857.805 Q1962.46 860.641 1957.15 860.641 Q1955.19 860.641 1953.44 860.337 Q1951.7 860.053 1950.06 859.446 L1950.06 855.82 Q1951.7 856.711 1953.3 857.137 Q1954.9 857.562 1956.56 857.562 Q1960.23 857.562 1962.05 855.638 Q1963.87 853.734 1963.87 849.865 L1963.87 848.022 Q1962.72 850.027 1960.92 851.02 Q1959.11 852.012 1956.6 852.012 Q1952.43 852.012 1949.88 848.832 Q1947.33 845.652 1947.33 840.407 Q1947.33 835.14 1949.88 831.96 Q1952.43 828.78 1956.6 828.78 Q1959.11 828.78 1960.92 829.773 Q1962.72 830.765 1963.87 832.771 L1963.87 829.327 L1967.6 829.327 L1967.6 849.197 Z" fill="#000000" fill-rule="nonzero" fill-opacity="1" /><path clip-path="url(#clip480)" d="M1994.68 839.738 L1994.68 841.561 L1977.55 841.561 Q1977.79 845.409 1979.86 847.435 Q1981.94 849.44 1985.65 849.44 Q1987.79 849.44 1989.8 848.913 Q1991.83 848.387 1993.81 847.334 L1993.81 850.858 Q1991.81 851.709 1989.7 852.154 Q1987.59 852.6 1985.43 852.6 Q1980 852.6 1976.82 849.44 Q1973.66 846.28 1973.66 840.893 Q1973.66 835.323 1976.66 832.062 Q1979.67 828.78 1984.78 828.78 Q1989.35 828.78 1992.01 831.738 Q1994.68 834.675 1994.68 839.738 M1990.95 838.644 Q1990.91 835.586 1989.23 833.763 Q1987.57 831.94 1984.82 831.94 Q1981.7 831.94 1979.81 833.702 Q1977.95 835.464 1977.67 838.665 L1990.95 838.644 Z" fill="#000000" fill-rule="nonzero" fill-opacity="1" /><path clip-path="url(#clip480)" d="M3015.84 2631.99 L3015.84 2644.02 L3012.1 2644.02 L3012.1 2612.7 L3015.84 2612.7 L3015.84 2616.15 Q3017.02 2614.12 3018.8 2613.15 Q3020.6 2612.16 3023.09 2612.16 Q3027.23 2612.16 3029.8 2615.44 Q3032.39 2618.72 3032.39 2624.07 Q3032.39 2629.41 3029.8 2632.7 Q3027.23 2635.98 3023.09 2635.98 Q3020.6 2635.98 3018.8 2635.01 Q3017.02 2634.01 3015.84 2631.99 M3028.52 2624.07 Q3028.52 2619.96 3026.82 2617.63 Q3025.14 2615.28 3022.18 2615.28 Q3019.22 2615.28 3017.52 2617.63 Q3015.84 2619.96 3015.84 2624.07 Q3015.84 2628.18 3017.52 2630.53 Q3019.22 2632.86 3022.18 2632.86 Q3025.14 2632.86 3026.82 2630.53 Q3028.52 2628.18 3028.52 2624.07 Z" fill="#000000" fill-rule="nonzero" fill-opacity="1" /><path clip-path="url(#clip480)" d="M3047.36 2615.32 Q3044.36 2615.32 3042.62 2617.67 Q3040.88 2620 3040.88 2624.07 Q3040.88 2628.14 3042.6 2630.49 Q3044.34 2632.82 3047.36 2632.82 Q3050.34 2632.82 3052.08 2630.47 Q3053.82 2628.12 3053.82 2624.07 Q3053.82 2620.04 3052.08 2617.69 Q3050.34 2615.32 3047.36 2615.32 M3047.36 2612.16 Q3052.22 2612.16 3054.99 2615.32 Q3057.77 2618.48 3057.77 2624.07 Q3057.77 2629.64 3054.99 2632.82 Q3052.22 2635.98 3047.36 2635.98 Q3042.48 2635.98 3039.7 2632.82 Q3036.95 2629.64 3036.95 2624.07 Q3036.95 2618.48 3039.7 2615.32 Q3042.48 2612.16 3047.36 2612.16 Z" fill="#000000" fill-rule="nonzero" fill-opacity="1" /><path clip-path="url(#clip480)" d="M3077.09 2616.19 Q3076.46 2615.82 3075.71 2615.66 Q3074.99 2615.48 3074.09 2615.48 Q3070.93 2615.48 3069.23 2617.55 Q3067.55 2619.59 3067.55 2623.44 L3067.55 2635.39 L3063.8 2635.39 L3063.8 2612.7 L3067.55 2612.7 L3067.55 2616.23 Q3068.73 2614.16 3070.61 2613.17 Q3072.49 2612.16 3075.19 2612.16 Q3075.57 2612.16 3076.04 2612.22 Q3076.5 2612.26 3077.07 2612.36 L3077.09 2616.19 Z" fill="#000000" fill-rule="nonzero" fill-opacity="1" /><path clip-path="url(#clip480)" d="M3084.69 2606.26 L3084.69 2612.7 L3092.36 2612.7 L3092.36 2615.6 L3084.69 2615.6 L3084.69 2627.92 Q3084.69 2630.69 3085.44 2631.48 Q3086.21 2632.27 3088.54 2632.27 L3092.36 2632.27 L3092.36 2635.39 L3088.54 2635.39 Q3084.22 2635.39 3082.58 2633.79 Q3080.94 2632.17 3080.94 2627.92 L3080.94 2615.6 L3078.21 2615.6 L3078.21 2612.7 L3080.94 2612.7 L3080.94 2606.26 L3084.69 2606.26 Z" fill="#000000" fill-rule="nonzero" fill-opacity="1" /><path clip-path="url(#clip480)" d="M3116.67 2623.12 L3116.67 2624.94 L3099.53 2624.94 Q3099.78 2628.79 3101.84 2630.81 Q3103.93 2632.82 3107.64 2632.82 Q3109.78 2632.82 3111.79 2632.29 Q3113.81 2631.76 3115.8 2630.71 L3115.8 2634.24 Q3113.79 2635.09 3111.69 2635.53 Q3109.58 2635.98 3107.41 2635.98 Q3101.98 2635.98 3098.8 2632.82 Q3095.65 2629.66 3095.65 2624.27 Q3095.65 2618.7 3098.64 2615.44 Q3101.66 2612.16 3106.76 2612.16 Q3111.34 2612.16 3114 2615.12 Q3116.67 2618.05 3116.67 2623.12 M3112.94 2622.02 Q3112.9 2618.96 3111.22 2617.14 Q3109.56 2615.32 3106.81 2615.32 Q3103.69 2615.32 3101.8 2617.08 Q3099.94 2618.84 3099.66 2622.04 L3112.94 2622.02 Z" fill="#000000" fill-rule="nonzero" fill-opacity="1" /><path clip-path="url(#clip480)" d="M3140.45 2617.06 Q3141.85 2614.55 3143.79 2613.35 Q3145.73 2612.16 3148.37 2612.16 Q3151.91 2612.16 3153.84 2614.65 Q3155.76 2617.12 3155.76 2621.7 L3155.76 2635.39 L3152.01 2635.39 L3152.01 2621.82 Q3152.01 2618.56 3150.86 2616.98 Q3149.7 2615.4 3147.33 2615.4 Q3144.44 2615.4 3142.76 2617.32 Q3141.08 2619.25 3141.08 2622.57 L3141.08 2635.39 L3137.33 2635.39 L3137.33 2621.82 Q3137.33 2618.54 3136.17 2616.98 Q3135.02 2615.4 3132.61 2615.4 Q3129.75 2615.4 3128.07 2617.34 Q3126.39 2619.27 3126.39 2622.57 L3126.39 2635.39 L3122.64 2635.39 L3122.64 2612.7 L3126.39 2612.7 L3126.39 2616.23 Q3127.67 2614.14 3129.45 2613.15 Q3131.23 2612.16 3133.68 2612.16 Q3136.15 2612.16 3137.88 2613.41 Q3139.62 2614.67 3140.45 2617.06 Z" fill="#000000" fill-rule="nonzero" fill-opacity="1" /><path clip-path="url(#clip480)" d="M3179.48 2624.07 Q3179.48 2619.96 3177.78 2617.63 Q3176.1 2615.28 3173.14 2615.28 Q3170.18 2615.28 3168.48 2617.63 Q3166.8 2619.96 3166.8 2624.07 Q3166.8 2628.18 3168.48 2630.53 Q3170.18 2632.86 3173.14 2632.86 Q3176.1 2632.86 3177.78 2630.53 Q3179.48 2628.18 3179.48 2624.07 M3166.8 2616.15 Q3167.97 2614.12 3169.76 2613.15 Q3171.56 2612.16 3174.05 2612.16 Q3178.18 2612.16 3180.75 2615.44 Q3183.35 2618.72 3183.35 2624.07 Q3183.35 2629.41 3180.75 2632.7 Q3178.18 2635.98 3174.05 2635.98 Q3171.56 2635.98 3169.76 2635.01 Q3167.97 2634.01 3166.8 2631.99 L3166.8 2635.39 L3163.05 2635.39 L3163.05 2603.87 L3166.8 2603.87 L3166.8 2616.15 Z" fill="#000000" fill-rule="nonzero" fill-opacity="1" /><path clip-path="url(#clip480)" d="M3199.83 2623.99 Q3195.32 2623.99 3193.58 2625.02 Q3191.83 2626.05 3191.83 2628.54 Q3191.83 2630.53 3193.13 2631.7 Q3194.45 2632.86 3196.69 2632.86 Q3199.79 2632.86 3201.66 2630.67 Q3203.54 2628.46 3203.54 2624.82 L3203.54 2623.99 L3199.83 2623.99 M3207.27 2622.45 L3207.27 2635.39 L3203.54 2635.39 L3203.54 2631.95 Q3202.26 2634.01 3200.36 2635.01 Q3198.46 2635.98 3195.7 2635.98 Q3192.22 2635.98 3190.15 2634.03 Q3188.11 2632.07 3188.11 2628.79 Q3188.11 2624.96 3190.66 2623.01 Q3193.23 2621.07 3198.32 2621.07 L3203.54 2621.07 L3203.54 2620.71 Q3203.54 2618.13 3201.84 2616.74 Q3200.16 2615.32 3197.1 2615.32 Q3195.16 2615.32 3193.31 2615.78 Q3191.47 2616.25 3189.77 2617.18 L3189.77 2613.74 Q3191.81 2612.95 3193.74 2612.56 Q3195.66 2612.16 3197.48 2612.16 Q3202.41 2612.16 3204.84 2614.71 Q3207.27 2617.26 3207.27 2622.45 Z" fill="#000000" fill-rule="nonzero" fill-opacity="1" /><path clip-path="url(#clip480)" d="M3228.09 2616.19 Q3227.46 2615.82 3226.71 2615.66 Q3225.98 2615.48 3225.09 2615.48 Q3221.93 2615.48 3220.23 2617.55 Q3218.55 2619.59 3218.55 2623.44 L3218.55 2635.39 L3214.8 2635.39 L3214.8 2612.7 L3218.55 2612.7 L3218.55 2616.23 Q3219.72 2614.16 3221.61 2613.17 Q3223.49 2612.16 3226.19 2612.16 Q3226.57 2612.16 3227.04 2612.22 Q3227.5 2612.26 3228.07 2612.36 L3228.09 2616.19 Z" fill="#000000" fill-rule="nonzero" fill-opacity="1" /><path clip-path="url(#clip480)" d="M3231.86 2603.87 L3235.6 2603.87 L3235.6 2622.49 L3246.72 2612.7 L3251.48 2612.7 L3239.45 2623.32 L3251.99 2635.39 L3247.13 2635.39 L3235.6 2624.31 L3235.6 2635.39 L3231.86 2635.39 L3231.86 2603.87 Z" fill="#000000" fill-rule="nonzero" fill-opacity="1" /><path clip-path="url(#clip480)" d="M3273.95 2623.12 L3273.95 2624.94 L3256.81 2624.94 Q3257.05 2628.79 3259.12 2630.81 Q3261.21 2632.82 3264.91 2632.82 Q3267.06 2632.82 3269.06 2632.29 Q3271.09 2631.76 3273.07 2630.71 L3273.07 2634.24 Q3271.07 2635.09 3268.96 2635.53 Q3266.86 2635.98 3264.69 2635.98 Q3259.26 2635.98 3256.08 2632.82 Q3252.92 2629.66 3252.92 2624.27 Q3252.92 2618.7 3255.92 2615.44 Q3258.94 2612.16 3264.04 2612.16 Q3268.62 2612.16 3271.27 2615.12 Q3273.95 2618.05 3273.95 2623.12 M3270.22 2622.02 Q3270.18 2618.96 3268.5 2617.14 Q3266.84 2615.32 3264.08 2615.32 Q3260.96 2615.32 3259.08 2617.08 Q3257.22 2618.84 3256.93 2622.04 L3270.22 2622.02 Z" fill="#000000" fill-rule="nonzero" fill-opacity="1" /><path clip-path="url(#clip480)" d="M3294.99 2616.15 L3294.99 2603.87 L3298.72 2603.87 L3298.72 2635.39 L3294.99 2635.39 L3294.99 2631.99 Q3293.82 2634.01 3292.01 2635.01 Q3290.23 2635.98 3287.72 2635.98 Q3283.61 2635.98 3281.01 2632.7 Q3278.44 2629.41 3278.44 2624.07 Q3278.44 2618.72 3281.01 2615.44 Q3283.61 2612.16 3287.72 2612.16 Q3290.23 2612.16 3292.01 2613.15 Q3293.82 2614.12 3294.99 2616.15 M3282.29 2624.07 Q3282.29 2628.18 3283.97 2630.53 Q3285.67 2632.86 3288.63 2632.86 Q3291.59 2632.86 3293.29 2630.53 Q3294.99 2628.18 3294.99 2624.07 Q3294.99 2619.96 3293.29 2617.63 Q3291.59 2615.28 3288.63 2615.28 Q3285.67 2615.28 3283.97 2617.63 Q3282.29 2619.96 3282.29 2624.07 Z" fill="#000000" fill-rule="nonzero" fill-opacity="1" /><path clip-path="url(#clip480)" d="M3370 588.778 L3370 591.877 L3366.44 591.877 Q3364.43 591.877 3363.64 592.687 Q3362.87 593.498 3362.87 595.604 L3362.87 597.609 L3369.01 597.609 L3369.01 600.506 L3362.87 600.506 L3362.87 620.294 L3359.13 620.294 L3359.13 600.506 L3355.56 600.506 L3355.56 597.609 L3359.13 597.609 L3359.13 596.029 Q3359.13 592.242 3360.89 590.52 Q3362.65 588.778 3366.48 588.778 L3370 588.778 Z" fill="#000000" fill-rule="nonzero" fill-opacity="1" /><path clip-path="url(#clip480)" d="M3383.43 608.891 Q3378.92 608.891 3377.17 609.924 Q3375.43 610.957 3375.43 613.448 Q3375.43 615.433 3376.73 616.608 Q3378.04 617.763 3380.29 617.763 Q3383.39 617.763 3385.26 615.575 Q3387.14 613.367 3387.14 609.721 L3387.14 608.891 L3383.43 608.891 M3390.87 607.352 L3390.87 620.294 L3387.14 620.294 L3387.14 616.851 Q3385.86 618.917 3383.96 619.91 Q3382.06 620.882 3379.3 620.882 Q3375.82 620.882 3373.75 618.937 Q3371.71 616.973 3371.71 613.691 Q3371.71 609.863 3374.26 607.919 Q3376.83 605.974 3381.91 605.974 L3387.14 605.974 L3387.14 605.61 Q3387.14 603.038 3385.44 601.64 Q3383.76 600.222 3380.7 600.222 Q3378.75 600.222 3376.91 600.688 Q3375.07 601.154 3373.37 602.086 L3373.37 598.642 Q3375.41 597.852 3377.34 597.468 Q3379.26 597.062 3381.08 597.062 Q3386 597.062 3388.44 599.614 Q3390.87 602.167 3390.87 607.352 Z" fill="#000000" fill-rule="nonzero" fill-opacity="1" /><path clip-path="url(#clip480)" d="M3411.69 601.093 Q3411.06 600.728 3410.31 600.566 Q3409.58 600.384 3408.69 600.384 Q3405.53 600.384 3403.83 602.45 Q3402.15 604.496 3402.15 608.344 L3402.15 620.294 L3398.4 620.294 L3398.4 597.609 L3402.15 597.609 L3402.15 601.134 Q3403.32 599.068 3405.21 598.075 Q3407.09 597.062 3409.78 597.062 Q3410.17 597.062 3410.63 597.123 Q3411.1 597.164 3411.67 597.265 L3411.69 601.093 Z" fill="#000000" fill-rule="nonzero" fill-opacity="1" /><path clip-path="url(#clip480)" d="M3434.09 608.02 L3434.09 609.843 L3416.95 609.843 Q3417.2 613.691 3419.26 615.717 Q3421.35 617.722 3425.06 617.722 Q3427.2 617.722 3429.21 617.195 Q3431.23 616.669 3433.22 615.616 L3433.22 619.14 Q3431.21 619.991 3429.11 620.436 Q3427 620.882 3424.83 620.882 Q3419.4 620.882 3416.22 617.722 Q3413.06 614.562 3413.06 609.175 Q3413.06 603.605 3416.06 600.344 Q3419.08 597.062 3424.18 597.062 Q3428.76 597.062 3431.42 600.02 Q3434.09 602.956 3434.09 608.02 M3430.36 606.926 Q3430.32 603.868 3428.64 602.045 Q3426.98 600.222 3424.23 600.222 Q3421.11 600.222 3419.22 601.984 Q3417.36 603.746 3417.08 606.947 L3430.36 606.926 Z" fill="#000000" fill-rule="nonzero" fill-opacity="1" /><path clip-path="url(#clip480)" d="M1240.4 2002.96 L1240.4 2016.65 L1236.67 2016.65 L1236.67 2003.08 Q1236.67 1999.86 1235.41 1998.26 Q1234.16 1996.66 1231.65 1996.66 Q1228.63 1996.66 1226.89 1998.58 Q1225.14 2000.51 1225.14 2003.83 L1225.14 2016.65 L1221.4 2016.65 L1221.4 1993.97 L1225.14 1993.97 L1225.14 1997.49 Q1226.48 1995.44 1228.28 1994.43 Q1230.11 1993.42 1232.48 1993.42 Q1236.39 1993.42 1238.39 1995.85 Q1240.4 1998.26 1240.4 2002.96 Z" fill="#000000" fill-rule="nonzero" fill-opacity="1" /><path clip-path="url(#clip480)" d="M1247.45 2007.7 L1247.45 1993.97 L1251.17 1993.97 L1251.17 2007.56 Q1251.17 2010.78 1252.43 2012.4 Q1253.68 2014 1256.2 2014 Q1259.21 2014 1260.95 2012.07 Q1262.72 2010.15 1262.72 2006.83 L1262.72 1993.97 L1266.44 1993.97 L1266.44 2016.65 L1262.72 2016.65 L1262.72 2013.17 Q1261.36 2015.23 1259.56 2016.25 Q1257.77 2017.24 1255.41 2017.24 Q1251.5 2017.24 1249.47 2014.81 Q1247.45 2012.38 1247.45 2007.7 M1256.82 1993.42 L1256.82 1993.42 Z" fill="#000000" fill-rule="nonzero" fill-opacity="1" /><path clip-path="url(#clip480)" d="M1291.78 1998.32 Q1293.18 1995.81 1295.12 1994.61 Q1297.07 1993.42 1299.7 1993.42 Q1303.25 1993.42 1305.17 1995.91 Q1307.09 1998.38 1307.09 2002.96 L1307.09 2016.65 L1303.35 2016.65 L1303.35 2003.08 Q1303.35 1999.82 1302.19 1998.24 Q1301.04 1996.66 1298.67 1996.66 Q1295.77 1996.66 1294.09 1998.58 Q1292.41 2000.51 1292.41 2003.83 L1292.41 2016.65 L1288.66 2016.65 L1288.66 2003.08 Q1288.66 1999.8 1287.51 1998.24 Q1286.35 1996.66 1283.94 1996.66 Q1281.09 1996.66 1279.41 1998.6 Q1277.73 2000.53 1277.73 2003.83 L1277.73 2016.65 L1273.98 2016.65 L1273.98 1993.97 L1277.73 1993.97 L1277.73 1997.49 Q1279 1995.4 1280.78 1994.41 Q1282.57 1993.42 1285.02 1993.42 Q1287.49 1993.42 1289.21 1994.68 Q1290.95 1995.93 1291.78 1998.32 Z" fill="#000000" fill-rule="nonzero" fill-opacity="1" /><path clip-path="url(#clip480)" d="M1318.13 2013.25 L1318.13 2025.28 L1314.39 2025.28 L1314.39 1993.97 L1318.13 1993.97 L1318.13 1997.41 Q1319.31 1995.38 1321.09 1994.41 Q1322.89 1993.42 1325.38 1993.42 Q1329.52 1993.42 1332.09 1996.7 Q1334.68 1999.98 1334.68 2005.33 Q1334.68 2010.68 1332.09 2013.96 Q1329.52 2017.24 1325.38 2017.24 Q1322.89 2017.24 1321.09 2016.27 Q1319.31 2015.27 1318.13 2013.25 M1330.81 2005.33 Q1330.81 2001.22 1329.11 1998.89 Q1327.43 1996.54 1324.47 1996.54 Q1321.52 1996.54 1319.81 1998.89 Q1318.13 2001.22 1318.13 2005.33 Q1318.13 2009.44 1319.81 2011.79 Q1321.52 2014.12 1324.47 2014.12 Q1327.43 2014.12 1329.11 2011.79 Q1330.81 2009.44 1330.81 2005.33 Z" fill="#000000" fill-rule="nonzero" fill-opacity="1" /><path clip-path="url(#clip480)" d="M1351.17 2005.25 Q1346.65 2005.25 1344.91 2006.28 Q1343.17 2007.31 1343.17 2009.81 Q1343.17 2011.79 1344.46 2012.96 Q1345.78 2014.12 1348.03 2014.12 Q1351.13 2014.12 1352.99 2011.93 Q1354.88 2009.72 1354.88 2006.08 L1354.88 2005.25 L1351.17 2005.25 M1358.6 2003.71 L1358.6 2016.65 L1354.88 2016.65 L1354.88 2013.21 Q1353.6 2015.27 1351.7 2016.27 Q1349.79 2017.24 1347.04 2017.24 Q1343.55 2017.24 1341.49 2015.29 Q1339.44 2013.33 1339.44 2010.05 Q1339.44 2006.22 1341.99 2004.28 Q1344.57 2002.33 1349.65 2002.33 L1354.88 2002.33 L1354.88 2001.97 Q1354.88 1999.39 1353.17 1998 Q1351.49 1996.58 1348.43 1996.58 Q1346.49 1996.58 1344.65 1997.04 Q1342.8 1997.51 1341.1 1998.44 L1341.1 1995 Q1343.15 1994.21 1345.07 1993.82 Q1347 1993.42 1348.82 1993.42 Q1353.74 1993.42 1356.17 1995.97 Q1358.6 1998.52 1358.6 2003.71 Z" fill="#000000" fill-rule="nonzero" fill-opacity="1" /><path clip-path="url(#clip480)" d="M1379.42 1997.45 Q1378.8 1997.09 1378.05 1996.92 Q1377.32 1996.74 1376.43 1996.74 Q1373.27 1996.74 1371.56 1998.81 Q1369.88 2000.85 1369.88 2004.7 L1369.88 2016.65 L1366.14 2016.65 L1366.14 1993.97 L1369.88 1993.97 L1369.88 1997.49 Q1371.06 1995.42 1372.94 1994.43 Q1374.83 1993.42 1377.52 1993.42 Q1377.9 1993.42 1378.37 1993.48 Q1378.84 1993.52 1379.4 1993.62 L1379.42 1997.45 Z" fill="#000000" fill-rule="nonzero" fill-opacity="1" /><path clip-path="url(#clip480)" d="M1401.83 2004.38 L1401.83 2006.2 L1384.69 2006.2 Q1384.93 2010.05 1387 2012.07 Q1389.09 2014.08 1392.79 2014.08 Q1394.94 2014.08 1396.94 2013.55 Q1398.97 2013.03 1400.95 2011.97 L1400.95 2015.5 Q1398.95 2016.35 1396.84 2016.79 Q1394.74 2017.24 1392.57 2017.24 Q1387.14 2017.24 1383.96 2014.08 Q1380.8 2010.92 1380.8 2005.53 Q1380.8 1999.96 1383.8 1996.7 Q1386.82 1993.42 1391.92 1993.42 Q1396.5 1993.42 1399.15 1996.38 Q1401.83 1999.31 1401.83 2004.38 M1398.1 2003.28 Q1398.06 2000.22 1396.38 1998.4 Q1394.72 1996.58 1391.96 1996.58 Q1388.84 1996.58 1386.96 1998.34 Q1385.09 2000.1 1384.81 2003.3 L1398.1 2003.28 Z" fill="#000000" fill-rule="nonzero" fill-opacity="1" /><path clip-path="url(#clip480)" d="M1426.8 2002.96 L1426.8 2016.65 L1423.07 2016.65 L1423.07 2003.08 Q1423.07 1999.86 1421.82 1998.26 Q1420.56 1996.66 1418.05 1996.66 Q1415.03 1996.66 1413.29 1998.58 Q1411.55 2000.51 1411.55 2003.83 L1411.55 2016.65 L1407.8 2016.65 L1407.8 1993.97 L1411.55 1993.97 L1411.55 1997.49 Q1412.88 1995.44 1414.69 1994.43 Q1416.51 1993.42 1418.88 1993.42 Q1422.79 1993.42 1424.79 1995.85 Q1426.8 1998.26 1426.8 2002.96 Z" fill="#000000" fill-rule="nonzero" fill-opacity="1" /><path clip-path="url(#clip480)" d="M1437.92 1987.53 L1437.92 1993.97 L1445.6 1993.97 L1445.6 1996.86 L1437.92 1996.86 L1437.92 2009.18 Q1437.92 2011.95 1438.67 2012.74 Q1439.44 2013.53 1441.77 2013.53 L1445.6 2013.53 L1445.6 2016.65 L1441.77 2016.65 Q1437.45 2016.65 1435.81 2015.05 Q1434.17 2013.43 1434.17 2009.18 L1434.17 1996.86 L1431.44 1996.86 L1431.44 1993.97 L1434.17 1993.97 L1434.17 1987.53 L1437.92 1987.53 Z" fill="#000000" fill-rule="nonzero" fill-opacity="1" /><path clip-path="url(#clip480)" d="M1464.96 1994.63 L1464.96 1998.16 Q1463.38 1997.35 1461.68 1996.94 Q1459.98 1996.54 1458.15 1996.54 Q1455.38 1996.54 1453.98 1997.39 Q1452.6 1998.24 1452.6 1999.94 Q1452.6 2001.24 1453.6 2001.99 Q1454.59 2002.72 1457.59 2003.38 L1458.86 2003.67 Q1462.83 2004.52 1464.49 2006.08 Q1466.17 2007.62 1466.17 2010.39 Q1466.17 2013.55 1463.66 2015.4 Q1461.17 2017.24 1456.8 2017.24 Q1454.97 2017.24 1452.99 2016.87 Q1451.02 2016.53 1448.84 2015.82 L1448.84 2011.97 Q1450.9 2013.05 1452.91 2013.59 Q1454.91 2014.12 1456.88 2014.12 Q1459.51 2014.12 1460.93 2013.23 Q1462.35 2012.32 1462.35 2010.68 Q1462.35 2009.16 1461.31 2008.35 Q1460.3 2007.54 1456.84 2006.79 L1455.54 2006.48 Q1452.08 2005.75 1450.54 2004.26 Q1449 2002.74 1449 2000.1 Q1449 1996.9 1451.27 1995.16 Q1453.53 1993.42 1457.71 1993.42 Q1459.77 1993.42 1461.6 1993.72 Q1463.42 1994.03 1464.96 1994.63 Z" fill="#000000" fill-rule="nonzero" fill-opacity="1" /><path clip-path="url(#clip480)" d="M1488.43 1994.84 L1488.43 1998.32 Q1486.85 1997.45 1485.25 1997.02 Q1483.67 1996.58 1482.05 1996.58 Q1478.43 1996.58 1476.42 1998.89 Q1474.42 2001.18 1474.42 2005.33 Q1474.42 2009.48 1476.42 2011.79 Q1478.43 2014.08 1482.05 2014.08 Q1483.67 2014.08 1485.25 2013.65 Q1486.85 2013.21 1488.43 2012.34 L1488.43 2015.78 Q1486.87 2016.51 1485.19 2016.87 Q1483.53 2017.24 1481.65 2017.24 Q1476.52 2017.24 1473.51 2014.02 Q1470.49 2010.8 1470.49 2005.33 Q1470.49 1999.78 1473.53 1996.6 Q1476.58 1993.42 1481.89 1993.42 Q1483.61 1993.42 1485.25 1993.78 Q1486.89 1994.13 1488.43 1994.84 Z" fill="#000000" fill-rule="nonzero" fill-opacity="1" /><path clip-path="url(#clip480)" d="M1513.77 2002.96 L1513.77 2016.65 L1510.05 2016.65 L1510.05 2003.08 Q1510.05 1999.86 1508.79 1998.26 Q1507.53 1996.66 1505.02 1996.66 Q1502 1996.66 1500.26 1998.58 Q1498.52 2000.51 1498.52 2003.83 L1498.52 2016.65 L1494.77 2016.65 L1494.77 1985.14 L1498.52 1985.14 L1498.52 1997.49 Q1499.86 1995.44 1501.66 1994.43 Q1503.48 1993.42 1505.85 1993.42 Q1509.76 1993.42 1511.77 1995.85 Q1513.77 1998.26 1513.77 2002.96 Z" fill="#000000" fill-rule="nonzero" fill-opacity="1" /><path clip-path="url(#clip480)" d="M1521.21 1993.97 L1524.93 1993.97 L1524.93 2016.65 L1521.21 2016.65 L1521.21 1993.97 M1521.21 1985.14 L1524.93 1985.14 L1524.93 1989.85 L1521.21 1989.85 L1521.21 1985.14 Z" fill="#000000" fill-rule="nonzero" fill-opacity="1" /><path clip-path="url(#clip480)" d="M1532.73 1985.14 L1536.46 1985.14 L1536.46 2016.65 L1532.73 2016.65 L1532.73 1985.14 Z" fill="#000000" fill-rule="nonzero" fill-opacity="1" /><path clip-path="url(#clip480)" d="M1559.18 1997.41 L1559.18 1985.14 L1562.91 1985.14 L1562.91 2016.65 L1559.18 2016.65 L1559.18 2013.25 Q1558.01 2015.27 1556.21 2016.27 Q1554.42 2017.24 1551.91 2017.24 Q1547.8 2017.24 1545.21 2013.96 Q1542.63 2010.68 1542.63 2005.33 Q1542.63 1999.98 1545.21 1996.7 Q1547.8 1993.42 1551.91 1993.42 Q1554.42 1993.42 1556.21 1994.41 Q1558.01 1995.38 1559.18 1997.41 M1546.48 2005.33 Q1546.48 2009.44 1548.16 2011.79 Q1549.87 2014.12 1552.82 2014.12 Q1555.78 2014.12 1557.48 2011.79 Q1559.18 2009.44 1559.18 2005.33 Q1559.18 2001.22 1557.48 1998.89 Q1555.78 1996.54 1552.82 1996.54 Q1549.87 1996.54 1548.16 1998.89 Q1546.48 2001.22 1546.48 2005.33 Z" fill="#000000" fill-rule="nonzero" fill-opacity="1" /><path clip-path="url(#clip480)" d="M1583.73 1997.45 Q1583.1 1997.09 1582.35 1996.92 Q1581.62 1996.74 1580.73 1996.74 Q1577.57 1996.74 1575.87 1998.81 Q1574.19 2000.85 1574.19 2004.7 L1574.19 2016.65 L1570.44 2016.65 L1570.44 1993.97 L1574.19 1993.97 L1574.19 1997.49 Q1575.37 1995.42 1577.25 1994.43 Q1579.13 1993.42 1581.83 1993.42 Q1582.21 1993.42 1582.68 1993.48 Q1583.14 1993.52 1583.71 1993.62 L1583.73 1997.45 Z" fill="#000000" fill-rule="nonzero" fill-opacity="1" /><path clip-path="url(#clip480)" d="M1606.13 2004.38 L1606.13 2006.2 L1589 2006.2 Q1589.24 2010.05 1591.31 2012.07 Q1593.39 2014.08 1597.1 2014.08 Q1599.25 2014.08 1601.25 2013.55 Q1603.28 2013.03 1605.26 2011.97 L1605.26 2015.5 Q1603.26 2016.35 1601.15 2016.79 Q1599.04 2017.24 1596.88 2017.24 Q1591.45 2017.24 1588.27 2014.08 Q1585.11 2010.92 1585.11 2005.53 Q1585.11 1999.96 1588.11 1996.7 Q1591.12 1993.42 1596.23 1993.42 Q1600.81 1993.42 1603.46 1996.38 Q1606.13 1999.31 1606.13 2004.38 M1602.41 2003.28 Q1602.37 2000.22 1600.68 1998.4 Q1599.02 1996.58 1596.27 1996.58 Q1593.15 1996.58 1591.27 1998.34 Q1589.4 2000.1 1589.12 2003.3 L1602.41 2003.28 Z" fill="#000000" fill-rule="nonzero" fill-opacity="1" /><path clip-path="url(#clip480)" d="M1631.11 2002.96 L1631.11 2016.65 L1627.38 2016.65 L1627.38 2003.08 Q1627.38 1999.86 1626.12 1998.26 Q1624.87 1996.66 1622.36 1996.66 Q1619.34 1996.66 1617.6 1998.58 Q1615.85 2000.51 1615.85 2003.83 L1615.85 2016.65 L1612.11 2016.65 L1612.11 1993.97 L1615.85 1993.97 L1615.85 1997.49 Q1617.19 1995.44 1618.99 1994.43 Q1620.82 1993.42 1623.19 1993.42 Q1627.1 1993.42 1629.1 1995.85 Q1631.11 1998.26 1631.11 2002.96 Z" fill="#000000" fill-rule="nonzero" fill-opacity="1" /><path clip-path="url(#clip480)" d="M2591.37 1652.71 L2591.37 1664.74 L2587.62 1664.74 L2587.62 1633.42 L2591.37 1633.42 L2591.37 1636.87 Q2592.54 1634.84 2594.32 1633.87 Q2596.13 1632.88 2598.62 1632.88 Q2602.75 1632.88 2605.32 1636.16 Q2607.91 1639.44 2607.91 1644.79 Q2607.91 1650.13 2605.32 1653.41 Q2602.75 1656.7 2598.62 1656.7 Q2596.13 1656.7 2594.32 1655.72 Q2592.54 1654.73 2591.37 1652.71 M2604.05 1644.79 Q2604.05 1640.67 2602.34 1638.35 Q2600.66 1636 2597.71 1636 Q2594.75 1636 2593.05 1638.35 Q2591.37 1640.67 2591.37 1644.79 Q2591.37 1648.9 2593.05 1651.25 Q2594.75 1653.58 2597.71 1653.58 Q2600.66 1653.58 2602.34 1651.25 Q2604.05 1648.9 2604.05 1644.79 Z" fill="#000000" fill-rule="nonzero" fill-opacity="1" /><path clip-path="url(#clip480)" d="M2624.4 1644.71 Q2619.89 1644.71 2618.14 1645.74 Q2616.4 1646.77 2616.4 1649.26 Q2616.4 1651.25 2617.7 1652.42 Q2619.01 1653.58 2621.26 1653.58 Q2624.36 1653.58 2626.22 1651.39 Q2628.11 1649.18 2628.11 1645.54 L2628.11 1644.71 L2624.4 1644.71 M2631.84 1643.17 L2631.84 1656.11 L2628.11 1656.11 L2628.11 1652.67 Q2626.83 1654.73 2624.93 1655.72 Q2623.02 1656.7 2620.27 1656.7 Q2616.79 1656.7 2614.72 1654.75 Q2612.67 1652.79 2612.67 1649.51 Q2612.67 1645.68 2615.23 1643.73 Q2617.8 1641.79 2622.88 1641.79 L2628.11 1641.79 L2628.11 1641.42 Q2628.11 1638.85 2626.41 1637.45 Q2624.73 1636.04 2621.67 1636.04 Q2619.72 1636.04 2617.88 1636.5 Q2616.04 1636.97 2614.34 1637.9 L2614.34 1634.46 Q2616.38 1633.67 2618.31 1633.28 Q2620.23 1632.88 2622.05 1632.88 Q2626.97 1632.88 2629.4 1635.43 Q2631.84 1637.98 2631.84 1643.17 Z" fill="#000000" fill-rule="nonzero" fill-opacity="1" /><path clip-path="url(#clip480)" d="M2653.97 1634.09 L2653.97 1637.62 Q2652.39 1636.81 2650.69 1636.4 Q2648.99 1636 2647.17 1636 Q2644.39 1636 2643 1636.85 Q2641.62 1637.7 2641.62 1639.4 Q2641.62 1640.69 2642.61 1641.44 Q2643.6 1642.17 2646.6 1642.84 L2647.88 1643.13 Q2651.85 1643.98 2653.51 1645.54 Q2655.19 1647.08 2655.19 1649.85 Q2655.19 1653.01 2652.68 1654.85 Q2650.19 1656.7 2645.81 1656.7 Q2643.99 1656.7 2642 1656.33 Q2640.04 1655.99 2637.85 1655.28 L2637.85 1651.43 Q2639.92 1652.5 2641.92 1653.05 Q2643.93 1653.58 2645.89 1653.58 Q2648.52 1653.58 2649.94 1652.69 Q2651.36 1651.77 2651.36 1650.13 Q2651.36 1648.61 2650.33 1647.8 Q2649.31 1646.99 2645.85 1646.24 L2644.56 1645.94 Q2641.09 1645.21 2639.55 1643.71 Q2638.01 1642.19 2638.01 1639.56 Q2638.01 1636.36 2640.28 1634.62 Q2642.55 1632.88 2646.72 1632.88 Q2648.79 1632.88 2650.61 1633.18 Q2652.43 1633.48 2653.97 1634.09 Z" fill="#000000" fill-rule="nonzero" fill-opacity="1" /><path clip-path="url(#clip480)" d="M2675.58 1634.09 L2675.58 1637.62 Q2674.01 1636.81 2672.3 1636.4 Q2670.6 1636 2668.78 1636 Q2666 1636 2664.61 1636.85 Q2663.23 1637.7 2663.23 1639.4 Q2663.23 1640.69 2664.22 1641.44 Q2665.21 1642.17 2668.21 1642.84 L2669.49 1643.13 Q2673.46 1643.98 2675.12 1645.54 Q2676.8 1647.08 2676.8 1649.85 Q2676.8 1653.01 2674.29 1654.85 Q2671.8 1656.7 2667.42 1656.7 Q2665.6 1656.7 2663.61 1656.33 Q2661.65 1655.99 2659.46 1655.28 L2659.46 1651.43 Q2661.53 1652.5 2663.53 1653.05 Q2665.54 1653.58 2667.5 1653.58 Q2670.14 1653.58 2671.55 1652.69 Q2672.97 1651.77 2672.97 1650.13 Q2672.97 1648.61 2671.94 1647.8 Q2670.93 1646.99 2667.46 1646.24 L2666.17 1645.94 Q2662.7 1645.21 2661.16 1643.71 Q2659.62 1642.19 2659.62 1639.56 Q2659.62 1636.36 2661.89 1634.62 Q2664.16 1632.88 2668.33 1632.88 Q2670.4 1632.88 2672.22 1633.18 Q2674.05 1633.48 2675.58 1634.09 Z" fill="#000000" fill-rule="nonzero" fill-opacity="1" /><path clip-path="url(#clip480)" d="M2702.14 1643.83 L2702.14 1645.66 L2685 1645.66 Q2685.25 1649.51 2687.31 1651.53 Q2689.4 1653.54 2693.11 1653.54 Q2695.25 1653.54 2697.26 1653.01 Q2699.28 1652.48 2701.27 1651.43 L2701.27 1654.95 Q2699.26 1655.8 2697.16 1656.25 Q2695.05 1656.7 2692.88 1656.7 Q2687.45 1656.7 2684.27 1653.54 Q2681.11 1650.38 2681.11 1644.99 Q2681.11 1639.42 2684.11 1636.16 Q2687.13 1632.88 2692.23 1632.88 Q2696.81 1632.88 2699.47 1635.83 Q2702.14 1638.77 2702.14 1643.83 M2698.41 1642.74 Q2698.37 1639.68 2696.69 1637.86 Q2695.03 1636.04 2692.27 1636.04 Q2689.16 1636.04 2687.27 1637.8 Q2685.41 1639.56 2685.12 1642.76 L2698.41 1642.74 Z" fill="#000000" fill-rule="nonzero" fill-opacity="1" /><path clip-path="url(#clip480)" d="M2727.11 1642.42 L2727.11 1656.11 L2723.39 1656.11 L2723.39 1642.54 Q2723.39 1639.32 2722.13 1637.72 Q2720.87 1636.12 2718.36 1636.12 Q2715.34 1636.12 2713.6 1638.04 Q2711.86 1639.97 2711.86 1643.29 L2711.86 1656.11 L2708.11 1656.11 L2708.11 1633.42 L2711.86 1633.42 L2711.86 1636.95 Q2713.2 1634.9 2715 1633.89 Q2716.82 1632.88 2719.19 1632.88 Q2723.1 1632.88 2725.11 1635.31 Q2727.11 1637.72 2727.11 1642.42 Z" fill="#000000" fill-rule="nonzero" fill-opacity="1" /><path clip-path="url(#clip480)" d="M2749.47 1644.5 Q2749.47 1640.45 2747.79 1638.22 Q2746.13 1636 2743.11 1636 Q2740.12 1636 2738.43 1638.22 Q2736.77 1640.45 2736.77 1644.5 Q2736.77 1648.53 2738.43 1650.76 Q2740.12 1652.99 2743.11 1652.99 Q2746.13 1652.99 2747.79 1650.76 Q2749.47 1648.53 2749.47 1644.5 M2753.2 1653.29 Q2753.2 1659.09 2750.63 1661.9 Q2748.06 1664.74 2742.75 1664.74 Q2740.78 1664.74 2739.04 1664.43 Q2737.3 1664.15 2735.66 1663.54 L2735.66 1659.92 Q2737.3 1660.81 2738.9 1661.23 Q2740.5 1661.66 2742.16 1661.66 Q2745.83 1661.66 2747.65 1659.73 Q2749.47 1657.83 2749.47 1653.96 L2749.47 1652.12 Q2748.32 1654.12 2746.52 1655.12 Q2744.71 1656.11 2742.2 1656.11 Q2738.03 1656.11 2735.48 1652.93 Q2732.93 1649.75 2732.93 1644.5 Q2732.93 1639.24 2735.48 1636.06 Q2738.03 1632.88 2742.2 1632.88 Q2744.71 1632.88 2746.52 1633.87 Q2748.32 1634.86 2749.47 1636.87 L2749.47 1633.42 L2753.2 1633.42 L2753.2 1653.29 Z" fill="#000000" fill-rule="nonzero" fill-opacity="1" /><path clip-path="url(#clip480)" d="M2780.28 1643.83 L2780.28 1645.66 L2763.15 1645.66 Q2763.39 1649.51 2765.45 1651.53 Q2767.54 1653.54 2771.25 1653.54 Q2773.39 1653.54 2775.4 1653.01 Q2777.42 1652.48 2779.41 1651.43 L2779.41 1654.95 Q2777.4 1655.8 2775.3 1656.25 Q2773.19 1656.7 2771.02 1656.7 Q2765.6 1656.7 2762.42 1653.54 Q2759.26 1650.38 2759.26 1644.99 Q2759.26 1639.42 2762.25 1636.16 Q2765.27 1632.88 2770.38 1632.88 Q2774.95 1632.88 2777.61 1635.83 Q2780.28 1638.77 2780.28 1643.83 M2776.55 1642.74 Q2776.51 1639.68 2774.83 1637.86 Q2773.17 1636.04 2770.42 1636.04 Q2767.3 1636.04 2765.41 1637.8 Q2763.55 1639.56 2763.27 1642.76 L2776.55 1642.74 Z" fill="#000000" fill-rule="nonzero" fill-opacity="1" /><path clip-path="url(#clip480)" d="M2799.54 1636.91 Q2798.91 1636.54 2798.17 1636.38 Q2797.44 1636.2 2796.54 1636.2 Q2793.39 1636.2 2791.68 1638.26 Q2790 1640.31 2790 1644.16 L2790 1656.11 L2786.26 1656.11 L2786.26 1633.42 L2790 1633.42 L2790 1636.95 Q2791.18 1634.88 2793.06 1633.89 Q2794.94 1632.88 2797.64 1632.88 Q2798.02 1632.88 2798.49 1632.94 Q2798.96 1632.98 2799.52 1633.08 L2799.54 1636.91 Z" fill="#000000" fill-rule="nonzero" fill-opacity="1" /><path clip-path="url(#clip480)" d="M2818.87 1634.29 L2818.87 1637.78 Q2817.29 1636.91 2815.69 1636.48 Q2814.11 1636.04 2812.49 1636.04 Q2808.86 1636.04 2806.85 1638.35 Q2804.85 1640.63 2804.85 1644.79 Q2804.85 1648.94 2806.85 1651.25 Q2808.86 1653.54 2812.49 1653.54 Q2814.11 1653.54 2815.69 1653.11 Q2817.29 1652.67 2818.87 1651.79 L2818.87 1655.24 Q2817.31 1655.97 2815.62 1656.33 Q2813.96 1656.7 2812.08 1656.7 Q2806.96 1656.7 2803.94 1653.48 Q2800.92 1650.26 2800.92 1644.79 Q2800.92 1639.24 2803.96 1636.06 Q2807.02 1632.88 2812.32 1632.88 Q2814.04 1632.88 2815.69 1633.24 Q2817.33 1633.59 2818.87 1634.29 Z" fill="#000000" fill-rule="nonzero" fill-opacity="1" /><path clip-path="url(#clip480)" d="M2825.35 1624.59 L2829.07 1624.59 L2829.07 1656.11 L2825.35 1656.11 L2825.35 1624.59 Z" fill="#000000" fill-rule="nonzero" fill-opacity="1" /><path clip-path="url(#clip480)" d="M2847.18 1644.71 Q2842.66 1644.71 2840.92 1645.74 Q2839.18 1646.77 2839.18 1649.26 Q2839.18 1651.25 2840.48 1652.42 Q2841.79 1653.58 2844.04 1653.58 Q2847.14 1653.58 2849 1651.39 Q2850.89 1649.18 2850.89 1645.54 L2850.89 1644.71 L2847.18 1644.71 M2854.61 1643.17 L2854.61 1656.11 L2850.89 1656.11 L2850.89 1652.67 Q2849.61 1654.73 2847.71 1655.72 Q2845.8 1656.7 2843.05 1656.7 Q2839.57 1656.7 2837.5 1654.75 Q2835.45 1652.79 2835.45 1649.51 Q2835.45 1645.68 2838.01 1643.73 Q2840.58 1641.79 2845.66 1641.79 L2850.89 1641.79 L2850.89 1641.42 Q2850.89 1638.85 2849.19 1637.45 Q2847.51 1636.04 2844.45 1636.04 Q2842.5 1636.04 2840.66 1636.5 Q2838.82 1636.97 2837.11 1637.9 L2837.11 1634.46 Q2839.16 1633.67 2841.08 1633.28 Q2843.01 1632.88 2844.83 1632.88 Q2849.75 1632.88 2852.18 1635.43 Q2854.61 1637.98 2854.61 1643.17 Z" fill="#000000" fill-rule="nonzero" fill-opacity="1" /><path clip-path="url(#clip480)" d="M2876.75 1634.09 L2876.75 1637.62 Q2875.17 1636.81 2873.47 1636.4 Q2871.77 1636 2869.95 1636 Q2867.17 1636 2865.77 1636.85 Q2864.4 1637.7 2864.4 1639.4 Q2864.4 1640.69 2865.39 1641.44 Q2866.38 1642.17 2869.38 1642.84 L2870.66 1643.13 Q2874.63 1643.98 2876.29 1645.54 Q2877.97 1647.08 2877.97 1649.85 Q2877.97 1653.01 2875.46 1654.85 Q2872.97 1656.7 2868.59 1656.7 Q2866.77 1656.7 2864.78 1656.33 Q2862.82 1655.99 2860.63 1655.28 L2860.63 1651.43 Q2862.7 1652.5 2864.7 1653.05 Q2866.71 1653.58 2868.67 1653.58 Q2871.3 1653.58 2872.72 1652.69 Q2874.14 1651.77 2874.14 1650.13 Q2874.14 1648.61 2873.11 1647.8 Q2872.09 1646.99 2868.63 1646.24 L2867.33 1645.94 Q2863.87 1645.21 2862.33 1643.71 Q2860.79 1642.19 2860.79 1639.56 Q2860.79 1636.36 2863.06 1634.62 Q2865.33 1632.88 2869.5 1632.88 Q2871.57 1632.88 2873.39 1633.18 Q2875.21 1633.48 2876.75 1634.09 Z" fill="#000000" fill-rule="nonzero" fill-opacity="1" /><path clip-path="url(#clip480)" d="M2898.36 1634.09 L2898.36 1637.62 Q2896.78 1636.81 2895.08 1636.4 Q2893.38 1636 2891.56 1636 Q2888.78 1636 2887.39 1636.85 Q2886.01 1637.7 2886.01 1639.4 Q2886.01 1640.69 2887 1641.44 Q2887.99 1642.17 2890.99 1642.84 L2892.27 1643.13 Q2896.24 1643.98 2897.9 1645.54 Q2899.58 1647.08 2899.58 1649.85 Q2899.58 1653.01 2897.07 1654.85 Q2894.58 1656.7 2890.2 1656.7 Q2888.38 1656.7 2886.39 1656.33 Q2884.43 1655.99 2882.24 1655.28 L2882.24 1651.43 Q2884.31 1652.5 2886.31 1653.05 Q2888.32 1653.58 2890.28 1653.58 Q2892.92 1653.58 2894.33 1652.69 Q2895.75 1651.77 2895.75 1650.13 Q2895.75 1648.61 2894.72 1647.8 Q2893.71 1646.99 2890.24 1646.24 L2888.95 1645.94 Q2885.48 1645.21 2883.94 1643.71 Q2882.4 1642.19 2882.4 1639.56 Q2882.4 1636.36 2884.67 1634.62 Q2886.94 1632.88 2891.11 1632.88 Q2893.18 1632.88 2895 1633.18 Q2896.83 1633.48 2898.36 1634.09 Z" fill="#000000" fill-rule="nonzero" fill-opacity="1" /><path clip-path="url(#clip480)" d="M2197.06 2609.57 L2197.06 2613.09 Q2195.48 2612.28 2193.78 2611.88 Q2192.08 2611.47 2190.26 2611.47 Q2187.48 2611.47 2186.09 2612.32 Q2184.71 2613.18 2184.71 2614.88 Q2184.71 2616.17 2185.7 2616.92 Q2186.69 2617.65 2189.69 2618.32 L2190.97 2618.6 Q2194.94 2619.45 2196.6 2621.01 Q2198.28 2622.55 2198.28 2625.33 Q2198.28 2628.49 2195.77 2630.33 Q2193.28 2632.17 2188.9 2632.17 Q2187.08 2632.17 2185.09 2631.81 Q2183.13 2631.47 2180.94 2630.76 L2180.94 2626.91 Q2183.01 2627.98 2185.01 2628.53 Q2187.02 2629.06 2188.98 2629.06 Q2191.62 2629.06 2193.03 2628.16 Q2194.45 2627.25 2194.45 2625.61 Q2194.45 2624.09 2193.42 2623.28 Q2192.41 2622.47 2188.94 2621.72 L2187.65 2621.42 Q2184.18 2620.69 2182.64 2619.19 Q2181.1 2617.67 2181.1 2615.04 Q2181.1 2611.84 2183.37 2610.1 Q2185.64 2608.36 2189.81 2608.36 Q2191.88 2608.36 2193.7 2608.66 Q2195.52 2608.96 2197.06 2609.57 Z" fill="#000000" fill-rule="nonzero" fill-opacity="1" /><path clip-path="url(#clip480)" d="M2223.62 2619.31 L2223.62 2621.14 L2206.48 2621.14 Q2206.73 2624.98 2208.79 2627.01 Q2210.88 2629.01 2214.58 2629.01 Q2216.73 2629.01 2218.74 2628.49 Q2220.76 2627.96 2222.75 2626.91 L2222.75 2630.43 Q2220.74 2631.28 2218.63 2631.73 Q2216.53 2632.17 2214.36 2632.17 Q2208.93 2632.17 2205.75 2629.01 Q2202.59 2625.85 2202.59 2620.47 Q2202.59 2614.9 2205.59 2611.64 Q2208.61 2608.36 2213.71 2608.36 Q2218.29 2608.36 2220.94 2611.31 Q2223.62 2614.25 2223.62 2619.31 M2219.89 2618.22 Q2219.85 2615.16 2218.17 2613.34 Q2216.51 2611.51 2213.75 2611.51 Q2210.63 2611.51 2208.75 2613.28 Q2206.89 2615.04 2206.6 2618.24 L2219.89 2618.22 Z" fill="#000000" fill-rule="nonzero" fill-opacity="1" /><path clip-path="url(#clip480)" d="M2247.86 2608.9 L2239.66 2619.94 L2248.29 2631.59 L2243.89 2631.59 L2237.29 2622.68 L2230.69 2631.59 L2226.29 2631.59 L2235.1 2619.72 L2227.04 2608.9 L2231.44 2608.9 L2237.45 2616.98 L2243.47 2608.9 L2247.86 2608.9 Z" fill="#000000" fill-rule="nonzero" fill-opacity="1" /><path clip-path="url(#clip480)" d="M502.2 2240.72 L502.2 2254.41 L498.474 2254.41 L498.474 2240.84 Q498.474 2237.62 497.218 2236.02 Q495.962 2234.42 493.45 2234.42 Q490.432 2234.42 488.691 2236.34 Q486.949 2238.26 486.949 2241.59 L486.949 2254.41 L483.202 2254.41 L483.202 2231.72 L486.949 2231.72 L486.949 2235.25 Q488.286 2233.2 490.088 2232.19 Q491.911 2231.18 494.281 2231.18 Q498.19 2231.18 500.195 2233.61 Q502.2 2236.02 502.2 2240.72 Z" fill="#000000" fill-rule="nonzero" fill-opacity="1" /><path clip-path="url(#clip480)" d="M509.249 2245.46 L509.249 2231.72 L512.976 2231.72 L512.976 2245.31 Q512.976 2248.53 514.232 2250.15 Q515.487 2251.75 517.999 2251.75 Q521.017 2251.75 522.759 2249.83 Q524.521 2247.91 524.521 2244.58 L524.521 2231.72 L528.248 2231.72 L528.248 2254.41 L524.521 2254.41 L524.521 2250.92 Q523.164 2252.99 521.361 2254 Q519.579 2255 517.209 2255 Q513.3 2255 511.274 2252.56 Q509.249 2250.13 509.249 2245.46 M518.627 2231.18 L518.627 2231.18 Z" fill="#000000" fill-rule="nonzero" fill-opacity="1" /><path clip-path="url(#clip480)" d="M553.586 2236.08 Q554.984 2233.57 556.928 2232.37 Q558.873 2231.18 561.506 2231.18 Q565.05 2231.18 566.974 2233.67 Q568.899 2236.14 568.899 2240.72 L568.899 2254.41 L565.151 2254.41 L565.151 2240.84 Q565.151 2237.58 563.997 2236 Q562.842 2234.42 560.473 2234.42 Q557.576 2234.42 555.895 2236.34 Q554.214 2238.26 554.214 2241.59 L554.214 2254.41 L550.467 2254.41 L550.467 2240.84 Q550.467 2237.56 549.312 2236 Q548.158 2234.42 545.748 2234.42 Q542.892 2234.42 541.211 2236.36 Q539.529 2238.29 539.529 2241.59 L539.529 2254.41 L535.782 2254.41 L535.782 2231.72 L539.529 2231.72 L539.529 2235.25 Q540.805 2233.16 542.588 2232.17 Q544.37 2231.18 546.821 2231.18 Q549.292 2231.18 551.014 2232.43 Q552.756 2233.69 553.586 2236.08 Z" fill="#000000" fill-rule="nonzero" fill-opacity="1" /><path clip-path="url(#clip480)" d="M590.794 2232.39 L590.794 2235.92 Q589.214 2235.11 587.512 2234.7 Q585.811 2234.3 583.988 2234.3 Q581.213 2234.3 579.816 2235.15 Q578.438 2236 578.438 2237.7 Q578.438 2238.99 579.431 2239.74 Q580.423 2240.47 583.421 2241.14 L584.697 2241.42 Q588.667 2242.28 590.328 2243.83 Q592.009 2245.37 592.009 2248.15 Q592.009 2251.31 589.497 2253.15 Q587.006 2255 582.631 2255 Q580.808 2255 578.823 2254.63 Q576.859 2254.29 574.671 2253.58 L574.671 2249.73 Q576.737 2250.8 578.742 2251.35 Q580.747 2251.88 582.712 2251.88 Q585.345 2251.88 586.763 2250.98 Q588.181 2250.07 588.181 2248.43 Q588.181 2246.91 587.148 2246.1 Q586.135 2245.29 582.672 2244.54 L581.375 2244.24 Q577.912 2243.51 576.372 2242.01 Q574.833 2240.49 574.833 2237.86 Q574.833 2234.66 577.102 2232.92 Q579.37 2231.18 583.543 2231.18 Q585.608 2231.18 587.431 2231.48 Q589.254 2231.78 590.794 2232.39 Z" fill="#000000" fill-rule="nonzero" fill-opacity="1" /><path clip-path="url(#clip480)" d="M597.943 2231.72 L601.67 2231.72 L601.67 2254.41 L597.943 2254.41 L597.943 2231.72 M597.943 2222.89 L601.67 2222.89 L601.67 2227.61 L597.943 2227.61 L597.943 2222.89 Z" fill="#000000" fill-rule="nonzero" fill-opacity="1" /><path clip-path="url(#clip480)" d="M625.753 2243.09 Q625.753 2238.97 624.052 2236.64 Q622.37 2234.3 619.413 2234.3 Q616.456 2234.3 614.755 2236.64 Q613.074 2238.97 613.074 2243.09 Q613.074 2247.2 614.755 2249.55 Q616.456 2251.88 619.413 2251.88 Q622.37 2251.88 624.052 2249.55 Q625.753 2247.2 625.753 2243.09 M613.074 2235.17 Q614.248 2233.14 616.031 2232.17 Q617.833 2231.18 620.325 2231.18 Q624.457 2231.18 627.029 2234.46 Q629.622 2237.74 629.622 2243.09 Q629.622 2248.43 627.029 2251.71 Q624.457 2255 620.325 2255 Q617.833 2255 616.031 2254.02 Q614.248 2253.03 613.074 2251.01 L613.074 2254.41 L609.327 2254.41 L609.327 2222.89 L613.074 2222.89 L613.074 2235.17 Z" fill="#000000" fill-rule="nonzero" fill-opacity="1" /><path clip-path="url(#clip480)" d="M635.799 2222.89 L639.526 2222.89 L639.526 2254.41 L635.799 2254.41 L635.799 2222.89 Z" fill="#000000" fill-rule="nonzero" fill-opacity="1" /><path clip-path="url(#clip480)" d="M647.324 2231.72 L651.051 2231.72 L651.051 2254.41 L647.324 2254.41 L647.324 2231.72 M647.324 2222.89 L651.051 2222.89 L651.051 2227.61 L647.324 2227.61 L647.324 2222.89 Z" fill="#000000" fill-rule="nonzero" fill-opacity="1" /><path clip-path="url(#clip480)" d="M677.706 2240.72 L677.706 2254.41 L673.979 2254.41 L673.979 2240.84 Q673.979 2237.62 672.723 2236.02 Q671.467 2234.42 668.956 2234.42 Q665.938 2234.42 664.196 2236.34 Q662.454 2238.26 662.454 2241.59 L662.454 2254.41 L658.707 2254.41 L658.707 2231.72 L662.454 2231.72 L662.454 2235.25 Q663.791 2233.2 665.594 2232.19 Q667.416 2231.18 669.786 2231.18 Q673.695 2231.18 675.701 2233.61 Q677.706 2236.02 677.706 2240.72 Z" fill="#000000" fill-rule="nonzero" fill-opacity="1" /><path clip-path="url(#clip480)" d="M700.067 2242.8 Q700.067 2238.75 698.386 2236.52 Q696.725 2234.3 693.707 2234.3 Q690.709 2234.3 689.028 2236.52 Q687.367 2238.75 687.367 2242.8 Q687.367 2246.83 689.028 2249.06 Q690.709 2251.29 693.707 2251.29 Q696.725 2251.29 698.386 2249.06 Q700.067 2246.83 700.067 2242.8 M703.794 2251.59 Q703.794 2257.39 701.221 2260.2 Q698.649 2263.04 693.342 2263.04 Q691.378 2263.04 689.636 2262.73 Q687.894 2262.45 686.253 2261.84 L686.253 2258.22 Q687.894 2259.11 689.494 2259.53 Q691.094 2259.96 692.755 2259.96 Q696.421 2259.96 698.244 2258.03 Q700.067 2256.13 700.067 2252.26 L700.067 2250.42 Q698.912 2252.42 697.11 2253.42 Q695.307 2254.41 692.795 2254.41 Q688.623 2254.41 686.071 2251.23 Q683.519 2248.05 683.519 2242.8 Q683.519 2237.54 686.071 2234.36 Q688.623 2231.18 692.795 2231.18 Q695.307 2231.18 697.11 2232.17 Q698.912 2233.16 700.067 2235.17 L700.067 2231.72 L703.794 2231.72 L703.794 2251.59 Z" fill="#000000" fill-rule="nonzero" fill-opacity="1" /><path clip-path="url(#clip480)" d="M725.932 2232.39 L725.932 2235.92 Q724.352 2235.11 722.651 2234.7 Q720.949 2234.3 719.126 2234.3 Q716.351 2234.3 714.954 2235.15 Q713.577 2236 713.577 2237.7 Q713.577 2238.99 714.569 2239.74 Q715.561 2240.47 718.559 2241.14 L719.835 2241.42 Q723.805 2242.28 725.466 2243.83 Q727.147 2245.37 727.147 2248.15 Q727.147 2251.31 724.636 2253.15 Q722.144 2255 717.769 2255 Q715.946 2255 713.961 2254.63 Q711.997 2254.29 709.809 2253.58 L709.809 2249.73 Q711.875 2250.8 713.88 2251.35 Q715.886 2251.88 717.85 2251.88 Q720.483 2251.88 721.901 2250.98 Q723.319 2250.07 723.319 2248.43 Q723.319 2246.91 722.286 2246.1 Q721.273 2245.29 717.81 2244.54 L716.513 2244.24 Q713.05 2243.51 711.511 2242.01 Q709.971 2240.49 709.971 2237.86 Q709.971 2234.66 712.24 2232.92 Q714.508 2231.18 718.681 2231.18 Q720.747 2231.18 722.57 2231.48 Q724.392 2231.78 725.932 2232.39 Z" fill="#000000" fill-rule="nonzero" fill-opacity="1" /><path clip-path="url(#clip480)" d="M2613.95 3387.93 L2613.95 3391.45 Q2612.37 3390.64 2610.67 3390.24 Q2608.97 3389.83 2607.15 3389.83 Q2604.37 3389.83 2602.97 3390.68 Q2601.6 3391.53 2601.6 3393.24 Q2601.6 3394.53 2602.59 3395.28 Q2603.58 3396.01 2606.58 3396.68 L2607.86 3396.96 Q2611.83 3397.81 2613.49 3399.37 Q2615.17 3400.91 2615.17 3403.69 Q2615.17 3406.85 2612.66 3408.69 Q2610.16 3410.53 2605.79 3410.53 Q2603.97 3410.53 2601.98 3410.17 Q2600.02 3409.82 2597.83 3409.12 L2597.83 3405.27 Q2599.9 3406.34 2601.9 3406.89 Q2603.91 3407.41 2605.87 3407.41 Q2608.5 3407.41 2609.92 3406.52 Q2611.34 3405.61 2611.34 3403.97 Q2611.34 3402.45 2610.31 3401.64 Q2609.29 3400.83 2605.83 3400.08 L2604.53 3399.78 Q2601.07 3399.05 2599.53 3397.55 Q2597.99 3396.03 2597.99 3393.4 Q2597.99 3390.2 2600.26 3388.46 Q2602.53 3386.71 2606.7 3386.71 Q2608.77 3386.71 2610.59 3387.02 Q2612.41 3387.32 2613.95 3387.93 Z" fill="#000000" fill-rule="nonzero" fill-opacity="1" /><path clip-path="url(#clip480)" d="M2620.72 3400.99 L2620.72 3387.26 L2624.44 3387.26 L2624.44 3400.85 Q2624.44 3404.07 2625.7 3405.69 Q2626.96 3407.29 2629.47 3407.29 Q2632.48 3407.29 2634.23 3405.37 Q2635.99 3403.44 2635.99 3400.12 L2635.99 3387.26 L2639.72 3387.26 L2639.72 3409.95 L2635.99 3409.95 L2635.99 3406.46 Q2634.63 3408.53 2632.83 3409.54 Q2631.05 3410.53 2628.68 3410.53 Q2624.77 3410.53 2622.74 3408.1 Q2620.72 3405.67 2620.72 3400.99 M2630.09 3386.71 L2630.09 3386.71 Z" fill="#000000" fill-rule="nonzero" fill-opacity="1" /><path clip-path="url(#clip480)" d="M2660.54 3390.74 Q2659.91 3390.38 2659.16 3390.22 Q2658.43 3390.04 2657.54 3390.04 Q2654.38 3390.04 2652.68 3392.1 Q2651 3394.15 2651 3398 L2651 3409.95 L2647.25 3409.95 L2647.25 3387.26 L2651 3387.26 L2651 3390.78 Q2652.17 3388.72 2654.06 3387.73 Q2655.94 3386.71 2658.63 3386.71 Q2659.02 3386.71 2659.48 3386.77 Q2659.95 3386.81 2660.52 3386.92 L2660.54 3390.74 Z" fill="#000000" fill-rule="nonzero" fill-opacity="1" /><path clip-path="url(#clip480)" d="M2661.77 3387.26 L2665.72 3387.26 L2672.81 3406.3 L2679.9 3387.26 L2683.85 3387.26 L2675.34 3409.95 L2670.28 3409.95 L2661.77 3387.26 Z" fill="#000000" fill-rule="nonzero" fill-opacity="1" /><path clip-path="url(#clip480)" d="M2688.99 3387.26 L2692.72 3387.26 L2692.72 3409.95 L2688.99 3409.95 L2688.99 3387.26 M2688.99 3378.43 L2692.72 3378.43 L2692.72 3383.15 L2688.99 3383.15 L2688.99 3378.43 Z" fill="#000000" fill-rule="nonzero" fill-opacity="1" /><path clip-path="url(#clip480)" d="M2697.85 3387.26 L2701.8 3387.26 L2708.88 3406.3 L2715.97 3387.26 L2719.92 3387.26 L2711.42 3409.95 L2706.35 3409.95 L2697.85 3387.26 Z" fill="#000000" fill-rule="nonzero" fill-opacity="1" /><path clip-path="url(#clip480)" d="M2744.47 3397.67 L2744.47 3399.49 L2727.34 3399.49 Q2727.58 3403.34 2729.65 3405.37 Q2731.73 3407.37 2735.44 3407.37 Q2737.59 3407.37 2739.59 3406.85 Q2741.62 3406.32 2743.6 3405.27 L2743.6 3408.79 Q2741.6 3409.64 2739.49 3410.09 Q2737.38 3410.53 2735.22 3410.53 Q2729.79 3410.53 2726.61 3407.37 Q2723.45 3404.21 2723.45 3398.83 Q2723.45 3393.26 2726.45 3389.99 Q2729.46 3386.71 2734.57 3386.71 Q2739.15 3386.71 2741.8 3389.67 Q2744.47 3392.61 2744.47 3397.67 M2740.75 3396.58 Q2740.7 3393.52 2739.02 3391.7 Q2737.36 3389.87 2734.61 3389.87 Q2731.49 3389.87 2729.61 3391.64 Q2727.74 3393.4 2727.46 3396.6 L2740.75 3396.58 Z" fill="#000000" fill-rule="nonzero" fill-opacity="1" /><path clip-path="url(#clip480)" d="M2765.52 3390.7 L2765.52 3378.43 L2769.24 3378.43 L2769.24 3409.95 L2765.52 3409.95 L2765.52 3406.54 Q2764.34 3408.57 2762.54 3409.56 Q2760.76 3410.53 2758.25 3410.53 Q2754.13 3410.53 2751.54 3407.25 Q2748.97 3403.97 2748.97 3398.62 Q2748.97 3393.28 2751.54 3389.99 Q2754.13 3386.71 2758.25 3386.71 Q2760.76 3386.71 2762.54 3387.71 Q2764.34 3388.68 2765.52 3390.7 M2752.82 3398.62 Q2752.82 3402.74 2754.5 3405.08 Q2756.2 3407.41 2759.16 3407.41 Q2762.11 3407.41 2763.82 3405.08 Q2765.52 3402.74 2765.52 3398.62 Q2765.52 3394.51 2763.82 3392.18 Q2762.11 3389.83 2759.16 3389.83 Q2756.2 3389.83 2754.5 3392.18 Q2752.82 3394.51 2752.82 3398.62 Z" fill="#000000" fill-rule="nonzero" fill-opacity="1" /></svg>
